<svg xmlns="http://www.w3.org/2000/svg" width="38" height="38" viewBox="0 0 38 38">
  <g id="Group_30775" data-name="Group 30775" transform="translate(-320 -7450)">
    <g id="Group_26911" data-name="Group 26911" transform="translate(320 7450)">
      <rect id="Rectangle_23" data-name="Rectangle 23" width="38" height="38" fill="#13ae84" opacity="0"/>
    </g>
    <g id="Group_26908" data-name="Group 26908" transform="translate(328 7453.5)">
      <path id="Path_13449" data-name="Path 13449" d="M8.7,30.222c-.567-.06-1.135-.108-1.7-.183a13.237,13.237,0,0,1-5.4-1.657,4.751,4.751,0,0,1-1.083-.943,2.026,2.026,0,0,1-.014-2.7,5.366,5.366,0,0,1,2.208-1.532,14.658,14.658,0,0,1,3.489-.951c.056-.009.111-.026.214-.05-.395-.5-.778-.972-1.138-1.457-1.158-1.565-2.348-3.108-3.448-4.713A10.156,10.156,0,0,1,.1,11.478,9.927,9.927,0,0,1,2.387,3.564,9.626,9.626,0,0,1,8.734.09a9.755,9.755,0,0,1,8.843,3.289A9.759,9.759,0,0,1,20.107,10.7a10.327,10.327,0,0,1-1.827,5.345c-1.152,1.689-2.408,3.306-3.624,4.951-.3.4-.611.785-.931,1.194.67.145,1.306.26,1.929.424a8.446,8.446,0,0,1,3.519,1.653,2.215,2.215,0,0,1,.058,3.587,7.846,7.846,0,0,1-3.162,1.591,19.047,19.047,0,0,1-4.327.72,2.71,2.71,0,0,0-.318.055Zm1.363-5.166.134-.178c1.375-1.8,2.768-3.581,4.121-5.394,1.064-1.425,2.151-2.842,3.1-4.342a9.178,9.178,0,0,0,1.285-7.086A8.885,8.885,0,1,0,1.665,12.993a14.605,14.605,0,0,0,2.341,4.139c1.5,1.976,3.031,3.925,4.543,5.89.508.661,1,1.335,1.518,2.033m-.022,3.99a20.425,20.425,0,0,0,6.15-.895,5.711,5.711,0,0,0,2.338-1.267.961.961,0,0,0-.017-1.58,6.228,6.228,0,0,0-1.322-.869,13.389,13.389,0,0,0-4.169-1.106.412.412,0,0,0-.3.167q-1.037,1.379-2.055,2.772c-.412.561-.8.562-1.211,0-.679-.928-1.36-1.855-2.052-2.774a.427.427,0,0,0-.326-.162c-.717.115-1.437.228-2.143.4a8.09,8.09,0,0,0-3.041,1.3c-.926.7-.951,1.451.006,2.1a8.427,8.427,0,0,0,1.885.948,19.308,19.308,0,0,0,6.256.957" transform="translate(0 0)" fill="#0c30fb" stroke="#0c30fb" stroke-width="0.2"/>
      <path id="Path_13450" data-name="Path 13450" d="M75.137,78.681a3.865,3.865,0,1,1,3.836,3.873,3.852,3.852,0,0,1-3.836-3.873m3.845,2.772a2.757,2.757,0,1,0-2.741-2.777,2.786,2.786,0,0,0,2.741,2.777" transform="translate(-68.938 -68.328)" fill="#0c30fb" stroke="#0c30fb" stroke-width="0.2"/>
      <path id="Path_13451" data-name="Path 13451" d="M155.738,41.8c0,.055,0,.11,0,.165,0,.406-.2.651-.542.656s-.552-.239-.561-.639a6.081,6.081,0,0,0-3.95-5.64c-.346-.132-.512-.38-.448-.66a.562.562,0,0,1,.8-.391,7.161,7.161,0,0,1,4.706,6.508" transform="translate(-138.494 -31.646)" fill="#0c30fb" stroke="#0c30fb" stroke-width="0.2"/>
      <path id="Path_13452" data-name="Path 13452" d="M121.4,29.935a.55.55,0,1,1,0,1.1.55.55,0,0,1,0-1.1" transform="translate(-111.294 -26.73)" fill="#0c30fb" stroke="#0c30fb" stroke-width="0.2"/>
    </g>
  </g>
</svg>
