<svg id="Group_30774" data-name="Group 30774" xmlns="http://www.w3.org/2000/svg" xmlns:xlink="http://www.w3.org/1999/xlink" width="38" height="38" viewBox="0 0 38 38">
  <defs>
    <clipPath id="clip-path">
      <rect id="Rectangle_28" data-name="Rectangle 28" width="27.863" height="28.883" fill="#0c30fb"/>
    </clipPath>
  </defs>
  <rect id="Rectangle_23" data-name="Rectangle 23" width="38" height="38" fill="#13ae84" opacity="0"/>
  <g id="Group_68" data-name="Group 68" transform="translate(3.249 4.25)">
    <g id="Group_67" data-name="Group 67" clip-path="url(#clip-path)">
      <path id="Path_13446" data-name="Path 13446" d="M19.477,48.955c-.48-.087-.964-.156-1.439-.265a18.172,18.172,0,0,1-4.958-2.1A27.178,27.178,0,0,1,6.324,41.1a27.362,27.362,0,0,1-5.5-8.88A12.416,12.416,0,0,1,.006,28.5,4.8,4.8,0,0,1,1.262,24.79c.773-.806,1.53-1.634,2.35-2.387A2.482,2.482,0,0,1,7,22.395c.538.474,1.034,1,1.532,1.521.786.82,1.587,1.628,2.327,2.491a2.672,2.672,0,0,1-.026,3.479c-.629.727-1.31,1.406-1.977,2.1a.276.276,0,0,0-.061.378A15.751,15.751,0,0,0,11.433,36.1a18.7,18.7,0,0,0,3.522,3.088,11.1,11.1,0,0,0,1.071.609.3.3,0,0,0,.264-.072c.547-.549,1.083-1.111,1.625-1.666a3.038,3.038,0,0,1,1.8-1.017,2.321,2.321,0,0,1,1.922.588c.579.526,1.117,1.1,1.661,1.667.742.773,1.5,1.536,2.2,2.344a2.751,2.751,0,0,1,.04,3.536c-.272.339-.574.652-.873.967-.572.6-1.13,1.222-1.735,1.788a3.815,3.815,0,0,1-2.16.972.756.756,0,0,0-.151.054ZM1.609,28.106a10.057,10.057,0,0,0,.727,3.559,24.814,24.814,0,0,0,4.2,7.189A26.149,26.149,0,0,0,15,45.768,12.609,12.609,0,0,0,19.735,47.3a2.736,2.736,0,0,0,2.251-.695c.769-.756,1.507-1.548,2.228-2.354a1.133,1.133,0,0,0-.027-1.68c-.4-.44-.813-.858-1.224-1.284-.724-.751-1.445-1.507-2.178-2.249a1,1,0,0,0-1.509-.05c-.091.078-.173.166-.257.252-.629.65-1.255,1.3-1.888,1.952a1.181,1.181,0,0,1-1.514.266c-.371-.2-.744-.39-1.1-.61a19.689,19.689,0,0,1-4.4-3.785,16.086,16.086,0,0,1-2.906-4.326,1.367,1.367,0,0,1,.331-1.748c.62-.62,1.237-1.244,1.843-1.878a1.209,1.209,0,0,0-.007-1.983l-.038-.04Q7.808,25.5,6.279,23.916a1.151,1.151,0,0,0-1.925,0c-.58.6-1.143,1.209-1.736,1.791a3.084,3.084,0,0,0-1.01,2.4" transform="translate(0.001 -20.072)" fill="#0c30fb"/>
      <path id="Path_13447" data-name="Path 13447" d="M211.668,13.032c-.013.013-.031.023-.037.039-.175.432-.466.66-.8.626a.851.851,0,0,1-.784-.8,14.077,14.077,0,0,0-1.685-4.661,13.733,13.733,0,0,0-4.645-4.814,12.665,12.665,0,0,0-4.444-1.738.893.893,0,0,1-.82-.67.81.81,0,0,1,.942-1,14.782,14.782,0,0,1,7.566,3.873,15.452,15.452,0,0,1,4.086,6.452c.242.733.381,1.5.569,2.255a1.5,1.5,0,0,0,.056.154Z" transform="translate(-183.805 0)" fill="#0c30fb"/>
      <path id="Path_13448" data-name="Path 13448" d="M196.307,67.735a20.084,20.084,0,0,1,2.106.707,9.257,9.257,0,0,1,5.294,6.414c.054.208.1.419.136.631a.849.849,0,0,1-.589,1,.813.813,0,0,1-.966-.608,16.07,16.07,0,0,0-.668-2.1,7.39,7.39,0,0,0-5.272-4.283c-.1-.022-.2-.04-.291-.067a.814.814,0,0,1-.585-.946.787.787,0,0,1,.813-.672l.023-.076" transform="translate(-181.058 -62.565)" fill="#0c30fb"/>
    </g>
  </g>
</svg>
