<svg xmlns="http://www.w3.org/2000/svg" width="28" height="28" viewBox="0 0 28 28">
  <g id="Group_30777" data-name="Group 30777" transform="translate(-1463 -7579)">
    <g id="Rectangle_16204" data-name="Rectangle 16204" transform="translate(1463 7579)" stroke="#707070" stroke-width="1" opacity="0">
      <rect width="28" height="28" stroke="none"/>
      <rect x="0.5" y="0.5" width="27" height="27" fill="none"/>
    </g>
    <g id="_5296499_fb_facebook_facebook_logo_icon" data-name="5296499_fb_facebook_facebook logo_icon" transform="translate(1468 7584)">
      <path id="Path_13422" data-name="Path 13422" d="M18.176,9.088A9.088,9.088,0,1,0,7.668,18.065v-6.35H5.36V9.088H7.668v-2A3.207,3.207,0,0,1,11.1,3.55a13.975,13.975,0,0,1,2.034.177V5.964H11.989a1.313,1.313,0,0,0-1.481,1.419v1.7h2.52l-.4,2.627H10.508v6.35A9.09,9.09,0,0,0,18.176,9.088Z"/>
    </g>
  </g>
</svg>
