<svg xmlns="http://www.w3.org/2000/svg" width="28" height="28" viewBox="0 0 28 28">
  <g id="Group_30776" data-name="Group 30776" transform="translate(-1498 -7578)">
    <g id="Rectangle_16205" data-name="Rectangle 16205" transform="translate(1498 7578)" stroke="#707070" stroke-width="1" opacity="0">
      <rect width="28" height="28" stroke="none"/>
      <rect x="0.5" y="0.5" width="27" height="27" fill="none"/>
    </g>
    <path id="Subtraction_16" data-name="Subtraction 16" d="M9.094,18.192A9.1,9.1,0,0,1,2.664,2.664,9.1,9.1,0,1,1,15.526,15.528,9.04,9.04,0,0,1,9.094,18.192Zm0-15.3c-1.663,0-1.885.007-2.561.038a4.58,4.58,0,0,0-1.507.29,2.962,2.962,0,0,0-1.1.715,3.029,3.029,0,0,0-.717,1.1,4.631,4.631,0,0,0-.29,1.509c-.03.669-.037.89-.037,2.559s.007,1.892.037,2.559a4.6,4.6,0,0,0,.29,1.509,3.006,3.006,0,0,0,.717,1.1,3.066,3.066,0,0,0,1.1.717,4.609,4.609,0,0,0,1.507.288c.663.032.891.038,2.559.038s1.9-.006,2.561-.038a4.6,4.6,0,0,0,1.507-.288,3.189,3.189,0,0,0,1.814-1.818,4.627,4.627,0,0,0,.29-1.509c.03-.668.037-.889.037-2.559S15.3,7.2,15.268,6.535a4.6,4.6,0,0,0-.29-1.509A3.188,3.188,0,0,0,13.16,3.215a4.607,4.607,0,0,0-1.507-.29C11,2.9,10.809,2.889,9.1,2.889Zm0,11.3c-1.673,0-1.868-.006-2.51-.035a3.407,3.407,0,0,1-1.153-.215,2.046,2.046,0,0,1-1.176-1.177A3.451,3.451,0,0,1,4.042,11.6c-.029-.64-.036-.834-.036-2.508s0-1.859.036-2.509a3.414,3.414,0,0,1,.215-1.153A2.046,2.046,0,0,1,5.433,4.257a3.493,3.493,0,0,1,1.153-.213c.643-.031.837-.038,2.51-.038s1.866.007,2.509.038a3.4,3.4,0,0,1,1.151.213,2.056,2.056,0,0,1,1.177,1.177,3.447,3.447,0,0,1,.215,1.153c.027.639.036.831.036,2.509s-.006,1.868-.036,2.508a3.413,3.413,0,0,1-.215,1.153,2.056,2.056,0,0,1-1.177,1.177,3.442,3.442,0,0,1-1.151.215C10.941,14.179,10.723,14.186,9.1,14.186Zm0-8.278A3.188,3.188,0,1,0,12.284,9.1,3.192,3.192,0,0,0,9.094,5.908Zm3.315-.873a.746.746,0,1,0,.745.747A.747.747,0,0,0,12.409,5.036ZM9.094,11.167a2.071,2.071,0,1,1,2.07-2.07A2.072,2.072,0,0,1,9.094,11.167Z" transform="translate(1502.662 7601.189) rotate(-90)"/>
  </g>
</svg>
