<svg id="XMLID_6849_" xmlns="http://www.w3.org/2000/svg" width="88.5" height="88.5" viewBox="0 0 88.5 88.5">
  <g id="XMLID_6856_">
    <path id="XMLID_6859_" d="M88.5,44.25A44.257,44.257,0,0,1,2.524,59.012,44.261,44.261,0,0,1,85.976,29.488,44.5,44.5,0,0,1,88.5,44.25Z" fill="#fff"/>
    <path id="XMLID_6858_" d="M98.053,29.488H14.6a44.266,44.266,0,0,1,83.453,0Z" transform="translate(-12.076)" fill="#f93"/>
    <path id="XMLID_6857_" d="M98.053,341.4a44.266,44.266,0,0,1-83.453,0Z" transform="translate(-12.076 -282.389)" fill="#128807"/>
  </g>
  <g id="XMLID_6850_" transform="translate(32.41 32.41)">
    <path id="XMLID_6855_" d="M207.944,207.619l.035-.017.017-.017.035-.035a.053.053,0,0,0,.017-.035l.035-.035.017-.017.035-.035.017-.017,1.608,1.227,5.583,2.817-5.22-3.44-1.85-.778.017-.017.017-.035a.06.06,0,0,0,.017-.035l.017-.035a.06.06,0,0,0,.017-.035l.017-.035.017-.035.017-.035.017-.035v-.017l1.867.761,6.119,1.279L210.485,207l-1.988-.277.017-.017v-.035a.017.017,0,0,1,.017-.017v-.035l.017-.035v-.017l.017-.035v-.138l2.005.242,6.24-.363-6.24-.363-2.005.242v-.086l-.017-.035v-.017l-.017-.052v-.017a.06.06,0,0,0-.017-.035v-.035l-.017-.035,1.988-.277,5.929-1.953-6.119,1.279-1.867.761v-.017l-.017-.035-.017-.035v-.017l-.017-.035a40473323652.1,40473323652.1,0,0,1-.035-.069l-.017-.035-.017-.035-.017-.017,1.85-.778,5.22-3.422-5.583,2.817-1.608,1.21a.017.017,0,0,0-.017-.017l-.035-.035-.017-.035-.017-.017-.017-.017-.035-.035-.017-.017-.035-.035-.017-.035-.017-.017,1.59-1.227,4.166-4.667-4.7,4.148-1.245,1.59-.017-.017-.035-.017-.017-.017-.017-.017-.035-.035-.035-.035-.017-.017-.035-.017-.035-.017-.017-.017,1.21-1.608,2.817-5.583-3.44,5.22-.778,1.85-.017-.017a.017.017,0,0,1-.017-.017l-.035-.017-.035-.017-.035-.017-.035-.017-.035-.017-.035-.017-.035-.017-.035-.017.761-1.867,1.279-6.119-1.953,5.929L206.8,204.2h-.017a.053.053,0,0,0-.035-.017l-.035-.017h-.035l-.035-.017H206.6l-.035-.017h-.069l.242-1.988-.363-6.24-.363,6.24.242,1.988H206.2l-.035.017h-.069l-.035.017h-.035l-.035.017a.053.053,0,0,0-.035.017h-.017l-.277-1.988-1.953-5.929,1.279,6.119.761,1.867-.035.017-.035.017-.035.017-.035.017a.06.06,0,0,1-.035.017l-.035.017-.035.017-.017.017a.054.054,0,0,1-.035.017l-.035.017-.778-1.85-3.422-5.22,2.817,5.583,1.21,1.608-.017.017-.035.035a.017.017,0,0,0-.017.017l-.035.017-.035.035-.035.017-.017.017-.017.017-.035.017-.017.017-1.245-1.59-4.65-4.166,4.166,4.667,1.59,1.227-.017.017-.017.035-.017.017-.017.035-.035.035a.06.06,0,0,0-.017.035l-.017.017-.017.035-.035.035-.017.017-1.608-1.21-5.583-2.817,5.22,3.422,1.85.778a.017.017,0,0,1-.017.017l-.017.035-.017.035-.017.017-.017.035-.017.035-.017.017-.017.035-.017.035v.017l-1.867-.761-6.119-1.279,5.946,1.953,1.988.277-.017.035v.035l-.017.035v.017l-.017.035v.035l-.017.035v.086l-2.005-.242-6.24.363,6.24.363,2.005-.242v.1l.017.017v.035l.017.035v.035a.06.06,0,0,1,.017.035v.035l.017.017-1.988.277-5.946,1.97,6.119-1.279,1.867-.761v.035l.017.035.017.035.017.035a.017.017,0,0,0,.017.017l.017.052.017.035a.017.017,0,0,0,.017.017l.017.035.017.017-1.85.778-5.22,3.44,5.583-2.817,1.608-1.227.017.017a.054.054,0,0,1,.017.035l.017.035.017.017.035.035.035.035.017.017a.06.06,0,0,0,.035.017.06.06,0,0,1,.017.035l.017.017-1.59,1.245-4.166,4.65,4.65-4.148,1.245-1.59a.017.017,0,0,1,.017.017.054.054,0,0,0,.035.017l.035.035.017.017.035.035.035.017.017.017a.06.06,0,0,0,.035.017l.035.017.017.017-1.21,1.607-2.817,5.583,3.422-5.22.778-1.85.017.017a.054.054,0,0,0,.035.017l.017.017.035.017.035.017.017.017.035.017.035.017a.06.06,0,0,0,.035.017l.035.017-.761,1.867-1.279,6.119,1.953-5.929.277-1.988.017.017h.035l.035.017h.035l.035.017h.035l.017.017h.086l-.242,2.005.363,6.24.363-6.24-.242-2.005h.086a.017.017,0,0,0,.017-.017h.035l.035-.017h.017l.035-.017h.035l.017-.017.277,1.988,1.953,5.929L207.7,210.16l-.761-1.867.035-.017.017-.017.035-.017.035-.017.035-.017.035-.017.035-.017.017-.017.035-.017.017-.017.778,1.85,3.44,5.22-2.817-5.583L207.425,208l.017-.017.035-.017.035-.017.017-.017.035-.035.035-.035.017-.017.017-.017.035-.035.017-.017,1.245,1.59,4.65,4.148-4.1-4.6-1.59-1.245.017-.017C207.927,207.636,207.944,207.636,207.944,207.619Z" transform="translate(-194.531 -194.448)" fill="#008"/>
    <path id="XMLID_6851_" d="M199.34,187.5a11.84,11.84,0,1,0,11.84,11.84A11.836,11.836,0,0,0,199.34,187.5Zm10.112,13.742.069.017a10.006,10.006,0,0,1-.432,1.608.522.522,0,0,0-.467.933.247.247,0,0,1,.069.035,10.686,10.686,0,0,1-.83,1.435.53.53,0,0,0-.709.035.555.555,0,0,0,0,.743l.052.052a10.788,10.788,0,0,1-1.175,1.175.532.532,0,0,0-.691-.138.518.518,0,0,0-.19.709c.017.035.035.035.035.035a6.665,6.665,0,0,1-1.435.847.52.52,0,0,0-.985.328l.017.069a12.206,12.206,0,0,1-1.608.432.52.52,0,0,0-1.037.052l.017.069c-.277.017-.536.035-.812.035-.294,0-.57-.017-.847-.035a.522.522,0,0,0-.38-.588.5.5,0,0,0-.64.363l-.017.069a10.009,10.009,0,0,1-1.608-.432.524.524,0,0,0-.207-.657.51.51,0,0,0-.709.19.25.25,0,0,0-.035.052,9.011,9.011,0,0,1-1.435-.812.551.551,0,0,0-.035-.709.578.578,0,0,0-.761,0s-.035.035-.035.052a12.578,12.578,0,0,1-1.175-1.175.514.514,0,0,0,.138-.674.5.5,0,0,0-.709-.19c-.035.017-.035.035-.035.035a6.968,6.968,0,0,1-.847-1.435.52.52,0,0,0,.311-.622.51.51,0,0,0-.64-.363c-.035,0-.052.017-.086.017a12.714,12.714,0,0,1-.432-1.59.519.519,0,0,0-.052-1.037.172.172,0,0,0-.069.017c-.017-.277-.035-.536-.035-.812,0-.294.017-.57.035-.847a.532.532,0,0,0,.588-.38.525.525,0,0,0-.38-.64l-.1-.069a9.352,9.352,0,0,1,.432-1.59.507.507,0,0,0,.657-.225.514.514,0,0,0-.19-.709l-.069-.035a11.88,11.88,0,0,1,.83-1.435.55.55,0,0,0,.709-.035.556.556,0,0,0,0-.743l-.035-.035a8.409,8.409,0,0,1,1.158-1.193.532.532,0,0,0,.691.138.514.514,0,0,0,.19-.709l-.035-.052a10.686,10.686,0,0,1,1.435-.83.52.52,0,0,0,.985-.328.351.351,0,0,1-.017-.086,9.972,9.972,0,0,1,1.608-.415.52.52,0,0,0,1.037-.052v-.052a4.013,4.013,0,0,1,.8-.052c.294,0,.57.017.864.035a.543.543,0,0,0,.38.588.525.525,0,0,0,.64-.38.392.392,0,0,0,.017-.069,10.006,10.006,0,0,1,1.608.432.546.546,0,0,0,.207.674.525.525,0,0,0,.709-.19l.035-.069a9.2,9.2,0,0,1,1.435.847.509.509,0,0,0,.035.691.522.522,0,0,0,.743,0l.052-.052a12.571,12.571,0,0,1,1.175,1.175.532.532,0,0,0-.138.691.518.518,0,0,0,.709.19l.052-.035a10.682,10.682,0,0,1,.83,1.435.529.529,0,0,0-.311.622.542.542,0,0,0,.64.38l.069-.035a12.206,12.206,0,0,1,.432,1.608.52.52,0,0,0,.052,1.037h.069c.017.259.035.519.035.8,0,.294-.017.57-.035.864a.522.522,0,0,0-.588.38A.6.6,0,0,0,209.452,201.242Z" transform="translate(-187.5 -187.5)" fill="#008"/>
  </g>
</svg>
