<svg id="Group_30769" data-name="Group 30769" xmlns="http://www.w3.org/2000/svg" xmlns:xlink="http://www.w3.org/1999/xlink" width="447.242" height="369.865" viewBox="0 0 447.242 369.865">
  <defs>
    <clipPath id="clip-path">
      <rect id="Rectangle_50738" data-name="Rectangle 50738" width="447.242" height="369.865" fill="none"/>
    </clipPath>
    <clipPath id="clip-path-3">
      <rect id="Rectangle_50691" data-name="Rectangle 50691" width="7.645" height="22.806" fill="none"/>
    </clipPath>
    <clipPath id="clip-path-4">
      <rect id="Rectangle_50694" data-name="Rectangle 50694" width="7.645" height="27.801" fill="none"/>
    </clipPath>
    <clipPath id="clip-path-5">
      <rect id="Rectangle_50697" data-name="Rectangle 50697" width="7.645" height="27.088" fill="none"/>
    </clipPath>
    <clipPath id="clip-path-6">
      <path id="Path_20988" data-name="Path 20988" d="M262.884,69.868l-2.042,4.6s-7.659,18.549-9.361,24.165-2.892,14.807-2.553,15.827,2.553,4.595,6.468,4.765,7.318.172,7.318.172l-5.956,12.423s.681,9.7,1.7,9.869,16-11.4,16.337-11.913,9.871-20.932,9.871-20.932,8.509-4.255,9.019-8a5.948,5.948,0,0,0-2.213-5.616V90.632L295.218,79.4a73.352,73.352,0,0,0-19.74-8.679,40.33,40.33,0,0,0-9.317-1.407c-2.556,0-3.277.555-3.277.555" transform="translate(-248.871 -69.313)" fill="none"/>
    </clipPath>
    <radialGradient id="radial-gradient" cx="0.503" cy="0.499" r="0.419" gradientTransform="matrix(1.556, 0, 0, -1, 4.459, 7.322)" gradientUnits="objectBoundingBox">
      <stop offset="0" stop-color="#ffc8af"/>
      <stop offset="1" stop-color="#ffbb9c"/>
    </radialGradient>
    <clipPath id="clip-path-8">
      <path id="Path_20991" data-name="Path 20991" d="M261.382,87.853c-.465.924-.367,1.912.22,2.209s1.441-.212,1.906-1.134.369-1.911-.218-2.207a.792.792,0,0,0-.366-.086,1.984,1.984,0,0,0-1.542,1.219" transform="translate(-261.089 -86.634)" fill="none"/>
    </clipPath>
    <radialGradient id="radial-gradient-2" cx="0.5" cy="0.472" r="0.421" gradientTransform="matrix(1.217, 0, 0, -1, 27.908, 128.654)" xlink:href="#radial-gradient"/>
    <clipPath id="clip-path-10">
      <path id="Path_20998" data-name="Path 20998" d="M248.58,104.513c-1.857.206-5.568,8.046-5.568,8.046l4.744-.826,1.444-3.713h3.095s2.269-.208,2.269-1.858c0-1.319-2.639-1.715-4.646-1.715a12.264,12.264,0,0,0-1.337.066" transform="translate(-243.012 -104.447)" fill="none"/>
    </clipPath>
    <radialGradient id="radial-gradient-3" cx="0.5" cy="0.5" r="0.615" gradientTransform="matrix(0.702, 0, 0, -1, -9.423, 52.446)" xlink:href="#radial-gradient"/>
    <clipPath id="clip-path-11">
      <path id="Path_20999" data-name="Path 20999" d="M243.3,109.512c-1.032.414-1.65,7.428-1.65,7.428l-1.443,8.046-1.858,1.237,5.365,3.507.618-1.649a10.527,10.527,0,0,0,2.889-1.858,18.435,18.435,0,0,0,1.443-3.713s3.715-.826,4.539-2.887.618-10.315.618-10.315-2.373-.053-4.873-.053a33.729,33.729,0,0,0-5.648.257" transform="translate(-238.349 -109.255)" fill="none"/>
    </clipPath>
    <radialGradient id="radial-gradient-4" cx="0.494" cy="0.5" r="0.443" gradientTransform="matrix(1.306, 0, 0, -1, 6.997, 20.073)" xlink:href="#radial-gradient"/>
    <clipPath id="clip-path-12">
      <path id="Path_21000" data-name="Path 21000" d="M236.84,122.188l7.222,6.6,3.3-3.507L238.9,119.3Z" transform="translate(-236.84 -119.299)" fill="none"/>
    </clipPath>
    <radialGradient id="radial-gradient-5" cx="0.5" cy="0.5" r="0.528" gradientTransform="matrix(0.902, 0, 0, -1, -3.321, 40.121)" xlink:href="#radial-gradient"/>
    <clipPath id="clip-path-14">
      <path id="Path_21002" data-name="Path 21002" d="M228.3,132.543c-.206,1.857,1.446,3.712,1.446,3.712s-5.159-1.65-5.983-1.237-2.476,1.032-2.063,2.476a17.575,17.575,0,0,0,1.031,2.681s-3.3,4.333-3.3,6.4,2.27,5.363,3.921,6.6,7.426,2.475,7.426,2.475l7.428-6.394s-3.1-5.777-3.3-7.428-.414-4.951-1.446-6.189-2.269-2.063-2.681-3.919c-.163-.731-.549-1.046-.97-1.047-.648,0-1.38.748-1.506,1.873" transform="translate(-219.426 -130.67)" fill="none"/>
    </clipPath>
    <radialGradient id="radial-gradient-6" cx="0.5" cy="0.5" r="0.442" gradientTransform="matrix(1.33, 0, 0, -1, 5.81, 13.874)" xlink:href="#radial-gradient"/>
    <clipPath id="clip-path-16">
      <rect id="Rectangle_50721" data-name="Rectangle 50721" width="41.617" height="94.485" fill="none"/>
    </clipPath>
    <clipPath id="clip-path-17">
      <path id="Path_21016" data-name="Path 21016" d="M120.231,200.871s3.215,17.557,8.655,27.7,7.465,25.375,7.465,28.59-2.472,8.409-3.214,10.635-.011,4.191,2.215,4.933a52.88,52.88,0,0,1,9.507,4.152c2.225,1.485,3.036,2.427,6.993,3.168s7.993.852,8.242-.137-6.182-7.419-6.182-7.419a29.787,29.787,0,0,1-4.453-6.678,63.676,63.676,0,0,1-4.2-11.375s-3.262-38.977-5.24-51.837-2.72-27.2-2.72-27.2Z" transform="translate(-120.231 -175.397)" fill="none"/>
    </clipPath>
    <radialGradient id="radial-gradient-7" cx="0.497" cy="0.499" r="0.377" gradientTransform="matrix(2.63, 0, 0, -1, 7.352, 2.009)" xlink:href="#radial-gradient"/>
    <clipPath id="clip-path-19">
      <path id="Path_21019" data-name="Path 21019" d="M68.959,157.167s-2.228,8.711-1.013,14.181,9.523,18.234,23.906,21.273,50.539,2.055,50.539,2.055-8.708,13.23-11.953,29.173c-2.15,10.552-8.712,25.326-9.726,27.555s-12.966,6.28-12.561,8.1,1.823,13.17,4.863,17.83a19.1,19.1,0,0,0,10.13,7.294c2.027.606,2.431.606,2.431-1.419s-1.417-4.862-1.417-6.686-.2-14.183.608-15.8,27.351-43.356,31.4-50.244,10.331-20.261,12.156-22.49,4.052-5.267,2.228-9.116-43.68-16.761-43.68-16.761l-2.2-7.783-20.867-1.216Z" transform="translate(-67.584 -153.114)" fill="none"/>
    </clipPath>
    <radialGradient id="radial-gradient-8" cx="0.499" cy="0.5" r="0.449" gradientTransform="matrix(1.251, 0, 0, -1, 0.239, 2.112)" xlink:href="#radial-gradient"/>
    <clipPath id="clip-path-21">
      <path id="Path_21027" data-name="Path 21027" d="M154.108,127.268a42.02,42.02,0,0,0-3.5,3.18c-1.273,1.113-3.976,1.911-4.3,2.386s-2.705,5.729-2.705,5.729l-7.956,3.5,2.546,6.841s6.842-3.978,7.956-4.136,6.523-1.115,8.273-1.432,2.705-1.434,3.66-3.66,5.091-9.069,4.3-11.3-3.818,2.865-3.818,2.865l-7.8,2.865a20.784,20.784,0,0,0,3.34-3.66c1.208-1.811.555-3.194.077-3.194a.229.229,0,0,0-.077.014" transform="translate(-135.652 -127.254)" fill="none"/>
    </clipPath>
    <radialGradient id="radial-gradient-9" cx="0.487" cy="0.524" r="0.536" gradientTransform="matrix(0.827, 0, 0, -1, -1.286, 15.78)" xlink:href="#radial-gradient"/>
    <clipPath id="clip-path-23">
      <path id="Path_21029" data-name="Path 21029" d="M134.853,128.357c-1.59.954-3.818.954-4.772,2.227s-4.933,6.364-4.933,6.364l-6.206,1.751.319,5.41,9.547-3.5s2.227-.317,3.5-.636,5.887-.954,7.8-2.546,5.728-5.251,5.728-5.251,2.705-4.455,2.388-5.728-5.57,3.34-5.57,3.34-8.114,1.909-7.477,1.434a33.881,33.881,0,0,0,3.341-2.388c.794-.8,1.59-3.659.794-4.3a.341.341,0,0,0-.221-.077c-.912,0-2.774,3.02-4.234,3.9" transform="translate(-118.942 -124.462)" fill="none"/>
    </clipPath>
    <radialGradient id="radial-gradient-10" cx="0.495" cy="0.5" r="0.635" gradientTransform="matrix(0.664, 0, 0, -1, -2.032, 18.589)" xlink:href="#radial-gradient"/>
    <clipPath id="clip-path-25">
      <path id="Path_21033" data-name="Path 21033" d="M94.032,82.145C85.273,93.293,89.4,111.839,89.4,111.839l4.607,4.352,12.323,11.488,2.2-12.18s10.382,1.957,11.61.345,4.244-12.459,4.244-12.459,4.315-2.515,4.408-3.009-3.439-4.029-4.643-5.792,1.441-3.567,1.763-4.736-5.371-14.684-5.371-14.684a36.975,36.975,0,0,0-7.65-.763c-5.889,0-13.846,1.365-18.857,7.744" transform="translate(-88.43 -74.401)" fill="none"/>
    </clipPath>
    <radialGradient id="radial-gradient-11" cx="0.535" cy="0.5" r="0.444" gradientTransform="matrix(1.222, 0, 0, -1, 0.66, 9.682)" xlink:href="#radial-gradient"/>
  </defs>
  <g id="Group_30768" data-name="Group 30768" clip-path="url(#clip-path)">
    <line id="Line_76" data-name="Line 76" x2="11.023" y2="105.631" transform="translate(12.086 218.082)" fill="#d9dfe2"/>
    <line id="Line_77" data-name="Line 77" x1="4.998" y1="5.278" transform="translate(16.335 298.221)" fill="#d9dfe2"/>
    <g id="Group_30724" data-name="Group 30724">
      <g id="Group_30723" data-name="Group 30723" clip-path="url(#clip-path)">
        <path id="Path_20915" data-name="Path 20915" d="M15.459,201.542a5.661,5.661,0,0,0-1.989-4.24c-1.283-1.145-8.034-3.985-8.675-1.607-.7,2.585,6.214,7.664,10.664,5.846" transform="translate(2.395 98.26)" fill="#d9dfe2"/>
        <line id="Line_78" data-name="Line 78" x1="6.427" y1="4.005" transform="translate(11.427 295.797)" fill="#d9dfe2"/>
        <line id="Line_79" data-name="Line 79" x1="4.998" y1="5.278" transform="translate(17.589 310.234)" fill="#d9dfe2"/>
        <path id="Path_20916" data-name="Path 20916" d="M16.292,209.527a5.661,5.661,0,0,0-1.989-4.24c-1.283-1.145-8.034-3.985-8.675-1.607-.7,2.585,6.214,7.664,10.664,5.846" transform="translate(2.815 102.288)" fill="#d9dfe2"/>
        <line id="Line_80" data-name="Line 80" x1="6.427" y1="4.005" transform="translate(12.681 307.81)" fill="#d9dfe2"/>
        <line id="Line_81" data-name="Line 81" x1="4.998" y1="5.279" transform="translate(13.276 268.904)" fill="#d9dfe2"/>
        <path id="Path_20917" data-name="Path 20917" d="M13.426,182.057a5.661,5.661,0,0,0-1.989-4.24c-1.283-1.145-8.034-3.985-8.675-1.608-.7,2.586,6.214,7.665,10.664,5.848" transform="translate(1.369 88.43)" fill="#d9dfe2"/>
        <line id="Line_82" data-name="Line 82" x1="6.427" y1="4.005" transform="translate(8.367 266.482)" fill="#d9dfe2"/>
        <line id="Line_83" data-name="Line 83" x1="4.998" y1="5.278" transform="translate(14.53 280.919)" fill="#d9dfe2"/>
        <path id="Path_20918" data-name="Path 20918" d="M14.259,190.042a5.661,5.661,0,0,0-1.989-4.24c-1.283-1.145-8.034-3.985-8.675-1.607-.7,2.585,6.214,7.664,10.664,5.846" transform="translate(1.789 92.458)" fill="#d9dfe2"/>
        <line id="Line_84" data-name="Line 84" x1="6.427" y1="4.005" transform="translate(9.621 278.495)" fill="#d9dfe2"/>
        <line id="Line_85" data-name="Line 85" x1="4.998" y1="5.278" transform="translate(11.239 249.391)" fill="#d9dfe2"/>
        <path id="Path_20919" data-name="Path 20919" d="M12.072,169.086a5.661,5.661,0,0,0-1.989-4.24c-1.283-1.145-8.034-3.985-8.675-1.607-.7,2.585,6.214,7.664,10.664,5.846" transform="translate(0.686 81.886)" fill="#d9dfe2"/>
        <line id="Line_86" data-name="Line 86" x1="6.427" y1="4.005" transform="translate(6.331 246.967)" fill="#d9dfe2"/>
        <line id="Line_87" data-name="Line 87" x1="4.998" y1="5.278" transform="translate(9.194 229.791)" fill="#d9dfe2"/>
        <path id="Path_20920" data-name="Path 20920" d="M10.713,156.058a5.667,5.667,0,0,0-1.989-4.24C7.439,150.673.689,147.833.049,150.21c-.7,2.586,6.212,7.665,10.664,5.848" transform="translate(0 75.313)" fill="#d9dfe2"/>
        <line id="Line_88" data-name="Line 88" x1="6.427" y1="4.005" transform="translate(4.286 227.367)" fill="#d9dfe2"/>
        <line id="Line_89" data-name="Line 89" y1="6.197" x2="3.8" transform="translate(20.493 290.193)" fill="#d9dfe2"/>
        <path id="Path_20921" data-name="Path 20921" d="M15.414,196.99a5.662,5.662,0,0,1,1.071-4.559c1.019-1.386,7.038-5.559,8.156-3.364,1.216,2.386-4.5,8.782-9.227,7.923" transform="translate(7.72 95.065)" fill="#d9dfe2"/>
        <line id="Line_90" data-name="Line 90" y1="5.532" x2="5.788" transform="translate(23.134 286.523)" fill="#d9dfe2"/>
        <line id="Line_91" data-name="Line 91" y1="6.197" x2="3.8" transform="translate(17.194 258.58)" fill="#d9dfe2"/>
        <path id="Path_20922" data-name="Path 20922" d="M13.221,175.977a5.662,5.662,0,0,1,1.071-4.559c1.019-1.386,7.038-5.559,8.156-3.364,1.216,2.386-4.5,8.782-9.227,7.923" transform="translate(6.614 84.464)" fill="#d9dfe2"/>
        <line id="Line_92" data-name="Line 92" y1="5.532" x2="5.788" transform="translate(19.835 254.91)" fill="#d9dfe2"/>
        <line id="Line_93" data-name="Line 93" y1="6.197" x2="3.8" transform="translate(15.744 244.687)" fill="#d9dfe2"/>
        <path id="Path_20923" data-name="Path 20923" d="M12.257,166.743a5.662,5.662,0,0,1,1.071-4.559c1.019-1.386,7.038-5.559,8.156-3.364,1.216,2.386-4.5,8.782-9.227,7.923" transform="translate(6.127 79.806)" fill="#d9dfe2"/>
        <line id="Line_94" data-name="Line 94" y1="5.532" x2="5.788" transform="translate(18.385 241.017)" fill="#d9dfe2"/>
        <line id="Line_95" data-name="Line 95" y1="6.197" x2="3.8" transform="translate(13.619 224.32)" fill="#d9dfe2"/>
        <path id="Path_20924" data-name="Path 20924" d="M10.844,153.206a5.662,5.662,0,0,1,1.071-4.559c1.019-1.386,7.038-5.559,8.156-3.364,1.216,2.386-4.5,8.782-9.227,7.923" transform="translate(5.415 72.977)" fill="#d9dfe2"/>
        <line id="Line_96" data-name="Line 96" y1="5.532" x2="5.788" transform="translate(16.259 220.65)" fill="#d9dfe2"/>
        <path id="Path_20925" data-name="Path 20925" d="M8.009,147.432a5.662,5.662,0,0,1,1.071-4.559c1.019-1.386,7.038-5.559,8.156-3.364,1.216,2.386-4.5,8.782-9.227,7.923" transform="translate(3.984 70.064)" fill="#d9dfe2"/>
        <line id="Line_97" data-name="Line 97" y1="5.532" x2="5.788" transform="translate(11.993 211.964)" fill="#d9dfe2"/>
        <path id="Path_20926" data-name="Path 20926" d="M10.768,148.112a5.66,5.66,0,0,1-4.422-1.544c-1.271-1.158-4.789-7.581-2.49-8.463,2.5-.958,8.263,5.394,6.912,10.006" transform="translate(1.561 69.623)" fill="#d9dfe2"/>
        <line id="Line_98" data-name="Line 98" x1="4.894" y1="6.335" transform="translate(7.435 211.399)" fill="#d9dfe2"/>
        <line id="Line_99" data-name="Line 99" x1="10.962" y2="105.639" transform="translate(30.2 232.629)" fill="#d9dfe2"/>
        <line id="Line_100" data-name="Line 100" x1="3.803" y1="6.194" transform="translate(28.82 311.926)" fill="#d9dfe2"/>
        <path id="Path_20927" data-name="Path 20927" d="M23.078,211.432A5.657,5.657,0,0,0,22,206.873c-1.019-1.384-7.041-5.553-8.157-3.359-1.214,2.388,4.5,8.78,9.232,7.918" transform="translate(6.902 102.353)" fill="#d9dfe2"/>
        <line id="Line_101" data-name="Line 101" x1="5.464" y1="5.243" transform="translate(24.516 308.542)" fill="#d9dfe2"/>
        <line id="Line_102" data-name="Line 102" x1="3.803" y1="6.194" transform="translate(31.863 282.609)" fill="#d9dfe2"/>
        <path id="Path_20928" data-name="Path 20928" d="M25.1,191.946a5.657,5.657,0,0,0-1.074-4.559c-1.019-1.384-7.041-5.553-8.157-3.36-1.214,2.388,4.5,8.78,9.232,7.918" transform="translate(7.922 92.523)" fill="#d9dfe2"/>
        <line id="Line_103" data-name="Line 103" x1="5.464" y1="5.243" transform="translate(27.558 279.226)" fill="#d9dfe2"/>
        <line id="Line_104" data-name="Line 104" x1="3.803" y1="6.194" transform="translate(30.616 294.623)" fill="#d9dfe2"/>
        <path id="Path_20929" data-name="Path 20929" d="M24.272,199.931a5.653,5.653,0,0,0-1.074-4.557c-1.019-1.386-7.041-5.555-8.157-3.359-1.214,2.386,4.5,8.779,9.232,7.917" transform="translate(7.504 96.552)" fill="#d9dfe2"/>
        <line id="Line_105" data-name="Line 105" x1="5.464" y1="5.243" transform="translate(26.311 291.24)" fill="#d9dfe2"/>
        <line id="Line_106" data-name="Line 106" x1="3.803" y1="6.194" transform="translate(33.888 263.093)" fill="#d9dfe2"/>
        <path id="Path_20930" data-name="Path 20930" d="M26.446,178.974a5.657,5.657,0,0,0-1.074-4.559c-1.019-1.384-7.041-5.553-8.157-3.36-1.214,2.388,4.5,8.78,9.232,7.918" transform="translate(8.601 85.979)" fill="#d9dfe2"/>
        <line id="Line_107" data-name="Line 107" x1="5.464" y1="5.243" transform="translate(29.583 259.71)" fill="#d9dfe2"/>
        <line id="Line_108" data-name="Line 108" x1="3.803" y1="6.194" transform="translate(35.922 243.492)" fill="#d9dfe2"/>
        <path id="Path_20931" data-name="Path 20931" d="M27.8,165.945a5.653,5.653,0,0,0-1.074-4.557c-1.019-1.386-7.041-5.556-8.157-3.361-1.214,2.388,4.5,8.78,9.232,7.918" transform="translate(9.283 79.406)" fill="#d9dfe2"/>
        <line id="Line_109" data-name="Line 109" x1="5.464" y1="5.243" transform="translate(31.617 240.108)" fill="#d9dfe2"/>
        <line id="Line_110" data-name="Line 110" y1="5.281" x2="4.995" transform="translate(33.265 305.71)" fill="#d9dfe2"/>
        <path id="Path_20932" data-name="Path 20932" d="M24.423,206.523a5.66,5.66,0,0,1,1.987-4.241c1.282-1.145,8.031-3.99,8.673-1.613.7,2.586-6.209,7.668-10.661,5.854" transform="translate(12.32 100.769)" fill="#d9dfe2"/>
        <line id="Line_111" data-name="Line 111" y1="4.222" x2="6.802" transform="translate(36.742 303.07)" fill="#d9dfe2"/>
        <line id="Line_112" data-name="Line 112" y1="5.281" x2="4.995" transform="translate(36.546 274.095)" fill="#d9dfe2"/>
        <path id="Path_20933" data-name="Path 20933" d="M26.6,185.509a5.657,5.657,0,0,1,1.986-4.24c1.283-1.146,8.032-3.991,8.675-1.614.7,2.586-6.209,7.67-10.661,5.854" transform="translate(13.42 90.168)" fill="#d9dfe2"/>
        <line id="Line_113" data-name="Line 113" y1="4.222" x2="6.802" transform="translate(40.023 271.455)" fill="#d9dfe2"/>
        <line id="Line_114" data-name="Line 114" y1="5.281" x2="4.995" transform="translate(37.988 260.201)" fill="#d9dfe2"/>
        <path id="Path_20934" data-name="Path 20934" d="M27.562,176.274a5.656,5.656,0,0,1,1.987-4.24c1.282-1.146,8.031-3.991,8.673-1.614.7,2.586-6.209,7.67-10.661,5.854" transform="translate(13.903 85.509)" fill="#d9dfe2"/>
        <line id="Line_115" data-name="Line 115" y1="4.222" x2="6.802" transform="translate(41.465 257.561)" fill="#d9dfe2"/>
        <line id="Line_116" data-name="Line 116" y1="5.281" x2="4.995" transform="translate(40.101 239.833)" fill="#d9dfe2"/>
        <path id="Path_20935" data-name="Path 20935" d="M28.966,162.736a5.657,5.657,0,0,1,1.986-4.24c1.283-1.146,8.032-3.991,8.675-1.614.7,2.586-6.209,7.67-10.661,5.854" transform="translate(14.612 78.68)" fill="#d9dfe2"/>
        <line id="Line_117" data-name="Line 117" y1="4.222" x2="6.802" transform="translate(43.578 237.193)" fill="#d9dfe2"/>
        <path id="Path_20936" data-name="Path 20936" d="M27.38,156.5a5.662,5.662,0,0,1,1.986-4.241c1.283-1.145,8.032-3.99,8.675-1.613.7,2.586-6.209,7.668-10.661,5.854" transform="translate(13.812 75.535)" fill="#d9dfe2"/>
        <line id="Line_118" data-name="Line 118" y1="4.222" x2="6.802" transform="translate(41.192 227.815)" fill="#d9dfe2"/>
        <path id="Path_20937" data-name="Path 20937" d="M29.519,158.2a5.656,5.656,0,0,1-4.008-2.421c-1.006-1.395-3.126-8.406-.7-8.8,2.645-.423,6.975,6.979,4.7,11.216" transform="translate(11.952 74.141)" fill="#d9dfe2"/>
        <line id="Line_119" data-name="Line 119" x1="3.484" y1="7.208" transform="translate(37.987 225.131)" fill="#d9dfe2"/>
        <line id="Line_120" data-name="Line 120" y2="133.586" transform="translate(28.6 189.613)" fill="#d9dfe2"/>
        <line id="Line_121" data-name="Line 121" x1="4.423" y1="5.768" transform="translate(24.283 297.345)" fill="#d9dfe2"/>
        <path id="Path_20938" data-name="Path 20938" d="M20.422,201.365a5.656,5.656,0,0,0-1.539-4.423c-1.157-1.271-7.577-4.8-8.46-2.5-.961,2.5,5.383,8.269,10,6.922" transform="translate(5.209 97.709)" fill="#d9dfe2"/>
        <line id="Line_122" data-name="Line 122" x1="5.977" y1="4.65" transform="translate(19.653 294.425)" fill="#d9dfe2"/>
        <line id="Line_123" data-name="Line 123" x1="4.423" y1="5.768" transform="translate(24.283 272.241)" fill="#d9dfe2"/>
        <path id="Path_20939" data-name="Path 20939" d="M20.422,184.679a5.656,5.656,0,0,0-1.539-4.423c-1.157-1.271-7.577-4.8-8.46-2.5-.961,2.5,5.383,8.269,10,6.922" transform="translate(5.209 89.292)" fill="#d9dfe2"/>
        <line id="Line_124" data-name="Line 124" x1="5.977" y1="4.65" transform="translate(19.653 269.321)" fill="#d9dfe2"/>
        <line id="Line_125" data-name="Line 125" x1="4.423" y1="5.768" transform="translate(24.283 242.767)" fill="#d9dfe2"/>
        <path id="Path_20940" data-name="Path 20940" d="M20.422,165.088a5.656,5.656,0,0,0-1.539-4.423c-1.157-1.273-7.577-4.8-8.46-2.5-.961,2.5,5.383,8.269,10,6.922" transform="translate(5.209 79.408)" fill="#d9dfe2"/>
        <line id="Line_126" data-name="Line 126" x1="5.977" y1="4.65" transform="translate(19.653 239.847)" fill="#d9dfe2"/>
        <line id="Line_127" data-name="Line 127" x1="4.423" y1="5.768" transform="translate(24.283 223.146)" fill="#d9dfe2"/>
        <path id="Path_20941" data-name="Path 20941" d="M20.422,152.047a5.656,5.656,0,0,0-1.539-4.423c-1.157-1.273-7.577-4.8-8.46-2.5-.961,2.5,5.383,8.269,10,6.922" transform="translate(5.209 72.829)" fill="#d9dfe2"/>
        <line id="Line_128" data-name="Line 128" x1="5.977" y1="4.65" transform="translate(19.653 220.226)" fill="#d9dfe2"/>
        <line id="Line_129" data-name="Line 129" x1="4.423" y1="5.768" transform="translate(24.283 203.44)" fill="#d9dfe2"/>
        <path id="Path_20942" data-name="Path 20942" d="M20.422,138.948a5.656,5.656,0,0,0-1.539-4.423c-1.157-1.273-7.577-4.8-8.46-2.5-.961,2.5,5.383,8.269,10,6.922" transform="translate(5.209 66.221)" fill="#d9dfe2"/>
        <line id="Line_130" data-name="Line 130" x1="5.977" y1="4.65" transform="translate(19.653 200.519)" fill="#d9dfe2"/>
        <line id="Line_131" data-name="Line 131" y1="5.768" x2="4.423" transform="translate(28.609 305.011)" fill="#d9dfe2"/>
        <path id="Path_20943" data-name="Path 20943" d="M21.072,206.461a5.656,5.656,0,0,1,1.539-4.423c1.155-1.273,7.577-4.8,8.46-2.5.961,2.5-5.385,8.269-10,6.922" transform="translate(10.614 100.28)" fill="#d9dfe2"/>
        <line id="Line_132" data-name="Line 132" y1="4.902" x2="6.331" transform="translate(31.685 301.84)" fill="#d9dfe2"/>
        <line id="Line_133" data-name="Line 133" y1="5.768" x2="4.423" transform="translate(28.609 265.084)" fill="#d9dfe2"/>
        <path id="Path_20944" data-name="Path 20944" d="M21.072,179.922a5.656,5.656,0,0,1,1.539-4.423c1.155-1.271,7.577-4.8,8.46-2.5.961,2.5-5.385,8.269-10,6.922" transform="translate(10.614 86.892)" fill="#d9dfe2"/>
        <line id="Line_134" data-name="Line 134" y1="4.902" x2="6.331" transform="translate(31.685 261.913)" fill="#d9dfe2"/>
        <line id="Line_135" data-name="Line 135" y1="5.768" x2="4.423" transform="translate(28.609 245.378)" fill="#d9dfe2"/>
        <path id="Path_20945" data-name="Path 20945" d="M21.072,166.824a5.656,5.656,0,0,1,1.539-4.423c1.155-1.271,7.577-4.8,8.46-2.5.961,2.5-5.385,8.269-10,6.922" transform="translate(10.614 80.284)" fill="#d9dfe2"/>
        <line id="Line_136" data-name="Line 136" y1="4.9" x2="6.331" transform="translate(31.685 242.208)" fill="#d9dfe2"/>
        <line id="Line_137" data-name="Line 137" y1="5.768" x2="4.423" transform="translate(28.609 219.331)" fill="#d9dfe2"/>
        <path id="Path_20946" data-name="Path 20946" d="M21.072,149.511a5.656,5.656,0,0,1,1.539-4.423c1.155-1.273,7.577-4.8,8.46-2.5.961,2.5-5.385,8.269-10,6.922" transform="translate(10.614 71.55)" fill="#d9dfe2"/>
        <line id="Line_138" data-name="Line 138" y1="4.902" x2="6.331" transform="translate(31.685 216.159)" fill="#d9dfe2"/>
        <line id="Line_139" data-name="Line 139" y1="5.768" x2="4.423" transform="translate(28.609 198.853)" fill="#d9dfe2"/>
        <path id="Path_20947" data-name="Path 20947" d="M21.072,135.9a5.656,5.656,0,0,1,1.539-4.423c1.155-1.273,7.577-4.8,8.46-2.5.961,2.5-5.385,8.269-10,6.922" transform="translate(10.614 64.683)" fill="#d9dfe2"/>
        <line id="Line_140" data-name="Line 140" y1="4.902" x2="6.331" transform="translate(31.685 195.682)" fill="#d9dfe2"/>
        <path id="Path_20948" data-name="Path 20948" d="M18.851,129.863a5.656,5.656,0,0,1,1.539-4.423c1.155-1.271,7.577-4.8,8.46-2.5.961,2.5-5.385,8.269-10,6.922" transform="translate(9.494 61.638)" fill="#d9dfe2"/>
        <line id="Line_141" data-name="Line 141" y1="4.9" x2="6.331" transform="translate(28.344 186.601)" fill="#d9dfe2"/>
        <path id="Path_20949" data-name="Path 20949" d="M21.312,131.062a5.661,5.661,0,0,1-4.237-1.993c-1.145-1.285-3.978-8.038-1.6-8.676,2.588-.694,7.658,6.221,5.836,10.67" transform="translate(7.341 60.711)" fill="#d9dfe2"/>
        <line id="Line_142" data-name="Line 142" x1="4.21" y1="6.809" transform="translate(24.443 184.964)" fill="#d9dfe2"/>
        <path id="Path_20950" data-name="Path 20950" d="M28,249.834H13.853L12.084,214.1H29.768Z" transform="translate(6.096 108.012)" fill="#d9dfe2"/>
        <path id="Path_20951" data-name="Path 20951" d="M263.211,28.983a20.207,20.207,0,1,0-35.733,12.927,19.845,19.845,0,0,1,4.6,12.716v2.768h21.845v-2.77a19.8,19.8,0,0,1,4.593-12.7,20.109,20.109,0,0,0,4.691-12.939" transform="translate(112.398 4.427)" fill="#ffc557"/>
        <rect id="Rectangle_50689" data-name="Rectangle 50689" width="21.845" height="5.404" transform="translate(344.48 61.825)" fill="#0731ff"/>
        <path id="Path_20952" data-name="Path 20952" d="M245.411,50.1H234.373a5.4,5.4,0,0,1-5.4-5.4h21.847a5.4,5.4,0,0,1-5.4,5.4" transform="translate(115.511 22.548)" fill="#0731ff"/>
        <path id="Path_20953" data-name="Path 20953" d="M241.73,53.686h-5.524a5.4,5.4,0,0,1-5.4-5.4h16.333a5.4,5.4,0,0,1-5.4,5.4" transform="translate(116.435 24.357)" fill="#ffc557"/>
        <line id="Line_143" data-name="Line 143" x2="9.256" transform="translate(378.478 33.516)" fill="none" stroke="#1a2e35" stroke-linecap="round" stroke-linejoin="round" stroke-width="1"/>
        <line id="Line_144" data-name="Line 144" x2="9.376" transform="translate(322.204 33.516)" fill="none" stroke="#1a2e35" stroke-linecap="round" stroke-linejoin="round" stroke-width="1"/>
        <line id="Line_145" data-name="Line 145" y1="9.283" transform="translate(354.969 0.751)" fill="none" stroke="#1a2e35" stroke-linecap="round" stroke-linejoin="round" stroke-width="1"/>
        <line id="Line_146" data-name="Line 146" y1="6.39" x2="6.39" transform="translate(371.748 10.348)" fill="none" stroke="#1a2e35" stroke-linecap="round" stroke-linejoin="round" stroke-width="1"/>
        <line id="Line_147" data-name="Line 147" y1="6.483" x2="6.483" transform="translate(331.801 50.202)" fill="none" stroke="#1a2e35" stroke-linecap="round" stroke-linejoin="round" stroke-width="1"/>
        <line id="Line_148" data-name="Line 148" x1="6.204" y1="6.204" transform="translate(331.801 10.349)" fill="none" stroke="#1a2e35" stroke-linecap="round" stroke-linejoin="round" stroke-width="1"/>
        <line id="Line_149" data-name="Line 149" x1="6.179" y1="6.179" transform="translate(371.958 50.506)" fill="none" stroke="#1a2e35" stroke-linecap="round" stroke-linejoin="round" stroke-width="1"/>
        <path id="Path_20954" data-name="Path 20954" d="M224.269,68.934,185.116,14.8l-39.153,54.13h16.1v60.145h46.1V68.934Z" transform="translate(73.636 7.468)" fill="#0731ff"/>
        <path id="Path_20955" data-name="Path 20955" d="M225.7,99.322a40.358,40.358,0,1,0-40.358,40.358A40.358,40.358,0,0,0,225.7,99.322" transform="translate(73.141 29.746)" fill="#fff"/>
        <circle id="Ellipse_3573" data-name="Ellipse 3573" cx="40.358" cy="40.358" r="40.358" transform="translate(218.123 88.71)" fill="none" stroke="#d9dfe2" stroke-linecap="round" stroke-linejoin="round" stroke-width="1"/>
        <path id="Path_20956" data-name="Path 20956" d="M217.75,97.326a34.406,34.406,0,1,0-34.406,34.406A34.406,34.406,0,0,0,217.75,97.326" transform="translate(75.137 31.742)" fill="#fff"/>
        <circle id="Ellipse_3574" data-name="Ellipse 3574" cx="34.406" cy="34.406" r="34.406" transform="matrix(0.987, -0.16, 0.16, 0.987, 219.008, 100.618)" fill="none" stroke="#d9dfe2" stroke-linecap="round" stroke-linejoin="round" stroke-width="1"/>
        <path id="Path_20957" data-name="Path 20957" d="M186.844,98.346c0-9-12.763-9.2-12.763-12.961,0-1.977,1.038-2.571,3.165-2.571,1.831,0,3.363.791,5.145,2.374L186.6,80.34a13,13,0,0,0-7.47-4.142v-5.06h-5.542v5.21a9.063,9.063,0,0,0-7.619,9.433c0,8.657,12.764,9.2,12.764,13.158,0,1.929-.988,2.77-3.462,2.77-2.079,0-4.157-.791-6.829-2.77l-3.66,5.738a16.753,16.753,0,0,0,8.806,3.736v4.971h5.542v-5.317a9.392,9.392,0,0,0,7.717-9.722" transform="translate(83.128 35.888)" fill="#0731ff"/>
        <path id="Path_20958" data-name="Path 20958" d="M71.027,58.1A26.274,26.274,0,1,0,44.752,84.376,26.274,26.274,0,0,0,71.027,58.1" transform="translate(9.322 16.056)" fill="#fff"/>
        <circle id="Ellipse_3575" data-name="Ellipse 3575" cx="26.274" cy="26.274" r="26.274" transform="matrix(0.973, -0.23, 0.23, 0.973, 22.466, 54.623)" fill="none" stroke="#1a2e35" stroke-linecap="round" stroke-linejoin="round" stroke-width="1"/>
        <path id="Path_20959" data-name="Path 20959" d="M43.367,32.546,35.941,57.739H62.217a26.273,26.273,0,0,0-18.85-25.193" transform="translate(18.132 16.419)" fill="#0731ff"/>
        <path id="Path_20960" data-name="Path 20960" d="M46.788,42.4,57.223,30.1h8.944" transform="translate(23.604 15.184)" fill="none" stroke="#1a2e35" stroke-linecap="round" stroke-linejoin="round" stroke-width="0.5"/>
        <line id="Line_150" data-name="Line 150" x2="13.417" transform="translate(96.107 45.656)" fill="none" stroke="#1a2e35" stroke-linecap="round" stroke-linejoin="round" stroke-width="0.5"/>
        <line id="Line_151" data-name="Line 151" x2="13.417" transform="translate(96.107 49.01)" fill="none" stroke="#1a2e35" stroke-linecap="round" stroke-linejoin="round" stroke-width="0.5"/>
        <line id="Line_152" data-name="Line 152" x2="13.417" transform="translate(96.107 52.365)" fill="none" stroke="#1a2e35" stroke-linecap="round" stroke-linejoin="round" stroke-width="0.5"/>
        <line id="Line_153" data-name="Line 153" x2="13.417" transform="translate(96.107 55.719)" fill="none" stroke="#1a2e35" stroke-linecap="round" stroke-linejoin="round" stroke-width="0.5"/>
        <g id="Group_30716" data-name="Group 30716" transform="translate(21.295 128.218)" opacity="0.6">
          <g id="Group_30715" data-name="Group 30715">
            <g id="Group_30714" data-name="Group 30714" clip-path="url(#clip-path-3)">
              <rect id="Rectangle_50690" data-name="Rectangle 50690" width="7.646" height="22.806" transform="translate(0)" fill="#0731ff"/>
            </g>
          </g>
        </g>
        <rect id="Rectangle_50692" data-name="Rectangle 50692" width="7.646" height="14.602" transform="translate(33.308 136.422)" fill="#d9dfe2"/>
        <g id="Group_30719" data-name="Group 30719" transform="translate(45.323 123.223)" opacity="0.6">
          <g id="Group_30718" data-name="Group 30718">
            <g id="Group_30717" data-name="Group 30717" clip-path="url(#clip-path-4)">
              <rect id="Rectangle_50693" data-name="Rectangle 50693" width="7.646" height="27.801" fill="#0731ff"/>
            </g>
          </g>
        </g>
        <rect id="Rectangle_50695" data-name="Rectangle 50695" width="7.646" height="22.051" transform="translate(57.336 128.973)" fill="#d9dfe2"/>
        <g id="Group_30722" data-name="Group 30722" transform="translate(69.35 123.936)" opacity="0.6">
          <g id="Group_30721" data-name="Group 30721">
            <g id="Group_30720" data-name="Group 30720" clip-path="url(#clip-path-5)">
              <rect id="Rectangle_50696" data-name="Rectangle 50696" width="7.646" height="27.088" transform="translate(-0.001)" fill="#0731ff"/>
            </g>
          </g>
        </g>
        <rect id="Rectangle_50698" data-name="Rectangle 50698" width="7.646" height="43.141" transform="translate(81.364 107.883)" fill="#d9dfe2"/>
        <line id="Line_154" data-name="Line 154" x2="4.473" transform="translate(97.598 107.429)" fill="none" stroke="#1a2e35" stroke-linecap="round" stroke-linejoin="round" stroke-width="0.5"/>
        <line id="Line_155" data-name="Line 155" x2="4.473" transform="translate(97.598 116.15)" fill="none" stroke="#1a2e35" stroke-linecap="round" stroke-linejoin="round" stroke-width="0.5"/>
        <line id="Line_156" data-name="Line 156" x2="4.473" transform="translate(97.598 124.871)" fill="none" stroke="#1a2e35" stroke-linecap="round" stroke-linejoin="round" stroke-width="0.5"/>
        <line id="Line_157" data-name="Line 157" x2="4.473" transform="translate(97.598 133.592)" fill="none" stroke="#1a2e35" stroke-linecap="round" stroke-linejoin="round" stroke-width="0.5"/>
        <line id="Line_158" data-name="Line 158" x2="4.473" transform="translate(97.598 142.312)" fill="none" stroke="#1a2e35" stroke-linecap="round" stroke-linejoin="round" stroke-width="0.5"/>
        <line id="Line_159" data-name="Line 159" x2="4.473" transform="translate(97.598 151.033)" fill="none" stroke="#1a2e35" stroke-linecap="round" stroke-linejoin="round" stroke-width="0.5"/>
        <path id="Path_20961" data-name="Path 20961" d="M17.06,88.667l11.715,7.086L40.953,82.7l12.036,1.016L64.65,79.09,77.841,61.731" transform="translate(8.606 31.142)" fill="none" stroke="#1a2e35" stroke-linecap="round" stroke-linejoin="round" stroke-width="1"/>
        <path id="Path_20962" data-name="Path 20962" d="M19.033,80.13a1.477,1.477,0,1,0-1.477,1.477,1.478,1.478,0,0,0,1.477-1.477" transform="translate(8.111 39.679)" fill="#1a2e35"/>
        <path id="Path_20963" data-name="Path 20963" d="M26.82,84.84a1.477,1.477,0,1,0-1.477,1.477A1.478,1.478,0,0,0,26.82,84.84" transform="translate(12.039 42.055)" fill="#1a2e35"/>
        <path id="Path_20964" data-name="Path 20964" d="M34.914,76.166a1.477,1.477,0,1,0-1.477,1.477,1.478,1.478,0,0,0,1.477-1.477" transform="translate(16.123 37.679)" fill="#1a2e35"/>
        <path id="Path_20965" data-name="Path 20965" d="M42.914,76.841a1.477,1.477,0,1,0-1.477,1.477,1.478,1.478,0,0,0,1.477-1.477" transform="translate(20.159 38.02)" fill="#1a2e35"/>
        <path id="Path_20966" data-name="Path 20966" d="M50.665,73.609a1.478,1.478,0,1,0-1.479,1.477,1.479,1.479,0,0,0,1.479-1.477" transform="translate(24.068 36.389)" fill="#1a2e35"/>
        <path id="Path_20967" data-name="Path 20967" d="M59.433,62.226A1.477,1.477,0,1,0,57.955,63.7a1.478,1.478,0,0,0,1.477-1.477" transform="translate(28.492 30.647)" fill="#1a2e35"/>
        <rect id="Rectangle_50699" data-name="Rectangle 50699" width="4.768" height="45.927" transform="translate(379.385 286.642)" fill="#1a2e35"/>
        <rect id="Rectangle_50700" data-name="Rectangle 50700" width="4.768" height="45.927" transform="translate(379.385 286.642)" fill="none" stroke="#1a2e35" stroke-linecap="round" stroke-linejoin="round" stroke-width="1"/>
        <rect id="Rectangle_50701" data-name="Rectangle 50701" width="45.928" height="8.466" transform="matrix(0.116, -0.993, 0.993, 0.116, 403.114, 288.269)" fill="#1a2e35"/>
        <rect id="Rectangle_50702" data-name="Rectangle 50702" width="45.928" height="8.466" transform="matrix(0.116, -0.993, 0.993, 0.116, 403.114, 288.269)" fill="none" stroke="#1a2e35" stroke-linecap="round" stroke-linejoin="round" stroke-width="1"/>
        <path id="Path_20968" data-name="Path 20968" d="M265.594,224.893v-7.741h12.1v7.813l48.4,19.426v9.167h-3.3V246.59l-51.327-11.679L221.5,246.59v6.967h-3.212v-9.167Z" transform="translate(110.124 109.549)" fill="#d9dfe2"/>
        <rect id="Rectangle_50703" data-name="Rectangle 50703" width="23.836" height="14.666" transform="translate(369.851 286.642)" fill="#1a2e35"/>
        <rect id="Rectangle_50704" data-name="Rectangle 50704" width="23.836" height="14.666" transform="translate(369.851 286.642)" fill="none" stroke="#1a2e35" stroke-linecap="round" stroke-linejoin="round" stroke-width="1"/>
        <path id="Path_20969" data-name="Path 20969" d="M289.948,243.315a5.133,5.133,0,1,1,5.133,5.133,5.133,5.133,0,0,1-5.133-5.133" transform="translate(146.274 120.159)" fill="#1a2e35"/>
        <circle id="Ellipse_3576" data-name="Ellipse 3576" cx="5.133" cy="5.133" r="5.133" transform="translate(436.21 358.353) rotate(-0.137)" fill="none" stroke="#1a2e35" stroke-linecap="round" stroke-linejoin="round" stroke-width="1"/>
        <path id="Path_20970" data-name="Path 20970" d="M291.9,242.332a2.2,2.2,0,1,1,2.2,2.2,2.2,2.2,0,0,1-2.2-2.2" transform="translate(147.257 121.142)" fill="#fff"/>
        <path id="Path_20971" data-name="Path 20971" d="M291.9,242.332a2.2,2.2,0,1,1,2.2,2.2A2.2,2.2,0,0,1,291.9,242.332Z" transform="translate(147.257 121.142)" fill="none" stroke="#1a2e35" stroke-linecap="round" stroke-linejoin="round" stroke-width="1"/>
        <path id="Path_20972" data-name="Path 20972" d="M211.223,243.315a5.134,5.134,0,1,1,5.133,5.133,5.133,5.133,0,0,1-5.133-5.133" transform="translate(106.558 120.159)" fill="#1a2e35"/>
        <path id="Path_20973" data-name="Path 20973" d="M211.223,243.315a5.134,5.134,0,1,1,5.133,5.133A5.133,5.133,0,0,1,211.223,243.315Z" transform="translate(106.558 120.159)" fill="none" stroke="#1a2e35" stroke-linecap="round" stroke-linejoin="round" stroke-width="1"/>
        <path id="Path_20974" data-name="Path 20974" d="M213.173,242.332a2.2,2.2,0,1,1,2.2,2.2,2.2,2.2,0,0,1-2.2-2.2" transform="translate(107.542 121.142)" fill="#fff"/>
        <path id="Path_20975" data-name="Path 20975" d="M213.173,242.332a2.2,2.2,0,1,1,2.2,2.2A2.2,2.2,0,0,1,213.173,242.332Z" transform="translate(107.542 121.142)" fill="none" stroke="#1a2e35" stroke-linecap="round" stroke-linejoin="round" stroke-width="1"/>
        <path id="Path_20976" data-name="Path 20976" d="M252.968,250.748H257l2.017-27.5h-8.067Z" transform="translate(126.601 112.624)" fill="#d9dfe2"/>
        <rect id="Rectangle_50705" data-name="Rectangle 50705" width="4.034" height="11.368" transform="translate(379.752 357.504)" fill="#1a2e35"/>
        <rect id="Rectangle_50706" data-name="Rectangle 50706" width="4.034" height="11.368" transform="translate(379.752 357.504)" fill="none" stroke="#1a2e35" stroke-linecap="round" stroke-linejoin="round" stroke-width="1"/>
        <path id="Path_20977" data-name="Path 20977" d="M280.315,208.145h0a17.993,17.993,0,0,0,19.634-16.185l5.63-58.5a17.992,17.992,0,0,0-35.819-3.447l-5.63,58.5a17.992,17.992,0,0,0,16.185,19.634" transform="translate(133.207 57.382)" fill="#8c8c8c"/>
        <path id="Path_20978" data-name="Path 20978" d="M277.479,207.872h0a17.991,17.991,0,0,0,19.634-16.184l5.63-58.5a17.992,17.992,0,0,0-35.819-3.447l-5.63,58.5a17.991,17.991,0,0,0,16.185,19.632" transform="translate(131.776 57.245)" fill="#d9dfe2"/>
        <path id="Path_20979" data-name="Path 20979" d="M221.143,200.461l83.926,2.206a3.545,3.545,0,0,0,3.656-3.432l.424-13.435a3.547,3.547,0,0,0-3.433-3.657l-83.925-2.206a3.546,3.546,0,0,0-3.657,3.433L217.71,196.8a3.547,3.547,0,0,0,3.433,3.657" transform="translate(109.83 90.774)" fill="#d9dfe2"/>
        <path id="Path_20980" data-name="Path 20980" d="M247.263,200.962l43.182,1.363a6.38,6.38,0,0,0,6.578-6.176l.245-7.769a6.381,6.381,0,0,0-6.176-6.579l-43.18-1.363a6.381,6.381,0,0,0-6.579,6.176l-.245,7.769a6.381,6.381,0,0,0,6.176,6.579" transform="translate(121.623 91.026)" fill="#d9dfe2"/>
        <path id="Path_20981" data-name="Path 20981" d="M222.381,232.537l-.412,3.095s-3.713,7.426-5.157,8.664-10.521,5.157-12.171,5.776,1.237,2.476,5.157,2.683,11.139.206,13.616-.412,7.22-4.127,8.251-4.333l.826,2.683s4.539-1.65,6.189-2.064a17.005,17.005,0,0,0,4.331-2.475,79.923,79.923,0,0,0-3.3-8.458,14.916,14.916,0,0,0-2.889-3.713l-3.093-3.713Z" transform="translate(102.998 116.166)" fill="#1a2e35"/>
        <path id="Path_20982" data-name="Path 20982" d="M222.381,232.537l-.412,3.095s-3.713,7.426-5.157,8.664-10.521,5.157-12.171,5.776,1.237,2.476,5.157,2.683,11.139.206,13.616-.412,7.22-4.127,8.251-4.333l.826,2.683s4.539-1.65,6.189-2.064a17.005,17.005,0,0,0,4.331-2.475,79.923,79.923,0,0,0-3.3-8.458,14.916,14.916,0,0,0-2.889-3.713l-3.093-3.713Z" transform="translate(102.998 116.166)" fill="none" stroke="#1a2e35" stroke-linecap="round" stroke-linejoin="round" stroke-width="1"/>
        <path id="Path_20983" data-name="Path 20983" d="M257.334,153.443l-6.808,4.125L235.673,161.9s-47.035,8.664-49.717,11.759-1.65,5.776.618,9.7,42.085,90.826,42.085,90.826l16.5-3.3L217.52,187.688s51.986,10.521,61.062,8.87,20.631-11.345,22.694-18.773-7.428-19.185-7.428-19.185Z" transform="translate(93.006 77.409)" fill="#d9dfe2"/>
        <path id="Path_20984" data-name="Path 20984" d="M287.053,108.336l-22.28-2.063-32.595,73.854,21.454,3.713Z" transform="translate(117.13 53.613)" fill="#fff"/>
        <path id="Path_20985" data-name="Path 20985" d="M287.053,108.336l-22.28-2.063-32.595,73.854,21.454,3.713Z" transform="translate(117.13 53.613)" fill="none" stroke="#1a2e35" stroke-linecap="round" stroke-linejoin="round" stroke-width="1"/>
        <path id="Path_20986" data-name="Path 20986" d="M272.1,114.633s-32.587,65.926-33,66.957-9.7,3.715-11.759,4.127-8.87,1.444-8.87,1.444l11.551-7.84,8.252-21.248-10.109-5.157s18.567-27.851,22.694-37.34,5.776-11.965,9.9-12.171,15.886.618,15.886.618Z" transform="translate(110.213 52.149)" fill="#0731ff"/>
        <path id="Path_20987" data-name="Path 20987" d="M258.3,121.487l.412,4.745s-21.66,38.784-21.868,39.609,1.65,6.6,1.65,6.6l7.634-5.57,14.44-39.816,3.921-2.269.044-7.37Z" transform="translate(119.476 59.235)" fill="#d9dfe2"/>
      </g>
    </g>
    <g id="Group_30726" data-name="Group 30726" transform="translate(374.422 104.28)">
      <g id="Group_30725" data-name="Group 30725" clip-path="url(#clip-path-6)">
        <rect id="Rectangle_50708" data-name="Rectangle 50708" width="46.628" height="72.543" transform="translate(-0.281 0)" fill="url(#radial-gradient)"/>
      </g>
    </g>
    <g id="Group_30728" data-name="Group 30728">
      <g id="Group_30727" data-name="Group 30727" clip-path="url(#clip-path)">
        <path id="Path_20989" data-name="Path 20989" d="M278.158,66.3s-15.316-4.085-22.123,1.872S266.925,83.654,272.712,84.5s12.934-.34,11.232,1.192-5.446,3.915-3.573,5.446a13.852,13.852,0,0,0,3.913,2.212s-8,17.529-9.359,19.572-3.915,1.872-5.446,1.362-8.849-5.106-11.232-5.956-6.806-3.4-7.828-.682-3.573,14.3.17,16.849,21.953-3.915,24.677-5.786,3.573-5.276,4.085-5.956,7.828-12.764,8.509-13.616,3.743-1.7,3.743-1.7,6.126-12.253,6.638-17.017-15.487-14.3-20.082-14.126" transform="translate(125.423 32.756)" fill="#020f2b"/>
        <path id="Path_20990" data-name="Path 20990" d="M252.756,95.813s4.425,2.723,7.318,2.723" transform="translate(127.511 48.336)" fill="none" stroke="#fff" stroke-linecap="round" stroke-linejoin="round" stroke-width="1"/>
      </g>
    </g>
    <g id="Group_30730" data-name="Group 30730" transform="translate(392.804 130.339)">
      <g id="Group_30729" data-name="Group 30729" clip-path="url(#clip-path-8)">
        <rect id="Rectangle_50710" data-name="Rectangle 50710" width="3.059" height="3.724" transform="translate(-0.171 0)" fill="url(#radial-gradient-2)"/>
      </g>
    </g>
    <g id="Group_30732" data-name="Group 30732">
      <g id="Group_30731" data-name="Group 30731" clip-path="url(#clip-path)">
        <path id="Path_20992" data-name="Path 20992" d="M215.048,227.191l-1.444,8.664-3.095.826s-2.887,3.507-3.507,4.331a79.11,79.11,0,0,1-10.315,7.426c-2.063,1.032-7.22,1.444-7.014,2.889s11.141,2.683,18.155,2.889,10.933-2.063,10.933-2.063l.62,1.443,7.22-.618s-.414-6.808-.206-9.7a39.762,39.762,0,0,0-.414-7.014l-.412-5.982Z" transform="translate(95.684 114.614)" fill="#1a2e35"/>
        <path id="Path_20993" data-name="Path 20993" d="M215.048,227.191l-1.444,8.664-3.095.826s-2.887,3.507-3.507,4.331a79.11,79.11,0,0,1-10.315,7.426c-2.063,1.032-7.22,1.444-7.014,2.889s11.141,2.683,18.155,2.889,10.933-2.063,10.933-2.063l.62,1.443,7.22-.618s-.414-6.808-.206-9.7a39.762,39.762,0,0,0-.414-7.014l-.412-5.982Z" transform="translate(95.684 114.614)" fill="none" stroke="#1a2e35" stroke-linecap="round" stroke-linejoin="round" stroke-width="1"/>
        <path id="Path_20994" data-name="Path 20994" d="M267.481,159.887s-58.588,7.22-59.826,8.664-.206,44.148-.206,44.148l-6.808,49.98,21.042,6.394s6.6-42.141,8.87-53.486a246.306,246.306,0,0,0,3.3-25.581s32.389,7.426,43.529,1.237,8.87-13.822,8.87-13.822" transform="translate(101.22 80.66)" fill="#d9dfe2"/>
        <path id="Path_20995" data-name="Path 20995" d="M282.522,105.039s-23.312,42.909-28.263,53.844-11.551,26.2-11.551,27.849-4.333,43.941-2.889,44.766,23.106-6.188,33.213-10.109,10.522-6.808,11.347-9.077.618-31.564.618-31.564,21.043-59.826,20.837-62.507-23.312-13.2-23.312-13.2" transform="translate(120.836 52.99)" fill="#0731ff"/>
        <path id="Path_20996" data-name="Path 20996" d="M248.907,123.55l9.534-6.132.369,14.384" transform="translate(125.569 59.235)" fill="none" stroke="#d9dfe2" stroke-linecap="round" stroke-linejoin="round" stroke-width="1"/>
        <line id="Line_160" data-name="Line 160" y1="0.502" x2="3.18" transform="translate(394.814 246.736)" fill="none" stroke="#1a2e35" stroke-linecap="round" stroke-linejoin="round" stroke-width="1"/>
        <path id="Path_20997" data-name="Path 20997" d="M271.394,161.533l-22.486,2.683v4.744l16.051-2.534" transform="translate(125.57 81.49)" fill="none" stroke="#1a2e35" stroke-linecap="round" stroke-linejoin="round" stroke-width="1"/>
      </g>
    </g>
    <g id="Group_30734" data-name="Group 30734" transform="translate(365.607 157.139)">
      <g id="Group_30733" data-name="Group 30733" clip-path="url(#clip-path-10)">
        <rect id="Rectangle_50712" data-name="Rectangle 50712" width="11.551" height="8.112" transform="translate(0 0)" fill="url(#radial-gradient-3)"/>
      </g>
    </g>
    <g id="Group_30736" data-name="Group 30736" transform="translate(358.592 164.372)">
      <g id="Group_30735" data-name="Group 30735" clip-path="url(#clip-path-11)">
        <rect id="Rectangle_50713" data-name="Rectangle 50713" width="15.678" height="20.475" transform="translate(0 0)" fill="url(#radial-gradient-4)"/>
      </g>
    </g>
    <g id="Group_30738" data-name="Group 30738" transform="translate(356.322 179.483)">
      <g id="Group_30737" data-name="Group 30737" clip-path="url(#clip-path-12)">
        <rect id="Rectangle_50714" data-name="Rectangle 50714" width="10.522" height="9.49" transform="translate(0 0)" fill="url(#radial-gradient-5)"/>
      </g>
    </g>
    <g id="Group_30740" data-name="Group 30740">
      <g id="Group_30739" data-name="Group 30739" clip-path="url(#clip-path)">
        <path id="Path_21001" data-name="Path 21001" d="M244.312,121.219l9.7,7.22L235.441,156.7a12.26,12.26,0,0,1-6.6-.412c-3.507-1.238-6.808-8.252-6.808-9.078s22.28-25.993,22.28-25.993" transform="translate(112.011 61.153)" fill="#0731ff"/>
      </g>
    </g>
    <g id="Group_30742" data-name="Group 30742" transform="translate(330.123 196.591)">
      <g id="Group_30741" data-name="Group 30741" clip-path="url(#clip-path-14)">
        <rect id="Rectangle_50716" data-name="Rectangle 50716" width="18.774" height="24.977" transform="translate(0 0)" fill="url(#radial-gradient-6)"/>
      </g>
    </g>
    <g id="Group_30747" data-name="Group 30747">
      <g id="Group_30746" data-name="Group 30746" clip-path="url(#clip-path)">
        <path id="Path_21003" data-name="Path 21003" d="M294.825,114.807l-18.677,38.734-45.59,2.475a6.43,6.43,0,0,0-4.745,4.745,20.658,20.658,0,0,0-.62,5.777s30.326,3.713,39.816,4.331,21.042,1.857,22.486.412,18.567-36.926,18.567-36.926" transform="translate(113.594 57.918)" fill="#0731ff"/>
        <rect id="Rectangle_50717" data-name="Rectangle 50717" width="4.768" height="45.927" transform="translate(130.744 286.642)" fill="#d9dfe2"/>
        <rect id="Rectangle_50718" data-name="Rectangle 50718" width="8.466" height="45.928" transform="translate(98.045 243.634) rotate(-6.664)" fill="#d9dfe2"/>
        <path id="Path_21004" data-name="Path 21004" d="M112.8,224.893v-7.741H100.7v7.813l-48.4,19.426v9.167h3.3V246.59l51.327-11.679,49.967,11.679v6.967H160.1v-9.167Z" transform="translate(26.381 109.549)" fill="#d9dfe2"/>
        <rect id="Rectangle_50719" data-name="Rectangle 50719" width="23.836" height="14.666" transform="translate(121.21 286.642)" fill="#d9dfe2"/>
        <path id="Path_21005" data-name="Path 21005" d="M55.737,243.315a5.133,5.133,0,1,0-5.133,5.133,5.133,5.133,0,0,0,5.133-5.133" transform="translate(22.939 120.159)" fill="#1a2e35"/>
        <circle id="Ellipse_3577" data-name="Ellipse 3577" cx="5.133" cy="5.133" r="5.133" transform="translate(68.409 358.341)" fill="none" stroke="#d9dfe2" stroke-linecap="round" stroke-linejoin="round" stroke-width="1"/>
        <path id="Path_21006" data-name="Path 21006" d="M51.82,242.332a2.2,2.2,0,1,0-2.2,2.2,2.2,2.2,0,0,0,2.2-2.2" transform="translate(23.922 121.142)" fill="#fff"/>
        <path id="Path_21007" data-name="Path 21007" d="M51.82,242.332a2.2,2.2,0,1,0-2.2,2.2A2.2,2.2,0,0,0,51.82,242.332Z" transform="translate(23.922 121.142)" fill="none" stroke="#1a2e35" stroke-linecap="round" stroke-linejoin="round" stroke-width="1"/>
        <path id="Path_21008" data-name="Path 21008" d="M134.462,243.315a5.133,5.133,0,1,0-5.133,5.133,5.133,5.133,0,0,0,5.133-5.133" transform="translate(62.654 120.159)" fill="#1a2e35"/>
        <circle id="Ellipse_3578" data-name="Ellipse 3578" cx="5.133" cy="5.133" r="5.133" transform="translate(186.85 358.341)" fill="none" stroke="#d9dfe2" stroke-linecap="round" stroke-linejoin="round" stroke-width="1"/>
        <path id="Path_21009" data-name="Path 21009" d="M130.546,242.332a2.2,2.2,0,1,0-2.2,2.2,2.2,2.2,0,0,0,2.2-2.2" transform="translate(63.638 121.142)" fill="#fff"/>
        <path id="Path_21010" data-name="Path 21010" d="M130.546,242.332a2.2,2.2,0,1,0-2.2,2.2A2.2,2.2,0,0,0,130.546,242.332Z" transform="translate(63.638 121.142)" fill="none" stroke="#1a2e35" stroke-linecap="round" stroke-linejoin="round" stroke-width="1"/>
        <path id="Path_21011" data-name="Path 21011" d="M91.98,250.748H87.946l-2.018-27.5H94Z" transform="translate(43.349 112.624)" fill="#d9dfe2"/>
        <rect id="Rectangle_50720" data-name="Rectangle 50720" width="4.034" height="11.368" transform="translate(131.113 357.504)" fill="#d9dfe2"/>
        <path id="Path_21012" data-name="Path 21012" d="M75.882,208.145h0A17.993,17.993,0,0,1,56.249,191.96l-5.63-58.5a17.992,17.992,0,0,1,35.819-3.447l5.63,58.5a17.992,17.992,0,0,1-16.185,19.634" transform="translate(25.494 57.382)" fill="#d9dfe2"/>
        <g id="Group_30745" data-name="Group 30745" transform="translate(80.295 170.717)" opacity="0.6">
          <g id="Group_30744" data-name="Group 30744">
            <g id="Group_30743" data-name="Group 30743" clip-path="url(#clip-path-16)">
              <path id="Path_21013" data-name="Path 21013" d="M78.717,207.872h0a17.991,17.991,0,0,1-19.634-16.184l-5.63-58.5a17.99,17.99,0,0,1,16.185-19.631h0a17.991,17.991,0,0,1,19.632,16.184l5.63,58.5a17.991,17.991,0,0,1-16.185,19.632" transform="translate(-53.371 -113.471)" fill="#0731ff"/>
            </g>
          </g>
        </g>
        <path id="Path_21014" data-name="Path 21014" d="M154.667,200.461l-86.83,2.206a3.546,3.546,0,0,1-3.657-3.432L63.756,185.8a3.548,3.548,0,0,1,3.433-3.657l86.83-2.206a3.546,3.546,0,0,1,3.657,3.433L158.1,196.8a3.547,3.547,0,0,1-3.433,3.657" transform="translate(32.163 90.774)" fill="#d9dfe2"/>
        <path id="Path_21015" data-name="Path 21015" d="M113.821,200.962l-43.182,1.363a6.38,6.38,0,0,1-6.578-6.176l-.245-7.769a6.381,6.381,0,0,1,6.176-6.579l43.18-1.363a6.381,6.381,0,0,1,6.579,6.176l.245,7.769a6.381,6.381,0,0,1-6.176,6.579" transform="translate(32.192 91.026)" fill="#d9dfe2"/>
      </g>
    </g>
    <g id="Group_30749" data-name="Group 30749" transform="translate(180.885 263.882)">
      <g id="Group_30748" data-name="Group 30748" clip-path="url(#clip-path-17)">
        <rect id="Rectangle_50723" data-name="Rectangle 50723" width="40.111" height="105.502" transform="translate(0)" fill="url(#radial-gradient-7)"/>
      </g>
    </g>
    <g id="Group_30751" data-name="Group 30751">
      <g id="Group_30750" data-name="Group 30750" clip-path="url(#clip-path)">
        <path id="Path_21017" data-name="Path 21017" d="M134.344,238.551c-1.571-1.222-3.044-2.532-4.3-3.721-.468,1.195-.9,2.248-1.142,2.979-.742,2.225-.011,4.193,2.215,4.935a52.926,52.926,0,0,1,9.507,4.152c2.225,1.483,3.036,2.427,6.993,3.168s7.995.852,8.242-.138-6.183-7.419-6.183-7.419l-3.214,1.483s-7.667-1.978-12.119-5.44" transform="translate(64.889 118.468)" fill="#1a2e35"/>
        <path id="Path_21018" data-name="Path 21018" d="M134.344,238.551c-1.571-1.222-3.044-2.532-4.3-3.721-.468,1.195-.9,2.248-1.142,2.979-.742,2.225-.011,4.193,2.215,4.935a52.926,52.926,0,0,1,9.507,4.152c2.225,1.483,3.036,2.427,6.993,3.168s7.995.852,8.242-.138-6.183-7.419-6.183-7.419l-3.214,1.483S138.8,242.012,134.344,238.551Z" transform="translate(64.889 118.468)" fill="none" stroke="#1a2e35" stroke-linecap="round" stroke-linejoin="round" stroke-width="1"/>
      </g>
    </g>
    <g id="Group_30753" data-name="Group 30753" transform="translate(101.679 230.357)">
      <g id="Group_30752" data-name="Group 30752" clip-path="url(#clip-path-19)">
        <rect id="Rectangle_50725" data-name="Rectangle 50725" width="105.645" height="132.124" transform="translate(-0.853)" fill="url(#radial-gradient-8)"/>
      </g>
    </g>
    <g id="Group_30755" data-name="Group 30755">
      <g id="Group_30754" data-name="Group 30754" clip-path="url(#clip-path)">
        <path id="Path_21020" data-name="Path 21020" d="M126.879,162.112l-2.2-7.783-20.867-1.216-34.848,4.053s-2.275,8.721-1.013,14.181c2.01,8.693,9.522,18.234,23.906,21.273s50.537,2.054,50.537,2.054,3.432-17.135,10.131-23.823c-8.09-2.678-25.648-8.74-25.648-8.74" transform="translate(34.089 77.243)" fill="#1a2e35"/>
        <path id="Path_21021" data-name="Path 21021" d="M126.879,162.112l-2.2-7.783-20.867-1.216-34.848,4.053s-2.275,8.721-1.013,14.181c2.01,8.693,9.522,18.234,23.906,21.273s50.537,2.054,50.537,2.054,3.432-17.135,10.131-23.823C144.438,168.174,126.879,162.112,126.879,162.112Z" transform="translate(34.089 77.243)" fill="none" stroke="#1a2e35" stroke-linecap="round" stroke-linejoin="round" stroke-width="1"/>
        <path id="Path_21022" data-name="Path 21022" d="M101.44,234.86c-1.443-3.317-1.345-10.023-1.167-13.611-3.054,1.515-5.923,2.977-5.722,3.886.406,1.823,1.823,13.169,4.862,17.83a19.1,19.1,0,0,0,10.131,7.294c2.025.608,2.431.608,2.431-1.419s-1.414-4.853-1.419-6.677a48.214,48.214,0,0,1-6.281-1.225s-.809-1.419-2.836-6.078" transform="translate(47.694 111.616)" fill="#1a2e35"/>
        <path id="Path_21023" data-name="Path 21023" d="M101.44,234.86c-1.443-3.317-1.345-10.023-1.167-13.611-3.054,1.515-5.923,2.977-5.722,3.886.406,1.823,1.823,13.169,4.862,17.83a19.1,19.1,0,0,0,10.131,7.294c2.025.608,2.431.608,2.431-1.419s-1.414-4.853-1.419-6.677a48.214,48.214,0,0,1-6.281-1.225S103.467,239.519,101.44,234.86Z" transform="translate(47.694 111.616)" fill="none" stroke="#1a2e35" stroke-linecap="round" stroke-linejoin="round" stroke-width="1"/>
        <path id="Path_21024" data-name="Path 21024" d="M99.288,102.48l-6.281,2.634s5.066,47.408,4.862,54.094-.608,20.058-.608,20.058,8.712,2.634,14.587.608l-.4-22.894s4.255-21.881,2.634-28.972-6.686-19.653-6.686-19.653-2.431-5.672-8.1-5.875" transform="translate(46.92 51.699)" fill="#fff"/>
        <path id="Path_21025" data-name="Path 21025" d="M99.288,102.48l-6.281,2.634s5.066,47.408,4.862,54.094-.608,20.058-.608,20.058,8.712,2.634,14.587.608l-.4-22.894s4.255-21.881,2.634-28.972-6.686-19.653-6.686-19.653S104.962,102.683,99.288,102.48Z" transform="translate(46.92 51.699)" fill="none" stroke="#1a2e35" stroke-linecap="round" stroke-linejoin="round" stroke-width="1"/>
        <path id="Path_21026" data-name="Path 21026" d="M108.335,101.986s-20.366,4.456-22.116,5.729-2.546,5.409-2.069,7,5.091,35.956,5.091,35.956L65.853,184.882s7.637,6.364,14.8,7.637,22.435-.636,27.845-2.863l5.409-2.228s2.547-41.527-.158-57.914-5.41-27.528-5.41-27.528" transform="translate(33.222 51.45)" fill="#0731ff"/>
      </g>
    </g>
    <g id="Group_30757" data-name="Group 30757" transform="translate(204.086 191.451)">
      <g id="Group_30756" data-name="Group 30756" clip-path="url(#clip-path-21)">
        <rect id="Rectangle_50727" data-name="Rectangle 50727" width="27.526" height="22.752" transform="translate(0 -1.101)" fill="url(#radial-gradient-9)"/>
      </g>
    </g>
    <g id="Group_30759" data-name="Group 30759">
      <g id="Group_30758" data-name="Group 30758" clip-path="url(#clip-path)">
        <path id="Path_21028" data-name="Path 21028" d="M101.175,104.525s5.091,22.116,4.932,30.389-2.7,12.41-2.227,15.275,1.59,36.278,1.59,36.278l4.456.158s-1.115-12.728-.955-15.116,1.75-11.932,1.75-11.932,7.956,15.752,9.071,16.546,38.026-14.956,38.026-14.956l-2.705-9.069-28.161,5.728s-5.57-18.455-6.365-22.433-1.432-17.98-3.659-21.479-15.752-9.388-15.752-9.388" transform="translate(51.041 52.731)" fill="#0731ff"/>
      </g>
    </g>
    <g id="Group_30761" data-name="Group 30761" transform="translate(178.946 187.251)">
      <g id="Group_30760" data-name="Group 30760" clip-path="url(#clip-path-23)">
        <rect id="Rectangle_50729" data-name="Rectangle 50729" width="29.595" height="19.647" transform="translate(0)" fill="url(#radial-gradient-10)"/>
      </g>
    </g>
    <g id="Group_30763" data-name="Group 30763">
      <g id="Group_30762" data-name="Group 30762" clip-path="url(#clip-path)">
        <path id="Path_21030" data-name="Path 21030" d="M85.427,104.948s-9.388,3.182-10.819,5.57,3.659,21.956,7.477,32.775,14,28.958,15.275,29.595,34.526-11.138,42.163-13.524,8.911-3.66,8.911-3.66l-3.341-8.592-38.187,6.842L95.132,117.2" transform="translate(37.514 52.944)" fill="#0731ff"/>
        <path id="Path_21031" data-name="Path 21031" d="M114.878,72.943s3.719,2.544,1.834,5.21-5.87,2.887-5.87,2.887l-3.474-5.469s4.149-4.9,7.51-2.628" transform="translate(54.165 36.495)" fill="#1a2e35"/>
        <path id="Path_21032" data-name="Path 21032" d="M114.878,72.943s3.719,2.544,1.834,5.21-5.87,2.887-5.87,2.887l-3.474-5.469S111.517,70.671,114.878,72.943Z" transform="translate(54.165 36.495)" fill="none" stroke="#1a2e35" stroke-linecap="round" stroke-linejoin="round" stroke-width="1"/>
      </g>
    </g>
    <g id="Group_30765" data-name="Group 30765" transform="translate(133.042 111.935)">
      <g id="Group_30764" data-name="Group 30764" clip-path="url(#clip-path-25)">
        <rect id="Rectangle_50731" data-name="Rectangle 50731" width="43.61" height="53.278" transform="translate(-3.157 0)" fill="url(#radial-gradient-11)"/>
      </g>
    </g>
    <g id="Group_30767" data-name="Group 30767">
      <g id="Group_30766" data-name="Group 30766" clip-path="url(#clip-path)">
        <path id="Path_21034" data-name="Path 21034" d="M109.887,88.265c-.021,1.142-.466,2.06-.993,2.051s-.937-.945-.916-2.085.466-2.06.993-2.052.937.946.916,2.087" transform="translate(54.473 43.475)" fill="#1a2e35"/>
        <path id="Path_21035" data-name="Path 21035" d="M107.137,84.91a4.245,4.245,0,0,1,6,.466" transform="translate(54.049 42.299)" fill="none" stroke="#1a2e35" stroke-linecap="round" stroke-linejoin="round" stroke-width="1"/>
        <path id="Path_21036" data-name="Path 21036" d="M125.892,79.418s-1.125,3.525-6.6,8.124-10.378,7.515-10.363,8.8.815,2.458-.266,2.765a4.6,4.6,0,0,1-2.63-.444s-2.66,7.587-3.056,12.94a26.8,26.8,0,0,0,1.574,10.384s-11.8.642-18.6-4.533-8.726-11.016-7.972-16.1,2.907-21.109,13.4-28.961,25.475-7.483,30.562-4.321,8.785,5.547,7.846,8.084a5.951,5.951,0,0,1-3.892,3.26" transform="translate(39.26 33.279)" fill="#020f2b"/>
        <path id="Path_21037" data-name="Path 21037" d="M110.5,195.939a2.1,2.1,0,0,1-.9-.2,2.8,2.8,0,0,1-1.268-3.474c3.778-10.315,8.117-28.727,3.674-34.219-1.038-.809-7.282-2.522-40.937.975-1.148.119-1.993.206-2.451.245-2.352.2-4.358,3.6-4.876,4.772a2.228,2.228,0,0,1-3.147,1.19,2.835,2.835,0,0,1-1.049-3.569c.326-.737,3.337-7.228,8.712-7.7.444-.038,1.265-.123,2.383-.239,35.859-3.728,42.735-1.854,44.823.728,7.9,9.769-1.681,36.8-2.8,39.851a2.36,2.36,0,0,1-2.166,1.64" transform="translate(29.916 76.491)" fill="#d9dfe2"/>
        <path id="Path_21038" data-name="Path 21038" d="M214.295,128.839H159.339L146.624,171.9H201.58Z" transform="translate(73.97 64.997)" fill="#d9dfe2"/>
        <path id="Path_21039" data-name="Path 21039" d="M120.14,155.894l-.7,2.359h95.851l.7-2.359Z" transform="translate(60.257 78.646)" fill="#d9d9d9"/>
        <path id="Path_21040" data-name="Path 21040" d="M120.14,155.894l-.7,2.359h95.851l.7-2.359Z" transform="translate(60.257 78.646)" fill="none" stroke="#1a2e35" stroke-linecap="round" stroke-linejoin="round" stroke-width="1"/>
        <path id="Path_21041" data-name="Path 21041" d="M147.387,155.894l-.7,2.359h54.858l.7-2.359Z" transform="translate(74.003 78.646)" fill="#1a2e35"/>
        <path id="Path_21042" data-name="Path 21042" d="M147.387,155.894l-.7,2.359h54.858l.7-2.359Z" transform="translate(74.003 78.646)" fill="none" stroke="#1a2e35" stroke-linecap="round" stroke-linejoin="round" stroke-width="1"/>
        <rect id="Rectangle_50732" data-name="Rectangle 50732" width="9.296" height="124.342" transform="translate(265.463 243.361)" fill="#d9dfe2"/>
        <rect id="Rectangle_50733" data-name="Rectangle 50733" width="9.296" height="20.536" transform="translate(265.463 243.361)" fill="#1a2e35"/>
        <rect id="Rectangle_50734" data-name="Rectangle 50734" width="9.296" height="20.536" transform="translate(265.463 243.361)" fill="none" stroke="#1a2e35" stroke-linecap="round" stroke-linejoin="round" stroke-width="1"/>
        <rect id="Rectangle_50735" data-name="Rectangle 50735" width="236.086" height="6.907" transform="translate(151.647 236.923)" fill="#fff"/>
        <rect id="Rectangle_50736" data-name="Rectangle 50736" width="236.086" height="6.907" transform="translate(151.647 236.923)" fill="none" stroke="#1a2e35" stroke-linecap="round" stroke-linejoin="round" stroke-width="1"/>
        <path id="Path_21043" data-name="Path 21043" d="M244.612,247.394H146.727a72.62,72.62,0,0,1,30.908-6.907H213.7A72.619,72.619,0,0,1,244.612,247.394Z" transform="translate(74.021 121.322)" fill="#d9dfe2"/>
      </g>
    </g>
  </g>
</svg>
