<svg xmlns="http://www.w3.org/2000/svg" width="28" height="28" viewBox="0 0 28 28">
  <g id="Group_30780" data-name="Group 30780" transform="translate(-1572 -7579)">
    <g id="Rectangle_16207" data-name="Rectangle 16207" transform="translate(1572 7579)" stroke="#707070" stroke-width="1" opacity="0">
      <rect width="28" height="28" stroke="none"/>
      <rect x="0.5" y="0.5" width="27" height="27" fill="none"/>
    </g>
    <path id="Path_21044" data-name="Path 21044" d="M376.333,5.074H363.349a2.246,2.246,0,0,0-2.238,2.238V20.3a2.246,2.246,0,0,0,2.238,2.238h12.984a2.246,2.246,0,0,0,2.238-2.238V7.312a2.246,2.246,0,0,0-2.238-2.238m-9.221,8.432V18.9h-2.364v-6.8h2.364Zm-1.187-2.426a1.191,1.191,0,1,1,1.192-1.191,1.192,1.192,0,0,1-1.192,1.191m9.008,4.106V18.9H372.9v-3.3c0-.791-.086-1.809-1.17-1.809-1.1,0-1.267.862-1.267,1.752V18.9H368.5v-6.8h1.892V13h.02a2.185,2.185,0,0,1,2-.91,2.136,2.136,0,0,1,2.485,2.1,7.865,7.865,0,0,1,.053.99Z" transform="translate(1216.159 7579.196)" fill-rule="evenodd"/>
  </g>
</svg>
