<svg id="Group_30710" data-name="Group 30710" xmlns="http://www.w3.org/2000/svg" xmlns:xlink="http://www.w3.org/1999/xlink" width="431.916" height="340.451" viewBox="0 0 431.916 340.451">
  <defs>
    <clipPath id="clip-path">
      <rect id="Rectangle_50686" data-name="Rectangle 50686" width="431.916" height="340.451" fill="none"/>
    </clipPath>
    <clipPath id="clip-path-3">
      <rect id="Rectangle_50635" data-name="Rectangle 50635" width="97.554" height="91.054" transform="translate(90.487 19.344)" fill="none"/>
    </clipPath>
    <clipPath id="clip-path-4">
      <rect id="Rectangle_50637" data-name="Rectangle 50637" width="97.554" height="9.63" transform="translate(90.487 19.344)" fill="none"/>
    </clipPath>
    <clipPath id="clip-path-5">
      <path id="Path_20866" data-name="Path 20866" d="M254.1,99.087,239.6,107.2V113.2a12.742,12.742,0,0,0-4.01.191l.016.08s-2.141,12.654,10.64,12.654c12.176,0,13.725-11.839,13.837-12.973a26.367,26.367,0,0,0-5.449-.08V99.087Z" fill="none"/>
    </clipPath>
    <radialGradient id="radial-gradient" cx="0.538" cy="0.5" r="0.478" gradientTransform="matrix(1.016, 0, 0, -1, 0.137, 17.856)" gradientUnits="objectBoundingBox">
      <stop offset="0" stop-color="#ffc8af"/>
      <stop offset="1" stop-color="#ffbb9c"/>
    </radialGradient>
    <clipPath id="clip-path-6">
      <path id="Path_20867" data-name="Path 20867" d="M222.711,81.19c-1.581,8.368-.061,24.736,7.841,30.387,2.05,1.465,12.794.192,14.54-1.335q3.863-3.382,7.735-6.749a10.231,10.231,0,0,0,1.59-1.606A9.346,9.346,0,0,0,255.7,99c1.782-5.923,3.1-12.426,1.7-18.571a16.584,16.584,0,0,0-4.36-8.086,17.638,17.638,0,0,0-12.681-5.263c-8.059,0-15.964,5.231-17.643,14.111" fill="none"/>
    </clipPath>
    <radialGradient id="radial-gradient-2" cx="0.511" cy="0.486" r="0.385" gradientTransform="matrix(1.137, 0, 0, -1, 0.639, 10.474)" xlink:href="#radial-gradient"/>
    <clipPath id="clip-path-8">
      <rect id="Rectangle_50669" data-name="Rectangle 50669" width="70.081" height="70.014" transform="translate(225.769 164.626)" fill="none"/>
    </clipPath>
    <clipPath id="clip-path-9">
      <path id="Path_20879" data-name="Path 20879" d="M211.639,305.769l4.233,9.649,12.926-5.671-4.218-9.619Z" fill="none"/>
    </clipPath>
    <radialGradient id="radial-gradient-3" cx="0.5" r="0.531" gradientTransform="matrix(0.891, 0, 0, -1, -1.343, 5.274)" xlink:href="#radial-gradient"/>
    <clipPath id="clip-path-11">
      <path id="Path_20881" data-name="Path 20881" d="M162.205,317.053h14.108L175.3,302.6l-14.108-.031Z" fill="none"/>
    </clipPath>
    <radialGradient id="radial-gradient-4" cx="0.5" r="0.511" gradientTransform="matrix(0.958, 0, 0, -1, -0.449, 5.231)" xlink:href="#radial-gradient"/>
    <clipPath id="clip-path-13">
      <rect id="Rectangle_50674" data-name="Rectangle 50674" width="53.95" height="46.145" transform="translate(220.735 139.43)" fill="none"/>
    </clipPath>
    <clipPath id="clip-path-14">
      <path id="Path_20887" data-name="Path 20887" d="M175.945,180.971h25.563l.208-7-6.726.671s-2.668-3.659-9.586-3.659-9.459,9.986-9.459,9.986" fill="none"/>
    </clipPath>
    <radialGradient id="radial-gradient-5" cx="1.142" cy="1.383" r="1.533" gradientTransform="matrix(0, 1, 1.938, 0, -25.805, 19.626)" xlink:href="#radial-gradient"/>
    <clipPath id="clip-path-16">
      <path id="Path_20891" data-name="Path 20891" d="M237.937,167.39c-2.925.767-9.986,2.093-17.112,3.339-.942.176-1.886.336-2.828.511-8.484,1.471-16.281,2.733-16.281,2.733l-.016.415v.271l-.192,6.312v1.6a176.929,176.929,0,0,1,19.221.316c15,1.07,34.351,1.709,40.758-1.31,3-1.422,5.4-6.087,7.285-11.839l-.1.048-25.036-8.868c-1.822,3.4-3.771,5.96-5.7,6.471" fill="none"/>
    </clipPath>
    <radialGradient id="radial-gradient-6" cx="0.454" cy="0.196" r="0.591" gradientTransform="matrix(0, 1, 2.061, 0, -12.364, 9.297)" xlink:href="#radial-gradient"/>
    <clipPath id="clip-path-18">
      <rect id="Rectangle_50679" data-name="Rectangle 50679" width="9.997" height="25.178" transform="translate(243.382 134.411)" fill="none"/>
    </clipPath>
  </defs>
  <g id="Group_30709" data-name="Group 30709" clip-path="url(#clip-path)">
    <g id="Group_30677" data-name="Group 30677">
      <g id="Group_30676" data-name="Group 30676" clip-path="url(#clip-path)">
        <g id="Group_30672" data-name="Group 30672" opacity="0.8">
          <g id="Group_30671" data-name="Group 30671">
            <g id="Group_30670" data-name="Group 30670" clip-path="url(#clip-path-3)">
              <rect id="Rectangle_50634" data-name="Rectangle 50634" width="97.554" height="91.054" transform="translate(90.487 19.344)" fill="#0731ff"/>
            </g>
          </g>
        </g>
        <g id="Group_30675" data-name="Group 30675" style="mix-blend-mode: screen;isolation: isolate">
          <g id="Group_30674" data-name="Group 30674">
            <g id="Group_30673" data-name="Group 30673" clip-path="url(#clip-path-4)">
              <rect id="Rectangle_50636" data-name="Rectangle 50636" width="97.554" height="9.63" transform="translate(90.487 19.344)" fill="#1d262d"/>
            </g>
          </g>
        </g>
        <path id="Path_20856" data-name="Path 20856" d="M166.954,24.268a1.765,1.765,0,1,1-1.765-1.765,1.765,1.765,0,0,1,1.765,1.765" fill="#606bf1"/>
        <path id="Path_20857" data-name="Path 20857" d="M174.325,24.268A1.765,1.765,0,1,1,172.56,22.5a1.765,1.765,0,0,1,1.765,1.765" fill="#fbd15b"/>
        <path id="Path_20858" data-name="Path 20858" d="M181.169,24.454a1.765,1.765,0,1,1-1.765-1.765,1.765,1.765,0,0,1,1.765,1.765" fill="#ff8578"/>
        <rect id="Rectangle_50638" data-name="Rectangle 50638" width="13.817" height="1.161" transform="translate(107.833 37.926)" fill="#ff8578"/>
        <rect id="Rectangle_50639" data-name="Rectangle 50639" width="13.817" height="1.161" transform="translate(124.05 37.926)" fill="#fbd15b"/>
        <rect id="Rectangle_50640" data-name="Rectangle 50640" width="21.426" height="1.161" transform="translate(112.107 44.182)" fill="#606bf1"/>
        <rect id="Rectangle_50641" data-name="Rectangle 50641" width="10.891" height="1.161" transform="translate(137.076 44.182)" fill="#ff8578"/>
        <rect id="Rectangle_50642" data-name="Rectangle 50642" width="9.41" height="1.161" transform="translate(119.54 50.437)" fill="#fbd15b"/>
        <rect id="Rectangle_50643" data-name="Rectangle 50643" width="31.217" height="1.161" transform="translate(134.389 50.437)" fill="#fbd15b"/>
        <rect id="Rectangle_50644" data-name="Rectangle 50644" width="35.677" height="1.161" transform="translate(126.848 56.693)" fill="#606bf1"/>
        <rect id="Rectangle_50645" data-name="Rectangle 50645" width="10.98" height="1.161" transform="translate(117.928 62.949)" fill="#ff8578"/>
        <rect id="Rectangle_50646" data-name="Rectangle 50646" width="10.98" height="1.161" transform="translate(133.606 62.949)" fill="#606bf1"/>
        <rect id="Rectangle_50647" data-name="Rectangle 50647" width="15.973" height="1.161" transform="translate(107.834 95.404)" fill="#ff8578"/>
        <rect id="Rectangle_50648" data-name="Rectangle 50648" width="15.974" height="1.161" transform="translate(129.4 95.404)" fill="#fbd15b"/>
        <rect id="Rectangle_50649" data-name="Rectangle 50649" width="15.973" height="1.161" transform="translate(150.388 95.404)" fill="#ff8578"/>
        <rect id="Rectangle_50650" data-name="Rectangle 50650" width="31.217" height="1.161" transform="translate(112.107 89.148)" fill="#606bf1"/>
        <rect id="Rectangle_50651" data-name="Rectangle 50651" width="31.217" height="1.161" transform="translate(148.192 89.148)" fill="#ff8578"/>
        <rect id="Rectangle_50652" data-name="Rectangle 50652" width="30.978" height="1.161" transform="translate(119.54 82.893)" fill="#ff8578"/>
        <rect id="Rectangle_50653" data-name="Rectangle 50653" width="8.622" height="1.161" transform="translate(153.219 82.893)" fill="#fbd15b"/>
        <rect id="Rectangle_50654" data-name="Rectangle 50654" width="11.662" height="1.161" transform="translate(117.516 76.637)" fill="#fbd15b"/>
        <rect id="Rectangle_50655" data-name="Rectangle 50655" width="11.662" height="1.161" transform="translate(135.371 76.637)" fill="#606bf1"/>
        <rect id="Rectangle_50656" data-name="Rectangle 50656" width="11.662" height="1.161" transform="translate(154.534 76.637)" fill="#ff8578"/>
        <rect id="Rectangle_50657" data-name="Rectangle 50657" width="16.352" height="1.161" transform="translate(131.035 70.381)" fill="#fbd15b"/>
        <rect id="Rectangle_50658" data-name="Rectangle 50658" width="16.352" height="1.161" transform="translate(108.513 70.381)" fill="#606bf1"/>
        <rect id="Rectangle_50659" data-name="Rectangle 50659" width="1.486" height="1.487" transform="translate(98.791 36.81)" fill="#f9fbfc"/>
        <path id="Path_20859" data-name="Path 20859" d="M100.277,91.352H98.791V88.321h1.486Zm0-7.58H98.791V80.741h1.486Zm0-7.579H98.791V73.161h1.486Zm0-7.579H98.791V65.582h1.486Zm0-7.579H98.791V58h1.486Zm0-7.58H98.791V50.423h1.486Zm0-7.579H98.791V42.844h1.486Z" fill="#f9fbfc"/>
        <rect id="Rectangle_50660" data-name="Rectangle 50660" width="1.486" height="1.487" transform="translate(98.791 95.899)" fill="#f9fbfc"/>
        <rect id="Rectangle_50661" data-name="Rectangle 50661" width="80.33" height="49.515" transform="translate(209.032)" fill="#d9dfe2"/>
        <path id="Path_20860" data-name="Path 20860" d="M240.23,19.916,230.673,24l9.557,4.019L238.979,30.9l-11.462-5.121V22.238l11.462-5.15Z" fill="#f9fbfc"/>
        <path id="Path_20861" data-name="Path 20861" d="M254.315,10.478l-6.937,26.646-3.3-.774,6.967-26.616Z" fill="#f9fbfc"/>
        <path id="Path_20862" data-name="Path 20862" d="M270.9,22.238v3.543L259.438,30.9l-1.25-2.888L267.716,24l-9.528-4.079,1.25-2.828Z" fill="#f9fbfc"/>
        <rect id="Rectangle_50662" data-name="Rectangle 50662" width="45.754" height="32.596" transform="translate(286.602 95.926)" fill="#ffc557"/>
        <path id="Path_20863" data-name="Path 20863" d="M305.741,102.963c-1.472,0-1.962.4-1.962,1.5v4.906c0,1.916-.795,2.5-2.126,2.874,1.331.35,2.126.934,2.126,2.826v4.906c0,1.1.514,1.495,1.962,1.495v2.149c-3.714,0-4.766-1.191-4.766-3.667V115.3c0-1.332-.35-1.846-1.565-1.846V111c1.215,0,1.565-.537,1.565-1.869v-4.648c0-2.5,1.052-3.668,4.766-3.668Z" fill="#f1f2f2"/>
        <path id="Path_20864" data-name="Path 20864" d="M317.983,104.481v4.649c0,1.331.35,1.869,1.589,1.869v2.453c-1.239,0-1.589.514-1.589,1.845v4.649c0,2.476-1.051,3.668-4.766,3.668v-2.15c1.449,0,1.963-.4,1.963-1.495v-4.906c0-1.892.794-2.476,2.126-2.826-1.332-.374-2.126-.958-2.126-2.874v-4.9c0-1.1-.491-1.5-1.963-1.5v-2.149c3.715,0,4.766,1.168,4.766,3.668" fill="#f1f2f2"/>
        <rect id="Rectangle_50663" data-name="Rectangle 50663" width="51.329" height="34.332" transform="translate(59.439 7.102)" fill="#d9dfe2"/>
        <path id="Path_20865" data-name="Path 20865" d="M76.426,16.957A8.425,8.425,0,0,0,87.7,29.2l5.387,5.387a.582.582,0,0,0,.824,0l1.513-1.513a.582.582,0,0,0,0-.824l-5.387-5.387a8.425,8.425,0,0,0-13.61-9.91m10.813,9.45a5.957,5.957,0,1,1,0-8.425,5.965,5.965,0,0,1,0,8.425" fill="#f9fbfc"/>
      </g>
    </g>
    <g id="Group_30679" data-name="Group 30679">
      <g id="Group_30678" data-name="Group 30678" clip-path="url(#clip-path-5)">
        <rect id="Rectangle_50665" data-name="Rectangle 50665" width="26.618" height="27.034" transform="translate(233.463 99.087)" fill="url(#radial-gradient)"/>
      </g>
    </g>
    <g id="Group_30681" data-name="Group 30681">
      <g id="Group_30680" data-name="Group 30680" clip-path="url(#clip-path-6)">
        <rect id="Rectangle_50666" data-name="Rectangle 50666" width="46.491" height="52.861" transform="matrix(0.978, -0.21, 0.21, 0.978, 211.672, 69.116)" fill="url(#radial-gradient-2)"/>
      </g>
    </g>
    <g id="Group_30686" data-name="Group 30686">
      <g id="Group_30685" data-name="Group 30685" clip-path="url(#clip-path)">
        <path id="Path_20868" data-name="Path 20868" d="M248.6,90.108c.1-1.336,1.479-2.8,2.858-1.932,1.428.9,1.092,3.27.5,4.576-.464,1.025-2.016,2.145-3.067,1.193-.881-.8.488-1.74.533-2.469.041-.655-1.271-1.125-.734-1.827" fill="#f7b094"/>
        <path id="Path_20869" data-name="Path 20869" d="M248.85,96.287a4.08,4.08,0,0,0,4.5-2.672,15.364,15.364,0,0,0,.551-4.3,10.287,10.287,0,0,1,.353,4.737c-.373,2.922-1.4,5.705-3.69,5.741s-1.711-3.51-1.711-3.51" fill="#f7b094"/>
        <path id="Path_20870" data-name="Path 20870" d="M247.083,94.207a.514.514,0,0,1-.161.048c-.892.125-1.248-.954-1.38-1.629a30.055,30.055,0,0,1-.316-4.768,3.608,3.608,0,0,0-.145-1.273c-.5-1.149-1.836-1.894-2.243-3.077-.474-1.379.864-2.754.333-4.262-.813-2.311-3.78-2.842-5.926-2.818a67.386,67.386,0,0,0-9.538,1.129c-3.355.521-7.643,1.015-10.6-1.108-3.563-2.556-5.051-9.22-2.392-12.87a8.639,8.639,0,0,1,6.606-3.1c2.553-.057,4.71,1.465,7.052,2.229,1.865.611,3.669-1.173,5.412-1.523,2.191-.436,3.122,1.956,5.06,2.022,1.884.063,3.731-1.409,5.562-1.742,3.651-.668,3.436,3,5.885,4.251,1.522.78,3.489.308,5.029,1.1,1.17.6,1.334,1.656,1.589,2.853a27.85,27.85,0,0,0,.573,3.211,7.268,7.268,0,0,0,1.628,2.134,7.805,7.805,0,0,1,1.356,2.582,16.092,16.092,0,0,1,.675,6.556A44.545,44.545,0,0,1,258.4,94.932c-.8,2.254-1.1,4.6-2.325,6.731-.33.573-1.8,2.247-2.341,1a1.827,1.827,0,0,1-.079-.862c.162-2.322,2.324-17.287-3.344-15.488a4.016,4.016,0,0,0-2.432,2.5,9.711,9.711,0,0,0-.5,4.14c.01.205.015.409.007.614a.7.7,0,0,1-.3.644"/>
        <path id="Path_20871" data-name="Path 20871" d="M239.6,111.824c6.446-1.036,10.7-6.128,10.7-6.128a11.747,11.747,0,0,1-11.086,9.035Z" fill="#f7b094"/>
        <path id="Path_20872" data-name="Path 20872" d="M250.179,228.8h9.227v88.525a1.626,1.626,0,0,1-1.626,1.626H251.8a1.626,1.626,0,0,1-1.626-1.626Z" fill="#0a2033"/>
        <path id="Path_20873" data-name="Path 20873" d="M229.421,230.061h50.742v1.385a6.314,6.314,0,0,1-6.314,6.315H235.735a6.314,6.314,0,0,1-6.314-6.315Z" fill="#30475e"/>
        <path id="Path_20874" data-name="Path 20874" d="M250.179,308.451h9.227v20.514a1.626,1.626,0,0,1-1.626,1.626H251.8a1.626,1.626,0,0,1-1.626-1.626Z" fill="#0a2033"/>
        <path id="Path_20875" data-name="Path 20875" d="M206.912,325.191a5.4,5.4,0,1,0,5.4-5.4,5.4,5.4,0,0,0-5.4,5.4" fill="#0a2033"/>
        <path id="Path_20876" data-name="Path 20876" d="M291.872,325.191a5.4,5.4,0,1,0,5.4-5.4,5.4,5.4,0,0,0-5.4,5.4" fill="#0a2033"/>
        <rect id="Rectangle_50667" data-name="Rectangle 50667" width="18.562" height="16.22" transform="translate(245.511 301.576)" fill="#30475e"/>
        <path id="Path_20877" data-name="Path 20877" d="M206.912,321.612h95.76V319.73a5.751,5.751,0,0,0-5.752-5.751H212.663a5.751,5.751,0,0,0-5.751,5.751Z" fill="#d9dfe2"/>
        <rect id="Rectangle_50668" data-name="Rectangle 50668" width="3.201" height="60.548" transform="translate(251.591 239.581)" fill="#30475e"/>
        <g id="Group_30684" data-name="Group 30684" opacity="0.6">
          <g id="Group_30683" data-name="Group 30683">
            <g id="Group_30682" data-name="Group 30682" clip-path="url(#clip-path-8)">
              <path id="Path_20878" data-name="Path 20878" d="M291.042,164.628a3.763,3.763,0,0,0-3.886,3.974c.633,10.99-1.7,37.8-11.933,46.948-12.515,11.184-47.989,9.661-47.989,9.661s-5.858,7.189,5.858,8.787,44.736.533,52.725-6.923c7.733-7.218,12.323-26.127,8.864-59.039a3.789,3.789,0,0,0-3.639-3.408" fill="#0731ff"/>
            </g>
          </g>
        </g>
      </g>
    </g>
    <g id="Group_30688" data-name="Group 30688">
      <g id="Group_30687" data-name="Group 30687" clip-path="url(#clip-path-9)">
        <rect id="Rectangle_50671" data-name="Rectangle 50671" width="17.159" height="15.29" transform="translate(211.639 300.128)" fill="url(#radial-gradient-3)"/>
      </g>
    </g>
    <g id="Group_30690" data-name="Group 30690">
      <g id="Group_30689" data-name="Group 30689" clip-path="url(#clip-path)">
        <path id="Path_20880" data-name="Path 20880" d="M285.533,193.225c-.8,1.6-58.229.032-63.653.527,0,0-35.15,16.776-40.2,32.482a17.161,17.161,0,0,0-.495,6.167c1.406,22.112,26.586,75.061,26.586,75.061l3.866-1.694,12.942-5.64,1.837-.8s-19.971-59.515-15.977-62.711S259.7,225.435,275.4,221.185c15.721-4.266,10.129-27.96,10.129-27.96" fill="#d9dfe2"/>
      </g>
    </g>
    <g id="Group_30692" data-name="Group 30692">
      <g id="Group_30691" data-name="Group 30691" clip-path="url(#clip-path-11)">
        <rect id="Rectangle_50673" data-name="Rectangle 50673" width="15.118" height="14.482" transform="translate(161.195 302.571)" fill="url(#radial-gradient-4)"/>
      </g>
    </g>
    <g id="Group_30697" data-name="Group 30697">
      <g id="Group_30696" data-name="Group 30696" clip-path="url(#clip-path)">
        <path id="Path_20882" data-name="Path 20882" d="M221.592,193.257l-.511.224s-58.844,8.26-68.431,24.764c-6.231,10.737,5.83,89.189,5.83,89.189l20.818.048s-3.113-65.351-2.075-68.994c1.167-4.154,3.164-5.656,3.963-6.087a17.161,17.161,0,0,1,.495-6.167c5.049-15.706,40.2-32.482,40.2-32.482a1.007,1.007,0,0,1-.288-.495" fill="#d9dfe2"/>
        <path id="Path_20883" data-name="Path 20883" d="M278.428,138.887l-3.946.543a193.027,193.027,0,0,1-3.308,21.282l-49.161,18.661-.672,3.563-.607-.048c.016.735.016,1.454.048,2.125.112,4.106.384,7.062.815,8.244a1.011,1.011,0,0,0,.288.5c1.335,1.089,18.723-1.022,37.52,5.88,16.3,5.986,25.441,12.525,25.863,11.647,5.124-10.652-4.2-52.453-6.84-72.393" fill="#0731ff"/>
        <g id="Group_30695" data-name="Group 30695" opacity="0.6">
          <g id="Group_30694" data-name="Group 30694">
            <g id="Group_30693" data-name="Group 30693" clip-path="url(#clip-path-13)">
              <path id="Path_20884" data-name="Path 20884" d="M273.3,163.268c-1.31,6.295-4.7,18.821-11.344,20.5-8.675,2.205-25.451,2.093-41.173,1.246-.032-.671-.032-1.39-.048-2.125l.607.048.671-3.563,49.162-18.661a192.883,192.883,0,0,0,3.307-21.282,1.384,1.384,0,0,0,.016.176c.1,1.646.767,14.363-1.2,23.662" fill="#0731ff"/>
            </g>
          </g>
        </g>
        <path id="Path_20885" data-name="Path 20885" d="M224.02,123.181c-.879,1.6-2.141,18.693-2.828,35.661l-10.05-9.378c4.266-8.261,12.878-26.283,12.878-26.283" fill="#0731ff"/>
        <path id="Path_20886" data-name="Path 20886" d="M218,171.241c-8.484,1.47-16.281,2.732-16.281,2.732l-.016.416c-9.442-7.542-23.806-28.9-23.806-28.9s4.3-5.161,5.369-6.519c.159-.208,23.582,15.913,24.78,15.769.3-.031,1.5-2.14,3.1-5.272l10.049,9.379c-.159,4.042-.287,8.068-.367,11.887-.943.175-1.885.335-2.828.511" fill="#f7b094"/>
      </g>
    </g>
    <g id="Group_30699" data-name="Group 30699">
      <g id="Group_30698" data-name="Group 30698" clip-path="url(#clip-path-14)">
        <rect id="Rectangle_50676" data-name="Rectangle 50676" width="13.945" height="27.028" transform="translate(174.382 180.72) rotate(-80.879)" fill="url(#radial-gradient-5)"/>
      </g>
    </g>
    <g id="Group_30701" data-name="Group 30701">
      <g id="Group_30700" data-name="Group 30700" clip-path="url(#clip-path)">
        <path id="Path_20888" data-name="Path 20888" d="M183.071,138.807l.192.16c-1.071,1.358-5.369,6.518-5.369,6.518l-2.668-1.885a6.633,6.633,0,0,1-6.359-.08c-3.563-1.933-1.358-6.549-1.175-7.1-.69.2-4.96,3.645-5.631,3.278s-1.166-1.582,3.611-6.295c4.761-4.714,11.248,1.342,11.439,1.342Z" fill="#f7b094"/>
        <path id="Path_20889" data-name="Path 20889" d="M169.423,142.718s-1.03,1.929.8,2.768a18.243,18.243,0,0,0,6.924,1.3c1.53-.148,2.747-2.289,2.747-2.289l-4.635-4.349h-3.705Z" fill="#f7b094"/>
        <path id="Path_20890" data-name="Path 20890" d="M169.149,143.665c.275-.947,2.906-.442,4.538-.4,1.2.028,1.859-.286,2.231-1.2s-1.373-2.375-1.716-1.917.629,1.1.658,1.71-1.717.808-3.062.808a32.763,32.763,0,0,0-3.665.35Z" fill="#e8987c"/>
      </g>
    </g>
    <g id="Group_30703" data-name="Group 30703">
      <g id="Group_30702" data-name="Group 30702" clip-path="url(#clip-path-16)">
        <rect id="Rectangle_50678" data-name="Rectangle 50678" width="34.041" height="70.167" transform="matrix(0.159, -0.987, 0.987, 0.159, 197.802, 184.002)" fill="url(#radial-gradient-6)"/>
      </g>
    </g>
    <g id="Group_30708" data-name="Group 30708">
      <g id="Group_30707" data-name="Group 30707" clip-path="url(#clip-path)">
        <path id="Path_20892" data-name="Path 20892" d="M243.641,160.919l25.036,8.867-1.133,3.346-24.78-10.63Z" fill="#f7b094"/>
        <path id="Path_20893" data-name="Path 20893" d="M243.641,160.919c-1.822,3.4-3.772,5.959-5.705,6.471-2.924.767-9.985,2.093-17.11,3.339.078-3.819.207-7.845.366-11.887.688-16.968,1.949-34.063,2.828-35.661,1.438-2.668,5.368-8.468,11.569-9.794l.015.08s-2.14,12.654,10.64,12.654c12.175,0,13.725-11.839,13.837-12.974,6.263.7,15.866,3.835,17.191,16.425.272,2.492.655,5.688,1.15,9.314l-3.945.544s-1.6,17.734-5.7,30.308l-.1.048Z" fill="#0731ff"/>
        <g id="Group_30706" data-name="Group 30706" style="mix-blend-mode: screen;isolation: isolate">
          <g id="Group_30705" data-name="Group 30705">
            <g id="Group_30704" data-name="Group 30704" clip-path="url(#clip-path-18)">
              <path id="Path_20894" data-name="Path 20894" d="M243.382,158.612l10-24.2-7.365,25.178Z" fill="#6d4b35"/>
            </g>
          </g>
        </g>
        <path id="Path_20895" data-name="Path 20895" d="M260.081,113.147h-5.448s-7.753,8.513-12.738,8.513-2.3-8.465-2.3-8.465h-2.431a13.744,13.744,0,0,0-13.653,12.187c-.091.794-.174,1.548-.244,2.229-.534,5.151,20.329,8.9,20.329,8.9l10.742-.6,6.524-12.726,1.3-5.213Z" fill="#0731ff"/>
        <path id="Path_20896" data-name="Path 20896" d="M194.338,326.489c.486,2.6,2.29,4.454,4.893,3.968l34.7-6.472a1.617,1.617,0,0,0,1.293-1.886l-.574-3.079s-36.495,6.387-40.33,7.45Z" fill="#f1f2f2"/>
        <path id="Path_20897" data-name="Path 20897" d="M204.662,317.752c.362-.314.71-.626,1.072-.94.7-.623,1.381-1.229,2.04-1.816.348-.312.7-.623,1.019-.916.634-.568,1.231-1.1,1.766-1.577.385-.347.744-.675,1.067-.967l1.417-1.27a.785.785,0,0,1,1.033-.022c1.426,1.2,6.037,3.942,14.388-1.226a.8.8,0,0,1,1.136.3l5.05,9.706s-36.495,6.386-40.33,7.45c1.261-.787,5.92-4.818,10.342-8.718"/>
        <path id="Path_20898" data-name="Path 20898" d="M139.687,326.148c.065,2.647,1.551,4.761,4.2,4.7l35.289-.862a1.617,1.617,0,0,0,1.577-1.655l-.077-3.131s-37.047.49-41,.929Z" fill="#f1f2f2"/>
        <path id="Path_20899" data-name="Path 20899" d="M151.271,319.168c.408-.253.8-.505,1.208-.757.787-.5,1.559-.994,2.3-1.468.393-.252.786-.505,1.151-.742.717-.459,1.391-.89,1.995-1.275.435-.282.842-.548,1.207-.786l1.6-1.027a.784.784,0,0,1,1.023.143c1.217,1.411,5.332,4.853,14.4,1.082a.8.8,0,0,1,1.075.473l3.439,10.386s-37.046.491-41,.93c1.369-.576,6.611-3.813,11.6-6.959"/>
        <path id="Path_20900" data-name="Path 20900" d="M114.584,182.572,95.738,132.308h53.654l18.846,50.264Z" fill="#d9dfe2"/>
        <path id="Path_20901" data-name="Path 20901" d="M171.555,182.572h-3.317l-18.846-50.264,3.012.134,17.432,45.5Z" fill="#8495a0"/>
        <path id="Path_20902" data-name="Path 20902" d="M170.514,182.572h35.453l-.1-3.169H169.789" fill="#8495a0"/>
        <rect id="Rectangle_50680" data-name="Rectangle 50680" width="8.536" height="140.234" transform="translate(313.021 192.158)" fill="#8495a0"/>
        <rect id="Rectangle_50681" data-name="Rectangle 50681" width="8.536" height="140.234" transform="translate(266.687 192.158)" fill="#d9dfe2"/>
        <rect id="Rectangle_50682" data-name="Rectangle 50682" width="8.536" height="140.234" transform="translate(118.248 192.158)" fill="#d9dfe2"/>
        <rect id="Rectangle_50683" data-name="Rectangle 50683" width="8.536" height="140.234" transform="translate(71.915 192.158)" fill="#d9dfe2"/>
        <path id="Path_20903" data-name="Path 20903" d="M330.1,192.691H63.739a4.149,4.149,0,0,1-4.149-4.149v-1.821a4.149,4.149,0,0,1,4.149-4.149H330.1a4.149,4.149,0,0,1,4.149,4.149v1.821a4.149,4.149,0,0,1-4.149,4.149" fill="#0731ff"/>
        <path id="Path_20904" data-name="Path 20904" d="M104.7,137.592l.918,2.448H116.3l-.918-2.448Z" fill="#0731ff"/>
        <path id="Path_20905" data-name="Path 20905" d="M211.143,149.464l-.767,1.482,10.817,11.179v-3.282Z" fill="#e8987c"/>
        <rect id="Rectangle_50684" data-name="Rectangle 50684" width="431.916" height="9.862" transform="translate(0 330.589)" fill="#d9dfe2"/>
        <path id="Path_20906" data-name="Path 20906" d="M381.427,258.786c-1.716,8.325-1.2,22.506-12.212,24.752-2.966.605-5.831-1.451-7.555-3.806-2.256-3.083-2.8-9.609-2.757-13.341.032-2.959,1.04-6.257,1.365-9.241.351-3.223.636-6.454,1.012-9.674,1.355-11.608,7.419-21.337,17.676-27.132.794,3.81,2.6,7.036,4.2,10.694a37.918,37.918,0,0,1,1.857,5.175c.839,3.1-.176,6.224-.928,9.188-1.113,4.384-1.743,8.952-2.657,13.385" fill="#d9dfe2"/>
        <path id="Path_20907" data-name="Path 20907" d="M367.351,283.819q.117-1.047.256-2.1A8.966,8.966,0,0,0,371.4,280.4a20.161,20.161,0,0,0,4.975-3.94c.08-.081-.056-.212-.142-.14a22.4,22.4,0,0,1-4.843,3.315,13.661,13.661,0,0,1-3.68,1.37q.174-1.25.381-2.5a10.449,10.449,0,0,0,3.786-1.757,43.286,43.286,0,0,0,5.426-4.142.02.02,0,0,0-.024-.032c-2.69,1.953-5.686,4.734-9.088,5.342.18-1.04.371-2.077.589-3.108.012-.053.024-.107.035-.161,3.937-1,6.6-4.083,9.615-6.58.049-.04,0-.124-.055-.084-2.969,2.306-5.758,4.937-9.428,6.056.318-1.474.649-2.944.982-4.412a21,21,0,0,0,8.9-6.309c.042-.048-.026-.117-.071-.07A27.132,27.132,0,0,1,370.07,269c.329-1.453.656-2.906.965-4.364a32.652,32.652,0,0,0,4.586-2.215,12.532,12.532,0,0,0,3.567-3.618.07.07,0,0,0-.118-.076c-1.993,2.866-5,3.757-7.9,5.265q.424-2.039.783-4.091c3.236-1.782,6.753-3.434,8.587-6.849.018-.034-.03-.067-.05-.034-1.943,3.138-5.339,4.489-8.422,6.2.04-.244.085-.487.123-.731.2-1.271.384-2.543.566-3.815a31.1,31.1,0,0,0,5.306-2.886,10.137,10.137,0,0,0,3.234-2.755.071.071,0,0,0-.116-.08c-1.736,2.486-5.537,3.924-8.345,5.169q.274-1.929.546-3.856c3.116-1.886,6.781-2.928,8.7-6.326a.09.09,0,0,0-.153-.1c-1.986,3.1-5.482,4.06-8.459,5.821q.171-1.194.351-2.388c3.364-1.236,7.276-4.053,9.05-7.094a.151.151,0,0,0-.254-.163,18.864,18.864,0,0,1-8.7,6.625c.2-1.288.406-2.576.636-3.86a.387.387,0,0,0,.05-.114,19.314,19.314,0,0,0,4.307-2.314,11.776,11.776,0,0,0,4.051-3.691c.108-.177-.178-.339-.28-.159-1.494,2.667-5.041,4.455-7.977,5.473.087-.468.171-.937.264-1.4q.208-1.05.424-2.1c1.2-.83,2.729-1.228,3.935-2.105a22.135,22.135,0,0,0,2.865-2.61c.089-.092-.043-.235-.138-.146a18.918,18.918,0,0,1-3.953,3.037c-.829.444-1.775.7-2.577,1.183.235-1.143.468-2.286.692-3.43l.043-.01.043.009a.211.211,0,0,0,.2-.061c1.635-.412,2.885-1.82,3.984-3.019a.03.03,0,0,0-.042-.043,10.919,10.919,0,0,1-4.007,2.7c-.006,0-.009-.005-.016-.006l-.117-.019c.179-.931.349-1.864.5-2.8a.215.215,0,0,0,.194-.24,17.2,17.2,0,0,0,2.392-2.049.06.06,0,0,0-.081-.089,13.969,13.969,0,0,1-2.391,1.687,57.766,57.766,0,0,0,.65-5.836c.01-.182-.265-.183-.281-.005-.171,1.889-.445,3.759-.77,5.62a17.377,17.377,0,0,1-2.456-3.756c-.029-.07-.14-.041-.116.034a10.808,10.808,0,0,0,1.2,2.325,14.3,14.3,0,0,0,1.266,2.041q-.271,1.5-.583,2.991a5.516,5.516,0,0,1-3.007-1.177,5.459,5.459,0,0,1-1.847-3.758c-.014-.18-.3-.179-.281,0a6.218,6.218,0,0,0,1.6,3.66,5.848,5.848,0,0,0,3.451,1.682q-.361,1.725-.741,3.445a26.881,26.881,0,0,1-2.818-2.093,38.5,38.5,0,0,1-3.561-3.843c-.125-.13-.331.058-.207.19a40.349,40.349,0,0,0,3.315,3.734,19.047,19.047,0,0,0,3.18,2.424c-.013.061-.026.121-.04.182-.012.012-.026.021-.038.032a.185.185,0,0,0-.025.257c-.242,1.1-.484,2.2-.716,3.3-.014.069-.026.138-.041.207-2.561-1.172-6.39-3.21-6.729-6.182a.2.2,0,1,0-.389.085c.758,3.363,4.454,4.854,7,6.688q-.376,1.868-.693,3.745a15.162,15.162,0,0,1-4.617-2.378c-1.263-1.005-3.05-2.217-3.619-3.773-.018-.049-.091-.017-.074.031.527,1.548,2.13,2.611,3.3,3.667a12.352,12.352,0,0,0,4.9,3.013.349.349,0,0,0-.005.167q-.2,1.189-.378,2.383c-3.111-.239-7.464-2.6-9.054-4.955-.007-.011-.022,0-.016.012a10.2,10.2,0,0,0,4.572,3.756,12.625,12.625,0,0,0,4.434,1.6c-.223,1.472-.439,2.946-.659,4.419-1.349-.5-2.779-.744-4.115-1.279a10.19,10.19,0,0,1-4.671-3.978c-.071-.106-.247-.016-.178.094,2.154,3.424,5.253,4.429,8.882,5.711q-.271,1.812-.569,3.621c-2.971-.569-6.813-2.382-8.316-4.962-.11-.19-.412-.032-.3.159A9.635,9.635,0,0,0,367,257.312c1.2.607,2.858,1.614,4.289,1.721-.007.04-.013.08-.019.119-.294,1.735-.637,3.461-1.007,5.181-3.319-.833-5.464-3.292-7.876-5.593-.167-.16-.429.084-.263.248,2.458,2.418,4.616,4.956,8.03,5.85q-.461,2.1-.97,4.189a15.338,15.338,0,0,1-7.452-5.1c-.13-.164-.358.058-.235.22a16.5,16.5,0,0,0,7.556,5.42q-.55,2.243-1.13,4.476A11,11,0,0,1,361,269.486c-.042-.054-.136.017-.1.072,1.589,2.211,3.992,4.763,6.884,5.031l-.369,1.427c-.074.286-.151.577-.23.871a16.508,16.508,0,0,1-6.029-2.906c-.051-.042-.108.037-.061.08a15.742,15.742,0,0,0,5.971,3.264c-.244.895-.5,1.815-.756,2.752a12.166,12.166,0,0,0-1.662-.707,11.947,11.947,0,0,1-2.743-1.587c-.087-.052-.185.071-.1.128a12.441,12.441,0,0,0,2.367,1.6c.7.265,1.365.6,2.045.9-1,3.72-1.881,7.674-1.4,11.245.106.791,1.435,1,1.64.159a63.715,63.715,0,0,0,.893-8" fill="#8495a0"/>
        <path id="Path_20908" data-name="Path 20908" d="M346.573,256.4c1.958,8.272,8.412,20.909-.625,27.594-2.433,1.8-5.9,1.146-8.455-.263-3.346-1.842-6.591-7.53-8.13-10.931-1.22-2.7-1.7-6.111-2.663-8.953-1.042-3.07-2.147-6.119-3.165-9.2-3.671-11.1-2.28-22.475,4.573-32.057,2.328,3.119,5.331,5.279,8.321,7.922a37.947,37.947,0,0,1,3.868,3.908c2.067,2.452,2.467,5.717,3.036,8.722.84,4.443,2.2,8.851,3.24,13.255" fill="#d9dfe2"/>
        <path id="Path_20909" data-name="Path 20909" d="M344.377,285.038q-.336-1-.652-2.007a8.964,8.964,0,0,0,2.878-2.8,20.176,20.176,0,0,0,2.848-5.671c.038-.107-.14-.169-.188-.067a22.406,22.406,0,0,1-2.992,5.049,13.676,13.676,0,0,1-2.758,2.8q-.371-1.206-.707-2.423a10.455,10.455,0,0,0,2.691-3.19,43.419,43.419,0,0,0,3.171-6.046.02.02,0,0,0-.036-.018c-1.614,2.906-3.157,6.691-5.984,8.678-.276-1.018-.54-2.04-.778-3.066l-.036-.16c3.149-2.565,4.26-6.489,5.94-10.024.027-.057-.056-.111-.086-.053-1.718,3.343-3.136,6.906-5.991,9.469-.334-1.47-.654-2.943-.972-4.414a21.014,21.014,0,0,0,5.4-9.474c.017-.062-.074-.1-.1-.034a27.121,27.121,0,0,1-5.445,8.877c-.315-1.457-.632-2.912-.967-4.364a32.635,32.635,0,0,0,3.222-3.944,12.544,12.544,0,0,0,1.708-4.785.071.071,0,0,0-.14-.019c-.6,3.439-2.945,5.516-4.942,8.108-.317-1.351-.653-2.7-1.017-4.039,2.182-2.982,4.673-5.963,4.895-9.834,0-.038-.055-.048-.06-.009-.437,3.665-2.945,6.323-5.019,9.173-.067-.239-.129-.478-.2-.716-.356-1.235-.725-2.467-1.1-3.7a31.066,31.066,0,0,0,3.592-4.856,10.109,10.109,0,0,0,1.77-3.862.071.071,0,0,0-.139-.024c-.524,2.987-3.363,5.895-5.384,8.208q-.565-1.863-1.132-3.726c2.029-3.024,4.912-5.516,5.216-9.406a.091.091,0,0,0-.18-.021c-.49,3.651-3.256,5.994-5.212,8.847q-.348-1.155-.689-2.313c2.528-2.541,4.885-6.745,5.21-10.251a.15.15,0,0,0-.3-.04,18.883,18.883,0,0,1-5.089,9.677c-.364-1.253-.719-2.507-1.053-3.768a.375.375,0,0,0,0-.125,19.275,19.275,0,0,0,2.929-3.916,11.782,11.782,0,0,0,2.114-5.056.161.161,0,0,0-.32-.025c-.229,3.048-2.69,6.166-4.922,8.328-.119-.461-.241-.922-.354-1.385q-.254-1.04-.5-2.081c.74-1.259,1.956-2.264,2.68-3.568A22.349,22.349,0,0,0,336.7,233.4a.1.1,0,0,0-.187-.075,18.9,18.9,0,0,1-2.3,4.422c-.564.752-1.314,1.381-1.837,2.16q-.4-1.7-.82-3.4l.035-.026.043-.011a.213.213,0,0,0,.153-.138c1.308-1.064,1.847-2.868,2.337-4.418a.03.03,0,0,0-.056-.021,10.929,10.929,0,0,1-2.491,4.141.1.1,0,0,0-.018,0l-.114.033q-.346-1.382-.724-2.752a.214.214,0,0,0,.074-.3,17.169,17.169,0,0,0,1.3-2.867.06.06,0,0,0-.111-.046,13.957,13.957,0,0,1-1.455,2.538,58.02,58.02,0,0,0-1.874-5.565c-.068-.169-.318-.054-.257.115.642,1.784,1.182,3.6,1.674,5.419a17.348,17.348,0,0,1-3.812-2.368c-.056-.051-.145.021-.091.079a10.713,10.713,0,0,0,2.064,1.6,14.242,14.242,0,0,0,2.01,1.317q.386,1.475.733,2.958a5.131,5.131,0,0,1-6.483-2.425c-.088-.158-.345-.037-.254.119a6.216,6.216,0,0,0,2.993,2.643,5.853,5.853,0,0,0,3.839.069q.4,1.715.783,3.435a26.749,26.749,0,0,1-3.439-.708,38.288,38.288,0,0,1-4.849-1.981.141.141,0,0,0-.108.26,40.6,40.6,0,0,0,4.581,1.986,19.041,19.041,0,0,0,3.906.855c.014.061.027.121.041.182-.006.016-.015.03-.021.046a.184.184,0,0,0,.085.243c.245,1.1.49,2.2.744,3.292.016.069.034.137.05.205-2.817.019-7.148-.213-8.709-2.764-.149-.243-.5.007-.317.241,2.106,2.73,6.087,2.521,9.169,3.109q.447,1.851.953,3.687a15.142,15.142,0,0,1-5.189-.207c-1.57-.378-3.7-.722-4.874-1.893-.037-.037-.089.023-.054.06,1.131,1.18,3.033,1.467,4.536,1.932a12.341,12.341,0,0,0,5.713.664.346.346,0,0,0,.067.153q.326,1.163.663,2.321c-2.921,1.1-7.865.791-10.3-.671-.012-.007-.02.01-.01.018a10.218,10.218,0,0,0,5.73,1.475,12.622,12.622,0,0,0,4.7-.42c.419,1.429.845,2.856,1.267,4.284-1.436.113-2.834.5-4.27.577a10.193,10.193,0,0,1-5.914-1.634c-.109-.066-.231.089-.121.16,3.4,2.195,6.63,1.8,10.462,1.428q.519,1.76,1.012,3.524c-2.933.737-7.182.715-9.633-.99-.18-.125-.387.145-.207.272a9.631,9.631,0,0,0,5.352,1.415c1.346.043,3.271.257,4.614-.25l.033.116c.466,1.7.884,3.407,1.274,5.123-3.361.644-6.343-.679-9.5-1.747-.219-.075-.354.257-.134.335,3.249,1.155,6.276,2.545,9.749,1.915q.47,2.1.888,4.207a15.338,15.338,0,0,1-8.908-1.479c-.187-.093-.3.2-.119.3a16.5,16.5,0,0,0,9.137,1.725q.447,2.265.865,4.535a11.008,11.008,0,0,1-8.2-1.208c-.06-.031-.116.072-.056.106,2.373,1.334,5.629,2.633,8.364,1.656q.134.725.268,1.448c.054.292.106.588.159.888a16.508,16.508,0,0,1-6.692-.091c-.064-.016-.083.08-.022.1a15.724,15.724,0,0,0,6.79.44c.157.914.312,1.857.477,2.814a12.318,12.318,0,0,0-1.806.06,11.949,11.949,0,0,1-3.155-.281c-.1-.01-.138.142-.035.157a12.472,12.472,0,0,0,2.821.452c.749-.057,1.492-.031,2.235-.044.665,3.793,1.534,7.75,3.475,10.785.431.673,1.724.3,1.554-.548a63.7,63.7,0,0,0-2.566-7.628" fill="#8495a0"/>
        <path id="Path_20910" data-name="Path 20910" d="M365.661,249.991c.465,10.51,5.385,27.367-7.148,33.4-3.376,1.624-7.436.026-10.219-2.278-3.641-3.014-6.268-10.681-7.352-15.171-.86-3.558-.649-7.822-1.165-11.5-.556-3.973-1.193-7.936-1.718-11.914-1.894-14.339,2.432-27.85,12.982-37.912,2.108,4.33,5.257,7.651,8.281,11.558a46.9,46.9,0,0,1,3.8,5.646c1.945,3.459,1.676,7.52,1.671,11.305-.006,5.6.623,11.269.871,16.865" fill="#d9dfe2"/>
        <path id="Path_20911" data-name="Path 20911" d="M356.361,284.3q-.177-1.293-.327-2.591a11.107,11.107,0,0,0,4.147-2.737,24.988,24.988,0,0,0,4.774-6.235c.072-.122-.131-.239-.212-.126a27.723,27.723,0,0,1-4.807,5.446,16.9,16.9,0,0,1-4,2.759q-.171-1.553-.3-3.109c1.593-.617,2.826-2.077,4.009-3.255a53.566,53.566,0,0,0,5.255-6.616.025.025,0,0,0-.039-.03c-2.635,3.159-5.387,7.4-9.284,9.165-.1-1.3-.185-2.605-.236-3.908,0-.068,0-.135-.007-.2,4.423-2.388,6.682-6.9,9.542-10.81.046-.063-.042-.147-.091-.084-2.864,3.666-5.413,7.67-9.477,10.124-.065-1.865-.113-3.729-.159-5.592a26,26,0,0,0,8.763-10.266c.035-.071-.068-.132-.108-.062-2.279,4-5.217,6.708-8.675,9.53-.045-1.844-.094-3.686-.165-5.529,1.62-1.377,3.425-2.421,4.831-4.048a15.523,15.523,0,0,0,3.183-5.423.087.087,0,0,0-.165-.055c-1.522,4.043-4.858,6.024-7.885,8.713-.073-1.716-.169-3.431-.3-5.146,3.343-3.12,7.062-6.168,8.227-10.821.011-.046-.056-.072-.071-.025-1.38,4.353-5.044,7-8.225,9.989-.026-.3-.046-.61-.075-.916-.147-1.584-.31-3.167-.478-4.749a38.4,38.4,0,0,0,5.492-5.071,12.528,12.528,0,0,0,3.045-4.285.087.087,0,0,0-.163-.062c-1.329,3.51-5.454,6.388-8.445,8.732q-.256-2.4-.514-4.792c3.166-3.207,7.248-5.569,8.518-10.227a.112.112,0,0,0-.213-.068c-1.442,4.325-5.346,6.534-8.385,9.549q-.156-1.485-.3-2.971c3.661-2.5,7.5-7.069,8.708-11.256a.187.187,0,0,0-.354-.118,23.366,23.366,0,0,1-8.427,10.586c-.152-1.607-.293-3.214-.407-4.825a.456.456,0,0,0,.025-.151,23.918,23.918,0,0,0,4.467-4.083,14.58,14.58,0,0,0,3.741-5.657.2.2,0,0,0-.384-.1c-.984,3.653-4.7,6.873-7.912,8.985-.038-.588-.079-1.176-.109-1.765q-.069-1.323-.127-2.646c1.191-1.36,2.9-2.3,4.084-3.718a27.689,27.689,0,0,0,2.645-4,.125.125,0,0,0-.21-.134,23.4,23.4,0,0,1-3.822,4.843c-.86.783-1.918,1.374-2.734,2.2-.064-1.443-.13-2.885-.209-4.326.017-.008.032-.017.049-.024l.054,0a.261.261,0,0,0,.218-.133c1.836-.99,2.91-3.058,3.864-4.83a.037.037,0,0,0-.063-.039,13.515,13.515,0,0,1-3.987,4.458c-.008,0-.014,0-.022,0l-.146.013c-.068-1.172-.147-2.342-.244-3.512a.265.265,0,0,0,.16-.346,21.311,21.311,0,0,0,2.249-3.184.075.075,0,0,0-.125-.082,17.291,17.291,0,0,1-2.356,2.749,71.635,71.635,0,0,0-.99-7.2c-.043-.221-.373-.14-.338.08.367,2.317.6,4.644.779,6.975a21.493,21.493,0,0,1-4.085-3.761c-.056-.075-.181-.008-.129.076a13.292,13.292,0,0,0,2.138,2.426,17.6,17.6,0,0,0,2.138,2.066c.086,1.254.153,2.509.208,3.766a6.821,6.821,0,0,1-3.965-.5,6.749,6.749,0,0,1-3.356-3.948c-.07-.211-.411-.124-.337.087a7.7,7.7,0,0,0,3.028,3.906,7.242,7.242,0,0,0,4.651.973q.09,2.177.155,4.356a33.081,33.081,0,0,1-4.015-1.656c-2.088-.946-3.535-2.353-5.437-3.531a.174.174,0,0,0-.191.291c1.793,1.145,3.159,2.531,5.109,3.474a23.47,23.47,0,0,0,4.551,1.945c0,.077,0,.154.007.23-.011.018-.025.033-.036.051a.228.228,0,0,0,.047.315c.043,1.392.087,2.784.142,4.175,0,.087.01.174.014.261-3.429-.63-8.641-1.914-9.948-5.377a.248.248,0,1,0-.442.22c1.929,3.806,6.816,4.473,10.428,5.9q.114,2.355.3,4.7a18.778,18.778,0,0,1-6.26-1.454c-1.821-.822-4.333-1.735-5.487-3.43-.037-.053-.114.007-.079.06,1.1,1.7,3.347,2.487,5.067,3.4a15.282,15.282,0,0,0,6.792,2.131.414.414,0,0,0,.045.2q.126,1.488.269,2.975c-3.806.656-9.745-.859-12.366-3.2-.012-.011-.026.008-.015.019a12.631,12.631,0,0,0,6.624,3.12,15.619,15.619,0,0,0,5.806.577c.178,1.834.366,3.667.549,5.5-1.772-.194-3.561-.05-5.326-.287a12.6,12.6,0,0,1-6.81-3.356c-.117-.105-.3.055-.185.167,3.623,3.455,7.645,3.721,12.389,4.159q.222,2.258.414,4.517c-3.737.218-8.9-.792-11.482-3.433-.19-.194-.5.087-.314.283A11.922,11.922,0,0,0,347.9,252.6c1.626.364,3.917,1.07,5.668.765l.012.148c.174,2.171.286,4.346.363,6.522-4.234.006-7.554-2.294-11.145-4.323-.25-.141-.49.231-.241.377,3.682,2.156,7.041,4.547,11.408,4.584q.086,2.659.106,5.321a18.982,18.982,0,0,1-10.487-3.86c-.2-.157-.411.178-.214.335a20.413,20.413,0,0,0,10.709,4.213c.013,1.9.01,3.809,0,5.713-3.618.35-6.853-1.153-9.695-3.367-.066-.052-.157.06-.093.115,2.576,2.171,6.234,4.5,9.785,3.949q0,.912-.01,1.823c0,.367-.006.74-.012,1.116a20.433,20.433,0,0,1-8.115-1.659c-.073-.035-.118.077-.048.114a19.458,19.458,0,0,0,8.153,2.106c-.022,1.148-.051,2.33-.072,3.532a15.1,15.1,0,0,0-2.21-.345A14.819,14.819,0,0,1,348,278.7c-.12-.037-.2.141-.078.183a15.458,15.458,0,0,0,3.324,1.2c.925.1,1.822.309,2.728.465-.069,4.765.071,9.777,1.728,13.916.367.918,2.025.767,2.016-.306-.029-3.3-.906-6.6-1.354-9.868" fill="#8495a0"/>
        <path id="Path_20912" data-name="Path 20912" d="M372.579,288.232l-.464,8.543-.726,13.3-1.19,21.857H340.608l-1.19-21.857-.726-13.3-.464-8.543Z" fill="#95a8b5"/>
        <path id="Path_20913" data-name="Path 20913" d="M372.115,296.775l-.1,1.713-.1,1.773-.536,9.817H339.418l-.536-9.817-.1-1.773-.1-1.713Z" fill="#a5b7c6"/>
        <path id="Path_20914" data-name="Path 20914" d="M372.02,298.488l-.1,1.773H338.882l-.1-1.773Z" fill="#95a8b5"/>
      </g>
    </g>
  </g>
</svg>
