<svg xmlns="http://www.w3.org/2000/svg" xmlns:xlink="http://www.w3.org/1999/xlink" width="72" height="72" viewBox="0 0 72 72">
  <defs>
    <clipPath id="clip-path">
      <rect id="Rectangle_50748" data-name="Rectangle 50748" width="50.236" height="57.704" fill="none"/>
    </clipPath>
  </defs>
  <g id="Group_30794" data-name="Group 30794" transform="translate(-945 -4132)">
    <g id="Rectangle_50742" data-name="Rectangle 50742" transform="translate(945 4132)" fill="#fff" stroke="#707070" stroke-width="1" opacity="0">
      <rect width="72" height="72" stroke="none"/>
      <rect x="0.5" y="0.5" width="71" height="71" fill="none"/>
    </g>
    <g id="Group_30798" data-name="Group 30798" transform="translate(953 4139.147)">
      <g id="Group_30798-2" data-name="Group 30798" transform="translate(0 0)" clip-path="url(#clip-path)">
        <path id="Path_21080" data-name="Path 21080" d="M18.832,94.728a1.142,1.142,0,0,1,.088-1.476c.695-.939,1.351-1.906,2.027-2.859a.927.927,0,0,1,.96-.415.893.893,0,0,1,.742.656.906.906,0,0,1-.135.827c-.733,1.047-1.466,2.093-2.21,3.133a1.016,1.016,0,0,1-1.178.341l-.295-.208" transform="translate(-9.808 -47.437)"/>
        <path id="Path_21081" data-name="Path 21081" d="M27.136,100.583a1.142,1.142,0,0,1,.088-1.476c.695-.939,1.351-1.906,2.027-2.859a.927.927,0,0,1,.96-.415.893.893,0,0,1,.742.656.906.906,0,0,1-.135.827c-.733,1.047-1.466,2.093-2.21,3.133a1.016,1.016,0,0,1-1.178.341l-.295-.208" transform="translate(-14.187 -50.524)"/>
        <path id="Path_21082" data-name="Path 21082" d="M35.439,106.437a1.142,1.142,0,0,1,.088-1.476c.695-.939,1.351-1.906,2.027-2.859a.927.927,0,0,1,.96-.415.893.893,0,0,1,.742.656.906.906,0,0,1-.135.827c-.733,1.047-1.466,2.093-2.21,3.133a1.016,1.016,0,0,1-1.178.341l-.295-.208" transform="translate(-18.565 -53.61)"/>
        <path id="Path_21083" data-name="Path 21083" d="M31.2,41.143l-1.828,2.593a1,1,0,0,1-1.626.285l-2.188-1.543-.213.3q-1.237,1.754-2.474,3.508a.98.98,0,0,1-1.544.259q-3.79-2.671-7.58-5.344a.984.984,0,0,1-.265-1.565l2.455-3.483.216-.306-.271-.191q-.993-.7-1.986-1.4a.97.97,0,0,1-.262-1.5c.609-.867,1.221-1.733,1.884-2.674-.173.046-.273.066-.368.1a8.618,8.618,0,0,0-4.319,3.183q-.517.719-1.021,1.447a1.078,1.078,0,0,1-.736.468q-3.949.68-7.9,1.364A.92.92,0,0,1,.14,36.209a.951.951,0,0,1,.074-1.1c2.064-2.927,4.1-5.875,6.2-8.775a10.331,10.331,0,0,1,8.031-4.4c2.265-.151,4.532-.286,6.8-.417a.6.6,0,0,0,.509-.284C25.369,16.1,29,10.976,32.6,5.825a9.2,9.2,0,0,1,3.6-2.981A27.382,27.382,0,0,1,42.185.81C43.441.519,44.709.275,45.98.051a2.812,2.812,0,0,1,3.365,2.277,31.693,31.693,0,0,1,.83,9.022,10.907,10.907,0,0,1-1.042,4.189,9.307,9.307,0,0,1-.7,1.151q-5.492,7.805-11,15.6a.6.6,0,0,0-.1.574C38,35.139,38.678,37.41,39.3,39.7a10.36,10.36,0,0,1-.927,7.812,10.152,10.152,0,0,1-.669,1.067q-3.029,4.309-6.076,8.605a1.343,1.343,0,0,1-.622.474.914.914,0,0,1-1.174-.832q-.442-2.528-.876-5.057c-.158-.917-.311-1.835-.478-2.75a1.237,1.237,0,0,1,.214-.962c.576-.864,1.2-1.708,1.682-2.621a7.927,7.927,0,0,0,.852-4.032c0-.057-.013-.114-.03-.259m-2.952.888.174-.247Q37.711,28.6,47,15.416a5.77,5.77,0,0,0,.536-.934,10,10,0,0,0,.777-3.7,31.16,31.16,0,0,0-.837-8.124.918.918,0,0,0-1.146-.745C44.619,2.267,42.9,2.6,41.2,3.027a18.6,18.6,0,0,0-4.926,1.932,5.752,5.752,0,0,0-1.866,1.612Q25.139,19.733,15.859,32.889l-.193.275,12.578,8.867M3.066,34.394c1.487-.257,2.89-.546,4.306-.728A2.125,2.125,0,0,0,9.055,32.6a10.113,10.113,0,0,1,3.408-3.267,11.761,11.761,0,0,1,4.372-1.483.711.711,0,0,0,.424-.265c.91-1.266,1.805-2.545,2.7-3.82.053-.076.1-.158.165-.267-.1,0-.163-.008-.22,0-1.836.113-3.674.2-5.508.347a8.5,8.5,0,0,0-6.542,3.725q-2.306,3.255-4.6,6.522c-.055.078-.1.161-.195.3m32.785.144-.229.325c-.8,1.136-1.579,2.289-2.414,3.4a1.538,1.538,0,0,0-.3,1.371,10.405,10.405,0,0,1-.425,5.695,13.824,13.824,0,0,1-1.932,3.4.682.682,0,0,0-.113.459c.265,1.608.547,3.214.826,4.82.014.081.042.159.072.274.072-.091.117-.143.156-.2,1.6-2.264,3.205-4.519,4.783-6.8a8.44,8.44,0,0,0,1.475-5.478,15.162,15.162,0,0,0-.73-3.209c-.378-1.326-.764-2.65-1.173-4.064M23.977,41.392l-6.272-4.422-2.2,3.119,6.272,4.422,2.2-3.119" transform="translate(0 0)" fill="#0731ff"/>
        <path id="Path_21084" data-name="Path 21084" d="M45.718,44.136,33.141,35.269l.193-.274Q42.611,21.836,51.886,8.676a5.757,5.757,0,0,1,1.866-1.612,18.6,18.6,0,0,1,4.926-1.932c1.7-.427,3.415-.761,5.128-1.116a.917.917,0,0,1,1.146.745,31.16,31.16,0,0,1,.837,8.124,10,10,0,0,1-.777,3.7,5.745,5.745,0,0,1-.536.933Q55.189,30.708,45.892,43.889l-.174.247M52.671,12.6a4.792,4.792,0,1,0,6.679-1.148A4.813,4.813,0,0,0,52.671,12.6m-.52,9.056a3.831,3.831,0,1,0,.931,5.327,3.85,3.85,0,0,0-.931-5.327" transform="translate(-17.475 -2.104)" fill="#fff"/>
        <path id="Path_21085" data-name="Path 21085" d="M6.488,60.6c.091-.143.139-.226.194-.3q2.3-3.261,4.6-6.521a8.5,8.5,0,0,1,6.542-3.725c1.834-.145,3.672-.234,5.507-.347.058,0,.116,0,.221,0-.068.109-.113.191-.166.267-.9,1.275-1.793,2.554-2.7,3.82a.711.711,0,0,1-.424.265,11.761,11.761,0,0,0-4.372,1.483,10.117,10.117,0,0,0-3.408,3.267,2.126,2.126,0,0,1-1.682,1.063c-1.416.182-2.82.47-4.306.728" transform="translate(-3.421 -26.21)" fill="#fff"/>
        <path id="Path_21086" data-name="Path 21086" d="M69.8,73.065c.409,1.415.8,2.738,1.173,4.064a15.16,15.16,0,0,1,.73,3.21,8.442,8.442,0,0,1-1.475,5.478c-1.577,2.277-3.187,4.531-4.783,6.8-.039.056-.085.108-.156.2-.03-.115-.058-.193-.072-.274-.279-1.606-.561-3.211-.826-4.82a.68.68,0,0,1,.113-.459,13.833,13.833,0,0,0,1.932-3.4,10.4,10.4,0,0,0,.425-5.695,1.54,1.54,0,0,1,.295-1.371c.835-1.11,1.613-2.263,2.414-3.4l.229-.325" transform="translate(-33.951 -38.526)" fill="#fff"/>
        <path id="Path_21087" data-name="Path 21087" d="M41.274,82.632l-2.2,3.119L32.8,81.329,35,78.21l6.272,4.422" transform="translate(-17.296 -41.239)" fill="#fff"/>
        <path id="Path_21088" data-name="Path 21088" d="M73.485,19.957a4.792,4.792,0,1,1,1.147,6.68,4.808,4.808,0,0,1-1.147-6.68m1.553,1.1a2.892,2.892,0,1,0,4.011-.7,2.886,2.886,0,0,0-4.011.7" transform="translate(-38.288 -9.458)"/>
        <path id="Path_21089" data-name="Path 21089" d="M66.627,40.594a3.831,3.831,0,1,1-5.33.91,3.85,3.85,0,0,1,5.33-.91m-1.1,1.55a1.931,1.931,0,1,0,.48,2.677,1.925,1.925,0,0,0-.48-2.677" transform="translate(-31.95 -21.038)"/>
        <path id="Path_21090" data-name="Path 21090" d="M77.147,23.163a2.892,2.892,0,1,1,.7,4.035,2.884,2.884,0,0,1-.7-4.035" transform="translate(-40.397 -11.568)" fill="#fff"/>
        <path id="Path_21091" data-name="Path 21091" d="M67.637,44.253a1.931,1.931,0,1,1-2.7.484,1.926,1.926,0,0,1,2.7-.484" transform="translate(-34.06 -23.148)" fill="#fff"/>
      </g>
    </g>
  </g>
</svg>
