<svg xmlns="http://www.w3.org/2000/svg" xmlns:xlink="http://www.w3.org/1999/xlink" width="72" height="72" viewBox="0 0 72 72">
  <defs>
    <clipPath id="clip-path">
      <rect id="Rectangle_50746" data-name="Rectangle 50746" width="61.277" height="52.197" fill="none"/>
    </clipPath>
  </defs>
  <g id="Group_30795" data-name="Group 30795" transform="translate(-945 -4132)">
    <g id="Rectangle_50742" data-name="Rectangle 50742" transform="translate(945 4132)" fill="#fff" stroke="#707070" stroke-width="1" opacity="0">
      <rect width="72" height="72" stroke="none"/>
      <rect x="0.5" y="0.5" width="71" height="71" fill="none"/>
    </g>
    <g id="Group_30796" data-name="Group 30796" transform="translate(950.361 4141.901)">
      <g id="Group_30796-2" data-name="Group 30796" clip-path="url(#clip-path)">
        <path id="Path_21073" data-name="Path 21073" d="M83.7,65.065c-.235-1.267-.456-2.468-.682-3.669q-.307-1.636-.624-3.27a1.677,1.677,0,0,1,.471-1.467,17.285,17.285,0,0,0,3.883-7.794A16.971,16.971,0,0,0,82.656,33.71a22,22,0,0,0-14.844-7.421,23.743,23.743,0,0,0-6.58.222,1.54,1.54,0,0,1-1.665-.5,1.356,1.356,0,0,1-.184-1.4,1.43,1.43,0,0,1,1.3-.9,55.4,55.4,0,0,1,5.985-.344,25.2,25.2,0,0,1,14.04,4.762A21.1,21.1,0,0,1,89.588,41.46,19.627,19.627,0,0,1,85.74,57.609a1.389,1.389,0,0,0-.319,1.233c.53,2.642,1.005,5.3,1.5,7.944a1.437,1.437,0,0,1-1.988,1.742c-2.685-.9-5.368-1.807-8.041-2.741a2.378,2.378,0,0,0-1.492-.052,35.3,35.3,0,0,1-11.035,1.492c-8.612-.454-15.644-3.914-20.476-11.255a18.958,18.958,0,0,1-3.115-10.218c-.024-1.181.43-1.834,1.332-1.872.931-.04,1.478.579,1.508,1.789A16.975,16.975,0,0,0,46.4,54.639a20.96,20.96,0,0,0,10.971,8.43,24,24,0,0,0,12.549.907c1.925-.353,3.82-.872,5.739-1.261a2.734,2.734,0,0,1,1.319.116c2.073.668,4.132,1.382,6.2,2.078.145.049.294.087.526.155" transform="translate(-28.712 -16.444)" fill="#0731ff"/>
        <path id="Path_21074" data-name="Path 21074" d="M21.554,27.235a2.571,2.571,0,0,1-1.208-.322q-.968-.511-1.938-1.019c-1.382-.725-2.811-1.475-4.212-2.227-2.241,1.211-4.456,2.362-6.138,3.232A2.443,2.443,0,0,1,5.6,26.854a2.385,2.385,0,0,1-1.052-2.16l.016-.148c.09-.527.172-1.065.255-1.607.2-1.313.407-2.67.748-4.015A1.882,1.882,0,0,0,4.853,16.6a34.622,34.622,0,0,1-2.78-2.62c-.392-.4-.8-.809-1.2-1.2A2.347,2.347,0,0,1,2.2,8.62q1.182-.17,2.362-.344c1.45-.213,2.948-.432,4.428-.635.535-1.1,1.079-2.2,1.622-3.305q.686-1.39,1.368-2.782A2.4,2.4,0,0,1,14.185,0h.008a2.39,2.39,0,0,1,2.213,1.544q.695,1.428,1.4,2.849c.535,1.081,1.07,2.161,1.6,3.246,1.539.2,3.1.432,4.6.653q1.029.151,2.059.3a2.5,2.5,0,0,1,2.208,1.638,2.456,2.456,0,0,1-.823,2.628q-.931.9-1.859,1.81-1.48,1.445-2.968,2.882c.3,1.634.579,3.294.853,4.9q.169.99.34,1.981a2.324,2.324,0,0,1-.938,2.364,2.268,2.268,0,0,1-1.324.438m-7.365-5.962a2.349,2.349,0,0,1,1.119.3c1.394.748,2.82,1.5,4.2,2.221q.971.51,1.942,1.021l.034.017h0q-.171-.992-.34-1.985c-.279-1.633-.568-3.321-.867-4.976a2.029,2.029,0,0,1,.623-1.949q1.528-1.467,3.039-2.95.931-.909,1.864-1.816c.081-.079.135-.137.171-.179a2.383,2.383,0,0,0-.245-.046q-1.033-.149-2.066-.3c-1.518-.223-3.087-.453-4.629-.656A2.124,2.124,0,0,1,17.293,8.71c-.529-1.092-1.067-2.179-1.606-3.267q-.708-1.43-1.41-2.863a1.656,1.656,0,0,0-.084-.155c-.024.038-.054.092-.089.165q-.682,1.4-1.374,2.794c-.558,1.129-1.115,2.258-1.664,3.392a2.026,2.026,0,0,1-1.659,1.2c-1.5.2-3.028.428-4.505.645q-1.184.174-2.369.345c-.045.007-.082.014-.111.02.024.027.055.06.1.1.422.409.837.83,1.239,1.238a32.336,32.336,0,0,0,2.588,2.444,4.218,4.218,0,0,1,1.515,4.741c-.313,1.234-.511,2.534-.7,3.79C7.08,23.81,7,24.32,6.918,24.821a.5.5,0,0,0,.054-.024c1.681-.869,3.9-2.022,6.133-3.23a2.257,2.257,0,0,1,1.084-.294" transform="translate(0)" fill="#0731ff"/>
        <path id="Path_21075" data-name="Path 21075" d="M95.383,92.415q5.208,0,10.416,0a1.405,1.405,0,0,1,1.573,1.345,1.358,1.358,0,0,1-1.078,1.439,3.434,3.434,0,0,1-.767.062q-10.148,0-20.3,0c-.139,0-.278.005-.417,0a1.43,1.43,0,0,1-1.461-1.475,1.4,1.4,0,0,1,1.5-1.367c3.512-.009,7.024,0,10.536,0Z" transform="translate(-58.694 -65.075)"/>
        <path id="Path_21076" data-name="Path 21076" d="M95.389,70.288q-5.089,0-10.177,0a3.409,3.409,0,0,1-.824-.08,1.366,1.366,0,0,1-1.017-1.483,1.383,1.383,0,0,1,1.219-1.263,6.3,6.3,0,0,1,.714-.02q10.118,0,20.235,0a4.857,4.857,0,0,1,.653.024,1.376,1.376,0,0,1,1.187,1.29,1.359,1.359,0,0,1-.99,1.446,3.2,3.2,0,0,1-.823.086q-5.089.008-10.177,0" transform="translate(-58.703 -47.488)"/>
        <path id="Path_21077" data-name="Path 21077" d="M89.08,117.39c1.349,0,2.7,0,4.047,0,1.009,0,1.626.545,1.628,1.412a1.429,1.429,0,0,1-1.612,1.437q-4.077.011-8.153,0a1.437,1.437,0,1,1-.016-2.848c1.369-.007,2.738,0,4.106,0" transform="translate(-58.696 -82.662)"/>
      </g>
    </g>
  </g>
</svg>
