<svg xmlns="http://www.w3.org/2000/svg" xmlns:xlink="http://www.w3.org/1999/xlink" width="72" height="72" viewBox="0 0 72 72">
  <defs>
    <clipPath id="clip-path">
      <rect id="Rectangle_50747" data-name="Rectangle 50747" width="56.406" height="55.551" fill="none"/>
    </clipPath>
  </defs>
  <g id="Group_30793" data-name="Group 30793" transform="translate(-945 -4132)">
    <g id="Rectangle_50742" data-name="Rectangle 50742" transform="translate(945 4132)" fill="#fff" stroke="#707070" stroke-width="1" opacity="0">
      <rect width="72" height="72" stroke="none"/>
      <rect x="0.5" y="0.5" width="71" height="71" fill="none"/>
    </g>
    <g id="Group_30797" data-name="Group 30797" transform="translate(952.797 4140.224)">
      <g id="Group_30797-2" data-name="Group 30797" clip-path="url(#clip-path)">
        <path id="Path_21078" data-name="Path 21078" d="M41.766,99.619a12.817,12.817,0,0,1,.819,2.26,2.652,2.652,0,0,1-1.079,2.549,5.088,5.088,0,0,1-3.147,1.239q-8.257.114-16.514.248c-.8.012-1.273-.418-1.208-1.056.055-.548.45-.851,1.144-.861q5.084-.077,10.167-.149c2.136-.032,4.272-.076,6.408-.1a3.132,3.132,0,0,0,1.991-.862.969.969,0,0,0,.194-1.342,2.611,2.611,0,0,0-1.871-1.267q-7.918-.922-15.833-1.873c-.89-.106-1.276-.5-1.169-1.171.088-.557.5-.749,1.171-.83-1.735-1.13-3.324-2.188-5.276-2.405A22.908,22.908,0,0,0,5.872,95.619c-1.45.615-2.961,1.086-4.456,1.591A.969.969,0,0,1,.036,96.6c-.154-.537.185-.983.84-1.22,2.08-.752,4.124-1.619,6.235-2.272a23.191,23.191,0,0,1,11.668-.813,15.562,15.562,0,0,1,5.708,2.932,2.318,2.318,0,0,1,.483.379c1.058,1.3,2.553,1.409,4.066,1.646a4.956,4.956,0,0,0,3.718-.872c2.215-1.445,4.555-2.7,6.807-4.091a3.414,3.414,0,0,1,3.875.032.743.743,0,0,0,.934-.031c1.251-.826,2.488-1.68,3.793-2.412a20.045,20.045,0,0,1,3.4-1.552,3.794,3.794,0,0,1,3.961,1.04,2.042,2.042,0,0,1,.535,2.26.977.977,0,0,0,.011.667,2.1,2.1,0,0,1-.481,2.827q-3.165,2.932-6.347,5.844-4.264,3.921-8.536,7.834a5.212,5.212,0,0,1-1.1.766c-2.7,1.4-5.4,2.775-8.1,4.156a5.918,5.918,0,0,1-4.188.419c-5.371-1.251-10.736-2.532-16.128-3.683a22.254,22.254,0,0,0-9.777.239c-.713.166-1.219-.09-1.369-.674-.144-.558.226-1.03.941-1.2.04-.009.082-.011.122-.02a26.539,26.539,0,0,1,12.02.082c4.572,1.066,9.155,2.09,13.732,3.136.38.087.749.219,1.129.3a3.89,3.89,0,0,0,2.691-.329c2.59-1.333,5.188-2.651,7.773-3.994A5.407,5.407,0,0,0,39.6,107.2q7.225-6.62,14.434-13.257a4.464,4.464,0,0,1,.678-.41,2.913,2.913,0,0,0-2.59-.361,3.746,3.746,0,0,0-.945.438q-4.63,2.933-9.248,5.887a1.047,1.047,0,0,0-.16.118m-3.2-1.35a2.133,2.133,0,0,0,2.064-.191c2.859-1.89,5.781-3.683,8.652-5.555a6.5,6.5,0,0,1,4.54-1.37c.122.017.265-.125.4-.193-.062-.119-.094-.278-.19-.35a1.885,1.885,0,0,0-1.826-.475,18.3,18.3,0,0,0-2.9,1.3c-2.006,1.2-3.952,2.5-5.924,3.763-1.57,1-3.142,2.005-4.812,3.072M41.9,93.855l-.072-.274a4.16,4.16,0,0,0-1.085.279c-2.112,1.215-4.2,2.466-6.3,3.7a1.662,1.662,0,0,1-.289.105c1.268.34,1.267.339,2.225-.274q1.63-1.044,3.262-2.085,1.133-.725,2.264-1.453" transform="translate(0 -58.783)"/>
        <path id="Path_21079" data-name="Path 21079" d="M52.41,5.531c.341-.531.614-.985.915-1.42,2.148-3.1,5.085-4.605,8.842-3.968a9.152,9.152,0,0,1,7.725,6.421,11.815,11.815,0,0,1-2.127,11.858A37.229,37.229,0,0,1,60.7,24.809c-2.485,1.784-5.028,3.487-7.541,5.231a1.1,1.1,0,0,1-1.367.068,126.011,126.011,0,0,1-11.128-8.041,24.346,24.346,0,0,1-5.079-5.824c-2.3-3.827-1.506-10.51,1.671-13.467A9.642,9.642,0,0,1,48.362,1.109a9.876,9.876,0,0,1,3.445,3.454c.187.291.366.587.6.968M36.048,10.944a9.569,9.569,0,0,0,1.5,4.854,19.907,19.907,0,0,0,3.581,4.128A94.989,94.989,0,0,0,52.15,28a.782.782,0,0,0,.681-.086c1.825-1.221,3.646-2.449,5.442-3.713a44.628,44.628,0,0,0,7.205-6.047c2.283-2.465,3.581-5.245,3.117-8.718-.452-3.38-2.018-5.845-5.306-7.055a6.638,6.638,0,0,0-7.846,2.145,24.835,24.835,0,0,0-2.03,3.5c-.238.444-.449.829-1.022.819-.544-.01-.746-.382-.964-.808a34.845,34.845,0,0,0-1.721-3.115,6.467,6.467,0,0,0-3.1-2.526A7.682,7.682,0,0,0,36.655,7.5a32.463,32.463,0,0,0-.607,3.44" transform="translate(-22.854 0.001)" fill="#0731ff"/>
      </g>
    </g>
  </g>
</svg>
