<svg xmlns="http://www.w3.org/2000/svg" xmlns:xlink="http://www.w3.org/1999/xlink" width="72" height="72" viewBox="0 0 72 72">
  <defs>
    <clipPath id="clip-path">
      <rect id="Rectangle_50741" data-name="Rectangle 50741" width="59.574" height="63.797" fill="none"/>
    </clipPath>
  </defs>
  <g id="Group_30786" data-name="Group 30786" transform="translate(-945 -4132)">
    <g id="Rectangle_50742" data-name="Rectangle 50742" transform="translate(945 4132)" fill="#fff" stroke="#707070" stroke-width="1" opacity="0">
      <rect width="72" height="72" stroke="none"/>
      <rect x="0.5" y="0.5" width="71" height="71" fill="none"/>
    </g>
    <g id="Group_30785" data-name="Group 30785" transform="translate(951 4136)">
      <g id="Group_30784" data-name="Group 30784" clip-path="url(#clip-path)">
        <path id="Path_21045" data-name="Path 21045" d="M31.029,140.464c-3.87-1.348-7.745-2.681-11.6-4.055a7.194,7.194,0,0,0-2.73-.481c-.992.038-1.986.008-3.059.008,0,.535.016,1.008,0,1.48a.959.959,0,0,1-1.1,1.055q-5.7.009-11.4,0c-.852,0-1.192-.395-1.124-1.328.209-2.877.433-5.753.653-8.629q.415-5.431.832-10.863c.022-.29.035-.581.078-.868a.962.962,0,0,1,1.076-.964q4.952-.015,9.9,0c.716,0,1.043.362,1.066,1.093.014.432,0,.864,0,1.38h.719c1.474,0,2.949.01,4.423,0a5.606,5.606,0,0,1,2.749.664c2.122,1.132,4.239,2.276,6.391,3.351a4.6,4.6,0,0,0,1.892.475c2.449.054,4.9.083,7.35,0a3.743,3.743,0,0,1,4.167,3.641c.223-.095.429-.176.63-.268,3.907-1.776,7.807-3.565,11.721-5.325A4,4,0,1,1,57.224,128q-4.693,2.5-9.4,4.977c-3.923,2.074-7.833,4.173-11.778,6.2a32.934,32.934,0,0,1-3.27,1.282Zm-17.37-6.47c.941,0,1.852.036,2.758-.008a9.326,9.326,0,0,1,3.769.655c3.088,1.151,6.208,2.22,9.29,3.388a6.13,6.13,0,0,0,5.378-.367c5.337-2.865,10.706-5.667,16.062-8.5,1.834-.969,3.675-1.925,5.5-2.918a2.071,2.071,0,0,0-1.455-3.842,4.488,4.488,0,0,0-.809.316q-7.133,3.248-14.263,6.507a6.764,6.764,0,0,1-2.946.641c-3.219-.032-6.439-.015-9.658-.01a1.3,1.3,0,0,0-1.48,1.256c-.1.661-.507,1.037-1.055.982a.994.994,0,0,1-.856-1.164,3.216,3.216,0,0,1,3.331-3.025c2.056-.02,4.112,0,6.169-.005,1.454,0,2.908.014,4.362-.008a1.569,1.569,0,0,0,.478-3.069,3.243,3.243,0,0,0-.863-.079q-3.8-.008-7.6,0a5.541,5.541,0,0,1-2.686-.668c-1.536-.823-3.135-1.542-4.611-2.458a8.93,8.93,0,0,0-5.675-1.386c-1.025.089-2.065.015-3.134.015Zm-2,2.541V117.808H3.418c-.474,6.248-.946,12.467-1.421,18.727Z" transform="translate(0 -76.667)"/>
        <path id="Path_21046" data-name="Path 21046" d="M72.244,42.03c3.157,0,6.314.009,9.471-.008a1.711,1.711,0,0,1,1.365.591c1.809,1.948,3.641,3.874,5.46,5.812.681.725.689,1.16.023,1.868Q80.883,58.464,73.2,66.629c-.732.777-1.195.773-1.921,0Q63.6,58.493,55.937,50.352c-.732-.777-.734-1.188-.007-1.961,1.822-1.936,3.654-3.862,5.465-5.808a1.652,1.652,0,0,1,1.315-.56c3.178.014,6.355.007,9.533.007m-4.686,8.339,4.674,13.013L76.9,50.369Zm18.284.008c-.3-.015-.462-.029-.622-.029-1.89,0-3.781.014-5.67-.012a.694.694,0,0,0-.788.56c-1.25,3.538-2.528,7.066-3.8,10.6-.056.156-.092.319-.184.642L85.842,50.377M69.625,62.063a1.042,1.042,0,0,0,0-.218c-1.329-3.7-2.666-7.406-3.982-11.115-.13-.368-.351-.387-.659-.386-1.93.006-3.86,0-5.791.006a5,5,0,0,0-.525.063L69.625,62.063m7.113-13.684c-.681-1.451-1.31-2.818-1.974-4.168-.063-.127-.338-.208-.516-.21-1.348-.017-2.7,0-4.043-.018a.609.609,0,0,0-.641.441c-.471,1.037-.966,2.062-1.45,3.092-.125.267-.24.539-.383.862Zm9.128.011c-.963-1.026-1.89-1.868-2.638-2.848a3.469,3.469,0,0,0-3.6-1.571,8.5,8.5,0,0,1-1.429.013H76.826c.691,1.468,1.317,2.815,1.969,4.15a.569.569,0,0,0,.431.245c2.155.016,4.31.011,6.641.011M58.61,48.4c2.34,0,4.494.008,6.647-.016a.7.7,0,0,0,.473-.367c.43-.849.824-1.716,1.228-2.578.214-.456.422-.915.665-1.443-1.6,0-3.094,0-4.585.007a.665.665,0,0,0-.436.169c-1.3,1.359-2.582,2.73-3.991,4.227" transform="translate(-36.666 -27.818)" fill="#0731ff"/>
        <path id="Path_21047" data-name="Path 21047" d="M71.7,12.553c-.256.264-.474.673-.777.752a1.17,1.17,0,0,1-1.028-.291,22.985,22.985,0,0,1-1.525-2.632.83.83,0,0,1,.378-1.127.814.814,0,0,1,1.177.15c.587.9,1.086,1.858,1.615,2.8a.833.833,0,0,1,.053.241l.106.113" transform="translate(-45.197 -6.007)" fill="#0731ff"/>
        <path id="Path_21048" data-name="Path 21048" d="M44.353,101.554c-.268-.251-.68-.462-.763-.764a1.162,1.162,0,0,1,.276-1.028,23.239,23.239,0,0,1,2.676-1.547.824.824,0,0,1,1.116.394.8.8,0,0,1-.133,1.126c-.928.609-1.916,1.126-2.883,1.676a.547.547,0,0,1-.182.031l-.107.112" transform="translate(-28.84 -64.956)" fill="#0731ff"/>
        <path id="Path_21049" data-name="Path 21049" d="M158.69,100.313c-.013.871-.691,1.35-1.311,1.039-.886-.444-1.742-.952-2.585-1.475a.948.948,0,0,1,.969-1.624c.855.46,1.7.944,2.517,1.47.226.146.335.476.41.59" transform="translate(-102.202 -64.966)" fill="#0731ff"/>
        <path id="Path_21050" data-name="Path 21050" d="M133.512,13.41c-.839.014-1.352-.668-1.046-1.279a30.042,30.042,0,0,1,1.516-2.642.939.939,0,0,1,1.619.9c-.461.925-1,1.817-1.547,2.693-.122.194-.435.268-.541.329" transform="translate(-87.634 -6.03)" fill="#0731ff"/>
        <path id="Path_21051" data-name="Path 21051" d="M157.859,34.063a2.5,2.5,0,0,1,.683.615.808.808,0,0,1-.287,1.1c-.861.538-1.739,1.051-2.64,1.517a.839.839,0,0,1-1.129-.383.8.8,0,0,1,.109-1.131c.93-.611,1.925-1.124,2.9-1.672a1.682,1.682,0,0,1,.367-.05" transform="translate(-102.151 -22.55)" fill="#0731ff"/>
        <path id="Path_21052" data-name="Path 21052" d="M46.856,37.518a4.971,4.971,0,0,1-.669-.237c-.76-.425-1.518-.853-2.264-1.3a.959.959,0,0,1-.422-1.37.948.948,0,0,1,1.359-.3c.781.429,1.551.879,2.317,1.334a.845.845,0,0,1,.415,1.117c-.145.311-.5.524-.737.753" transform="translate(-28.703 -22.609)" fill="#0731ff"/>
        <path id="Path_21053" data-name="Path 21053" d="M102.394,2.261c0-.435-.018-.871,0-1.3A.94.94,0,0,1,103.335,0a.929.929,0,0,1,.96.933c.024.952.025,1.905,0,2.857a.934.934,0,0,1-.931.9.954.954,0,0,1-.955-.879c-.028-.266-.015-.537-.018-.806,0-.249,0-.5,0-.746Z" transform="translate(-67.78 0)" fill="#0731ff"/>
        <path id="Path_21054" data-name="Path 21054" d="M164.789,68.164c.456,0,.912-.018,1.367,0a.931.931,0,0,1,.941.949.913.913,0,0,1-.937.947q-1.4.04-2.795,0a.915.915,0,0,1-.944-.943.947.947,0,0,1,1-.957c.455-.017.911,0,1.367,0Z" transform="translate(-107.523 -45.119)" fill="#0731ff"/>
        <path id="Path_21055" data-name="Path 21055" d="M36.558,70.067c-.455,0-.912.02-1.366,0a.952.952,0,1,1,.022-1.9c.91-.018,1.821-.019,2.731,0a.95.95,0,0,1,.04,1.9c-.246.022-.5.01-.744.011-.228,0-.455,0-.683,0v-.006" transform="translate(-22.665 -45.112)" fill="#0731ff"/>
      </g>
    </g>
  </g>
</svg>
