<svg xmlns="http://www.w3.org/2000/svg" xmlns:xlink="http://www.w3.org/1999/xlink" width="72" height="72" viewBox="0 0 72 72">
  <defs>
    <clipPath id="clip-path">
      <rect id="Rectangle_50745" data-name="Rectangle 50745" width="48.731" height="59.98" fill="none"/>
    </clipPath>
  </defs>
  <g id="Group_30791" data-name="Group 30791" transform="translate(-945 -4132)">
    <g id="Rectangle_50742" data-name="Rectangle 50742" transform="translate(945 4132)" fill="#fff" stroke="#707070" stroke-width="1" opacity="0">
      <rect width="72" height="72" stroke="none"/>
      <rect x="0.5" y="0.5" width="71" height="71" fill="none"/>
    </g>
    <g id="Group_30792" data-name="Group 30792" transform="translate(956.635 4138.01)">
      <g id="Group_30789" data-name="Group 30789" clip-path="url(#clip-path)">
        <path id="Path_21065" data-name="Path 21065" d="M23.681,0a4.99,4.99,0,0,1,2.166,1.718c.461.58.947,1.14,1.429,1.7a.9.9,0,0,0,1.161.243c.689-.321,1.364-.672,2.06-.975a10.132,10.132,0,0,1,1.639-.6,2.056,2.056,0,0,1,2.516,1.2,13.542,13.542,0,0,1,.738,2.453c.457,2.03.562,2.117,2.649,2.038a14.129,14.129,0,0,1,2.335.056,2.246,2.246,0,0,1,2.1,2.8c-.136.923-.373,1.832-.57,2.746-.236,1.1-.147,1.29.868,1.782.928.451,1.9.828,2.78,1.358a2.208,2.208,0,0,1,.8,3.318,8.694,8.694,0,0,1-.706,1c-.385.492-.8.96-1.182,1.454-.631.816-.629,1.043.011,1.831.394.485.81.951,1.214,1.427.126.149.252.3.369.454,1.382,1.843.973,3.41-1.147,4.351a.631.631,0,0,1-.509-.034c-.522-.323-1.02-.687-1.544-1.047.393-.189.815-.384,1.23-.594,1.1-.555,1.132-.708.382-1.657-.169-.215-.347-.422-.525-.63-.267-.311-.543-.615-.8-.93-1.368-1.651-1.388-2.746-.068-4.442.431-.555.9-1.081,1.329-1.636.711-.918.672-1.089-.354-1.589-.578-.281-1.172-.531-1.757-.8-.213-.1-.426-.193-.632-.3a2.785,2.785,0,0,1-1.634-3.484c.174-.859.4-1.709.567-2.569.158-.806.017-.983-.809-1.016-.623-.025-1.249.017-1.873.018-.448,0-.9,0-1.345-.028a2.649,2.649,0,0,1-2.567-1.948c-.235-.721-.388-1.469-.575-2.2-.058-.227-.1-.458-.161-.683-.274-.974-.477-1.082-1.405-.665-.746.335-1.463.736-2.208,1.075-1.792.818-2.851.58-4.141-.92-.547-.636-1.053-1.309-1.614-1.931s-.77-.611-1.313,0c-.4.451-.758.942-1.136,1.415-.207.259-.405.526-.624.775a2.829,2.829,0,0,1-3.708.888c-.866-.352-1.693-.8-2.554-1.161-.83-.351-1.063-.227-1.282.652s-.363,1.8-.609,2.679A2.648,2.648,0,0,1,9.932,9.863c-1.029.078-2.067.037-3.1.085-.809.038-.967.247-.8,1.039.217,1.029.506,2.044.7,3.076A2.386,2.386,0,0,1,5.6,16.735c-.865.522-1.795.935-2.7,1.391-1.223.618-1.254.739-.388,1.8.541.666,1.132,1.3,1.636,1.989a2.546,2.546,0,0,1,.039,3.4c-.557.8-1.219,1.523-1.805,2.3-.563.748-.515.945.326,1.362.8.4,1.641.725,2.439,1.132a2.8,2.8,0,0,1,1.706,3.6c-.178.859-.4,1.71-.563,2.57-.137.708,0,.895.722.934.661.036,1.326-.013,1.99-.01.507,0,1.015,0,1.519.051a2.462,2.462,0,0,1,2.265,1.674c.33.954.547,1.948.8,2.927.329,1.258.461,1.333,1.623.8.761-.35,1.5-.747,2.266-1.089a2.777,2.777,0,0,1,3.642.724c.649.7,1.217,1.476,1.853,2.189.585.655.819.653,1.394-.018.673-.784,1.28-1.626,1.965-2.4a2.763,2.763,0,0,1,3.256-.729c.291.1.449.232.427.578-.033.522-.009,1.047-.009,1.633-.395-.161-.736-.292-1.069-.439a1,1,0,0,0-1.3.3c-.451.564-.884,1.143-1.357,1.687a9.337,9.337,0,0,1-1.266,1.288,2.022,2.022,0,0,1-2.7-.017,16.418,16.418,0,0,1-1.909-2.044c-1.238-1.495-1.3-1.5-3.059-.638a16.341,16.341,0,0,1-2.637,1.084,1.973,1.973,0,0,1-2.433-1.135,13.2,13.2,0,0,1-.771-2.5C11.05,39.1,10.935,39,8.869,39.075a14.687,14.687,0,0,1-2.393-.062,2.221,2.221,0,0,1-2.063-2.72c.13-.943.375-1.871.576-2.8.239-1.115.166-1.3-.854-1.788-.667-.322-1.358-.592-2.023-.918a6.131,6.131,0,0,1-1.091-.674,2.044,2.044,0,0,1-.627-2.758,13.681,13.681,0,0,1,1.489-2.087c1.332-1.619,1.337-1.657-.047-3.244a13.889,13.889,0,0,1-1.4-1.8,2.149,2.149,0,0,1,.685-3.2,18.449,18.449,0,0,1,2.331-1.208c1.608-.765,1.658-.864,1.208-2.585-.183-.7-.383-1.394-.5-2.1A2.392,2.392,0,0,1,6.556,8.091c.932-.069,1.873-.021,2.808-.052,1.195-.039,1.3-.129,1.582-1.285.2-.814.328-1.646.557-2.451.535-1.881,1.737-2.509,3.573-1.836.894.327,1.738.79,2.613,1.17.914.4,1.127.348,1.766-.406.391-.461.757-.944,1.12-1.428A5,5,0,0,1,22.744,0Z" transform="translate(0)" fill="#0731ff"/>
        <path id="Path_21066" data-name="Path 21066" d="M50.09,36.467a13.588,13.588,0,1,1-13.56,13.57,13.609,13.609,0,0,1,13.56-13.57M38.4,50.014A11.714,11.714,0,1,0,50.188,38.342,11.724,11.724,0,0,0,38.4,50.014" transform="translate(-26.672 -26.626)" fill="#0731ff"/>
        <path id="Path_21067" data-name="Path 21067" d="M130.691,119.343c.535,0,1.079-.013,1.621,0a2.622,2.622,0,0,1,2.454,3.687,19.077,19.077,0,0,0-.484,1.9c-.209.821-.44,1.636-.632,2.461a2.7,2.7,0,0,1-2.624,2.18c-1.893.025-3.787.016-5.681-.006a2.351,2.351,0,0,1-.952-.239,1.855,1.855,0,0,0-1.669.006,4.285,4.285,0,0,1-1.359.24,11.787,11.787,0,0,1-1.4,0,1.851,1.851,0,0,1-1.833-1.834q-.032-2.84,0-5.681a1.791,1.791,0,0,1,1.758-1.833,7.069,7.069,0,0,1,2.953.215c.159.069.538-.109.668-.283a10.638,10.638,0,0,0,.945-1.544,1.675,1.675,0,0,0,.121-.786,2.946,2.946,0,0,1,2.325-3.2,3,3,0,0,1,3.307,2.019,7.137,7.137,0,0,1,.347,1.294c.079.436.093.884.141,1.394m1.649,3.484c.48-.208.866-.471.74-1.017-.136-.589-.631-.6-1.121-.6-.624.01-1.249,0-1.874,0h-1.893c.094-.3.155-.485.208-.671a4.607,4.607,0,0,0,.12-3.09c-.275-.689-.759-1.071-1.287-.976s-.833.526-.765,1.321a3.17,3.17,0,0,1-.564,2.1c-.237.358-.454.728-.675,1.1-.35.582-.655,1.212-1.443,1.231v4.883c.471.174.861.323,1.255.461a1.617,1.617,0,0,0,.5.132c1.8.011,3.592.022,5.387,0a.829.829,0,0,0,.8-1.211c-.042-.124-.094-.244-.093-.243.268-.327.59-.559.655-.848s-.129-.635-.213-.97c.818-.438.892-.793.258-1.6m-10.513-.692h-1.8v5.549h1.8Z" transform="translate(-86.238 -83.663)"/>
        <path id="Path_21068" data-name="Path 21068" d="M12.387,166.7,7.2,167.844c-.647.142-1.291.3-1.942.419a1.378,1.378,0,0,1-1.549-.676,1.338,1.338,0,0,1,.254-1.665q4.079-4.6,8.17-9.188a.654.654,0,0,1,.13-.079c.193.63.409,1.245.554,1.876.034.148-.143.377-.273.524q-2.869,3.246-5.753,6.48c-.153.172-.3.35-.546.639l4.55-1c.7-.154,1.408-.313,2.113-.464.858-.183,1.3.163,1.32,1.055.033,1.7.049,3.4.072,5.094a1.243,1.243,0,0,0,.115.6l7.784-10.34,1.137,1.4.185-.134a3.7,3.7,0,0,1-.2.335q-4.081,5.426-8.166,10.849c-.047.062-.093.126-.142.186a1.4,1.4,0,0,1-1.612.51,1.37,1.37,0,0,1-.956-1.392c-.025-1.776-.035-3.552-.05-5.328,0-.251,0-.5,0-.85" transform="translate(-2.569 -114.38)"/>
        <path id="Path_21069" data-name="Path 21069" d="M96.752,175.4l1.353-1.238,7.588,10.076.121-.028c0-.34,0-.681,0-1.021.021-1.561.037-3.122.071-4.683.019-.843.478-1.191,1.305-1.012,2.169.47,4.337.946,6.684,1.459l-3.282-3.721c.875,0,1.623-.02,2.368.017.152.008.309.216.435.357q1.348,1.5,2.683,3.018a1.4,1.4,0,0,1,.316,1.757,1.45,1.45,0,0,1-1.728.636q-3.254-.714-6.506-1.439c-.111-.025-.225-.035-.394-.06-.016.242-.039.447-.041.653-.02,1.776-.035,3.552-.054,5.327a1.438,1.438,0,0,1-2.681.9q-4-5.3-7.989-10.614c-.092-.122-.168-.256-.25-.382" transform="translate(-70.643 -127.16)"/>
        <path id="Path_21070" data-name="Path 21070" d="M147.692,127.915c.634.81.56,1.165-.258,1.6a2.445,2.445,0,0,1,.213.97c-.065.289-.388.521-.655.848,0,0,.051.119.093.243a.829.829,0,0,1-.8,1.211c-1.8.019-3.592.008-5.388,0a1.608,1.608,0,0,1-.5-.132c-.394-.138-.784-.287-1.255-.461v-4.883c.788-.019,1.093-.65,1.443-1.231.221-.368.438-.738.675-1.1a3.17,3.17,0,0,0,.564-2.1c-.068-.794.227-1.224.765-1.321s1.012.287,1.287.976a4.606,4.606,0,0,1-.12,3.09c-.053.186-.115.371-.208.671h1.893c.625,0,1.249.008,1.874,0,.491-.008.985.007,1.121.6.126.546-.26.808-.74,1.017" transform="translate(-101.59 -88.751)" fill="#fff"/>
        <rect id="Rectangle_50744" data-name="Rectangle 50744" width="1.803" height="5.549" transform="translate(33.786 38.472)" fill="#fff"/>
        <path id="Path_21071" data-name="Path 21071" d="M63.181,74.554c.168-.946.331-1.986.545-3.016a.891.891,0,0,0-.323-.966c-.715-.633-1.391-1.312-2.091-1.963a1.031,1.031,0,0,1-.424-1.127,1.043,1.043,0,0,1,.993-.687c.985-.132,1.967-.291,2.955-.4a.889.889,0,0,0,.791-.566c.419-.879.878-1.74,1.313-2.611a.974.974,0,0,1,1.86,0c.427.854.889,1.691,1.285,2.559a1,1,0,0,0,.935.627,27.65,27.65,0,0,1,2.947.437.936.936,0,0,1,.525,1.67c-.7.756-1.5,1.422-2.223,2.161a1.023,1.023,0,0,0-.254.747c.126.946.316,1.883.493,2.821a1.085,1.085,0,0,1-.327,1.217,1.049,1.049,0,0,1-1.206-.031c-.878-.464-1.778-.89-2.649-1.367a.848.848,0,0,0-.917.008q-1.388.75-2.811,1.436a.945.945,0,0,1-1.419-.953m2.185-1.543c.7-.353,1.281-.624,1.839-.936a1.271,1.271,0,0,1,1.326-.007c.573.311,1.162.593,1.841.936-.125-.726-.206-1.342-.341-1.945a1.191,1.191,0,0,1,.4-1.254c.472-.424.922-.872,1.46-1.385-.731-.1-1.339-.207-1.951-.27a1.317,1.317,0,0,1-1.169-.824c-.259-.572-.571-1.119-.909-1.772-.333.649-.631,1.171-.872,1.718a1.374,1.374,0,0,1-1.253.885c-.593.05-1.181.163-1.892.265.537.509.989.955,1.46,1.38a1.2,1.2,0,0,1,.4,1.257c-.134.6-.217,1.218-.343,1.951" transform="translate(-44.423 -45.659)" fill="#0731ff"/>
        <path id="Path_21072" data-name="Path 21072" d="M73.5,81.183c.126-.733.209-1.348.343-1.951a1.2,1.2,0,0,0-.4-1.257c-.472-.424-.924-.871-1.46-1.38.711-.1,1.3-.215,1.892-.265a1.374,1.374,0,0,0,1.253-.885c.241-.547.539-1.069.872-1.718.338.653.65,1.2.909,1.772a1.317,1.317,0,0,0,1.169.824c.612.063,1.219.167,1.951.27-.538.512-.988.961-1.46,1.385a1.191,1.191,0,0,0-.4,1.254c.136.6.217,1.219.341,1.945-.679-.344-1.268-.626-1.841-.936a1.271,1.271,0,0,0-1.326.007c-.558.312-1.139.582-1.839.936" transform="translate(-52.559 -53.83)" fill="#fff"/>
      </g>
    </g>
  </g>
</svg>
