<svg xmlns="http://www.w3.org/2000/svg" xmlns:xlink="http://www.w3.org/1999/xlink" width="72" height="72" viewBox="0 0 72 72">
  <defs>
    <clipPath id="clip-path">
      <rect id="Rectangle_50743" data-name="Rectangle 50743" width="64.367" height="53.007" fill="none"/>
    </clipPath>
  </defs>
  <g id="Group_30787" data-name="Group 30787" transform="translate(-945 -4132)">
    <g id="Rectangle_50742" data-name="Rectangle 50742" transform="translate(945 4132)" fill="#fff" stroke="#707070" stroke-width="1" opacity="0">
      <rect width="72" height="72" stroke="none"/>
      <rect x="0.5" y="0.5" width="71" height="71" fill="none"/>
    </g>
    <g id="Group_30788" data-name="Group 30788" transform="translate(948.817 4143.329)">
      <g id="Group_30788-2" data-name="Group 30788" clip-path="url(#clip-path)">
        <path id="Path_21056" data-name="Path 21056" d="M69.732,100.784c-1.148-3.8.059-6.783,3.137-9.13l-.129-.162c-.561-.087-1.121-.183-1.683-.26a6.633,6.633,0,0,1-5.192-3.688c-.193-.364-.362-.741-.524-1.12a1.243,1.243,0,0,0-.868-.863.867.867,0,0,1-.573-1.1.9.9,0,0,1,.9-.785,2.03,2.03,0,0,1,1.943,1.08,16.2,16.2,0,0,1,.779,1.572,4.827,4.827,0,0,0,4.187,2.965,7.73,7.73,0,0,1,1.535.263,2.033,2.033,0,0,1,1.118,3.308,12.13,12.13,0,0,1-1.358,1.4,5.052,5.052,0,0,0-1.587,4.656,12.141,12.141,0,0,1,.244,1.672,2.049,2.049,0,0,1-2.919,2.106,9.133,9.133,0,0,1-1.447-.733,4.666,4.666,0,0,0-5.055,0,8.488,8.488,0,0,1-1.572.772,1.993,1.993,0,0,1-2.768-1.965,16.854,16.854,0,0,1,.31-2.38,4.591,4.591,0,0,0-1.294-4.055c-.39-.407-.832-.764-1.234-1.16a2.142,2.142,0,0,1,1.133-3.825,9.231,9.231,0,0,1,1.158-.172,5.085,5.085,0,0,0,4-2.454,1.012,1.012,0,1,1,1.737,1.028,6.991,6.991,0,0,1-4.754,3.336c-.645.141-1.309.2-2.173.321,1.393,1.309,2.66,2.458,3.216,4.195s.141,3.424-.186,5.345c.632-.335,1.085-.55,1.514-.806a6.511,6.511,0,0,1,5.391-.646,13.382,13.382,0,0,1,1.934.912c.286.139.568.288.851.432l.223-.056" transform="translate(-32.694 -49.861)"/>
        <path id="Path_21057" data-name="Path 21057" d="M75.733,7.854A19.6,19.6,0,0,1,73.991,15.8a9.624,9.624,0,0,1-2.508,3.293,5,5,0,0,1-6.309.325,8.838,8.838,0,0,1-2.987-3.385c-1.6-3.334-2.531-6.8-1.811-10.524A6.422,6.422,0,0,1,66.431.07a10.907,10.907,0,0,1,4.7.446,6.6,6.6,0,0,1,4.6,6.035c.028.432,0,.868,0,1.3m-1.948.078c-.032-.433-.061-.866-.095-1.3a4.545,4.545,0,0,0-3.363-4.247A8.991,8.991,0,0,0,66.6,2.093a4.492,4.492,0,0,0-4.288,4.079,14.566,14.566,0,0,0,2.062,9.538,7.484,7.484,0,0,0,2.036,2.064,2.9,2.9,0,0,0,3.862-.305A8.485,8.485,0,0,0,72.4,14.391a20.083,20.083,0,0,0,1.39-6.459" transform="translate(-35.833 0)" fill="#0731ff"/>
        <path id="Path_21058" data-name="Path 21058" d="M54.755,60.1c1.348-1.43,2.662-2.785,3.926-4.186a1.571,1.571,0,0,1,1.784-.522q3.8,1.036,7.618,1.972a3.305,3.305,0,0,1,2.285,1.861,13.784,13.784,0,0,1,1.091,5.122c.048.583.038,1.173.038,1.759,0,.734-.332,1.137-.937,1.164-.641.029-1.009-.351-1.071-1.117-.107-1.318-.206-2.638-.32-3.955a7.507,7.507,0,0,0-.149-.766,2.6,2.6,0,0,0-2.281-2.352c-2.04-.388-4.039-.994-6.048-1.538a.887.887,0,0,0-1.02.295c-1.293,1.408-2.613,2.791-3.926,4.181-.738.781-1.23.784-1.96.011-1.313-1.389-2.635-2.771-3.925-4.181a.936.936,0,0,0-1.076-.3c-2.267.585-4.539,1.152-6.821,1.678a1.342,1.342,0,0,0-1.11.963,33.5,33.5,0,0,0-.771,3.346,20.867,20.867,0,0,0-.155,2.533c-.034.79-.4,1.219-1.057,1.2-.624-.017-1-.45-.983-1.2a19.826,19.826,0,0,1,.786-5.848,5.325,5.325,0,0,1,.9-1.783,3.4,3.4,0,0,1,1.57-1.052c2.7-.738,5.42-1.375,8.132-2.054a1.308,1.308,0,0,1,1.4.428C52,57.2,53.349,58.612,54.755,60.1" transform="translate(-22.578 -32.945)" fill="#0731ff"/>
        <path id="Path_21059" data-name="Path 21059" d="M113.968,89.706a5.719,5.719,0,0,1,2.152,6.436,5.819,5.819,0,0,1,6.92-.035c-.893-2.69-.081-4.717,2.049-6.387-.624-.121-1.109-.187-1.578-.312a5.032,5.032,0,0,1-3.566-2.965,2.151,2.151,0,0,0-1-1.273,1.144,1.144,0,0,1-.331-1.051,1.264,1.264,0,0,1,.887-.679,1.728,1.728,0,0,1,1.715.962,5.713,5.713,0,0,1,.48.995,3.35,3.35,0,0,0,2.913,2.176,6.347,6.347,0,0,1,1.51.356,1.749,1.749,0,0,1,.739,2.8,11.028,11.028,0,0,1-1.142,1.154,2.783,2.783,0,0,0-.831,3.181,2.777,2.777,0,0,1,.117,2.03,1.679,1.679,0,0,1-2.1,1.074,10.7,10.7,0,0,1-1.654-.748,3.29,3.29,0,0,0-3.233,0,10.511,10.511,0,0,1-1.4.677,1.776,1.776,0,0,1-2.5-1.81,8.385,8.385,0,0,1,.183-1.352,3.318,3.318,0,0,0-1.081-3.174,6.89,6.89,0,0,1-1.173-1.291,1.7,1.7,0,0,1,.926-2.588,6.548,6.548,0,0,1,1.329-.3,3.758,3.758,0,0,0,2.727-1.7,1.018,1.018,0,0,1,1.489-.436,1.046,1.046,0,0,1,.2,1.546A5.569,5.569,0,0,1,115.06,89.5c-.312.066-.626.117-1.092.2" transform="translate(-66.595 -49.715)"/>
        <path id="Path_21060" data-name="Path 21060" d="M12.809,89.782a5.634,5.634,0,0,1,1.935,6.265,5.761,5.761,0,0,1,6.9-.056c-.892-2.642-.015-4.608,2.069-6.277-.453-.087-.758-.149-1.065-.2a5.145,5.145,0,0,1-4.08-3.064,2.156,2.156,0,0,0-1-1.279.975.975,0,0,1,.492-1.731,1.746,1.746,0,0,1,1.778.964,5.916,5.916,0,0,1,.475,1,3.36,3.36,0,0,0,2.92,2.171,7.3,7.3,0,0,1,1.272.257,1.8,1.8,0,0,1,.9,3,8.92,8.92,0,0,1-1.017,1,2.872,2.872,0,0,0-.86,3.284,3.578,3.578,0,0,1,.162,1.519,1.669,1.669,0,0,1-2.261,1.4,7.916,7.916,0,0,1-1.413-.65,3.393,3.393,0,0,0-3.525,0,7.371,7.371,0,0,1-1.413.652,1.7,1.7,0,0,1-2.3-1.644,9.436,9.436,0,0,1,.171-1.743A3.177,3.177,0,0,0,12,91.805c-.33-.344-.722-.632-1.027-.995a1.784,1.784,0,0,1,1.1-3.082c.361-.072.729-.113,1.093-.171a3.707,3.707,0,0,0,2.561-1.628c.456-.664.995-.836,1.523-.483s.605.93.16,1.6a5.565,5.565,0,0,1-3.62,2.45c-.3.063-.595.115-.891.175-.015,0-.024.029-.086.109" transform="translate(-6.207 -49.71)"/>
        <path id="Path_21061" data-name="Path 21061" d="M123.013,7.343c-.183,2.892-.662,5.694-2.589,8.021a4.473,4.473,0,0,1-7.032.286,10.866,10.866,0,0,1-2.823-6.169,14.017,14.017,0,0,1-.106-3.878A5.233,5.233,0,0,1,115.874.815a10.087,10.087,0,0,1,2.456.173,5.7,5.7,0,0,1,4.682,5.7c.008.217,0,.434,0,.651m-2.052.054c0-.3.019-.609,0-.912A3.536,3.536,0,0,0,117.928,3a8.447,8.447,0,0,0-2.767-.014,2.9,2.9,0,0,0-2.682,2.888,14.7,14.7,0,0,0,.153,3.612,8.04,8.04,0,0,0,2.287,4.787,3.918,3.918,0,0,0,1.563.843,2.15,2.15,0,0,0,2.237-.874c1.7-1.969,2.081-4.373,2.242-6.843" transform="translate(-65.775 -0.48)" fill="#0731ff"/>
        <path id="Path_21062" data-name="Path 21062" d="M30.094,7.417c-.2,2.867-.678,5.648-2.6,7.953a4.476,4.476,0,0,1-7.033.27,10.889,10.889,0,0,1-2.816-6.173,13.968,13.968,0,0,1-.1-3.877A5.22,5.22,0,0,1,22.9.816a9.888,9.888,0,0,1,2.52.175A5.691,5.691,0,0,1,30.093,6.7c.008.238,0,.478,0,.716m-2.049-.023c0-.282.015-.565,0-.847A3.541,3.541,0,0,0,25.008,3a8.414,8.414,0,0,0-2.767-.015A2.9,2.9,0,0,0,19.56,5.87a14.8,14.8,0,0,0,.153,3.612A8.029,8.029,0,0,0,22,14.269a3.922,3.922,0,0,0,1.563.842,2.149,2.149,0,0,0,2.237-.873c1.7-1.969,2.08-4.374,2.244-6.844" transform="translate(-10.402 -0.479)" fill="#0731ff"/>
        <path id="Path_21063" data-name="Path 21063" d="M109.078,47.956c1.111-1.169,2.1-2.179,3.047-3.218a1.413,1.413,0,0,1,1.559-.489c1.947.523,3.9,1.026,5.862,1.491a2.962,2.962,0,0,1,2.186,1.942,14.647,14.647,0,0,1,.746,5.32.969.969,0,0,1-1.062.991,1.016,1.016,0,0,1-.952-1.038c-.119-1.272-.228-2.547-.392-3.814a1.687,1.687,0,0,0-1.525-1.58c-1.53-.3-3.034-.73-4.54-1.141a.831.831,0,0,0-.954.289c-.97,1.056-1.964,2.089-2.959,3.122-.694.72-1.177.715-1.867-.008-1.005-1.052-2.013-2.1-3-3.169a.741.741,0,0,0-.847-.248c-1.8.475-3.616.912-5.425,1.36a1.021,1.021,0,1,1-.513-1.949c2.059-.524,4.123-1.026,6.178-1.565a1.412,1.412,0,0,1,1.566.464c.8.889,1.643,1.735,2.458,2.609a5.494,5.494,0,0,1,.436.629" transform="translate(-58.111 -26.33)" fill="#0731ff"/>
        <path id="Path_21064" data-name="Path 21064" d="M13.4,47.878c1-1.052,1.984-2.034,2.906-3.067a1.535,1.535,0,0,1,1.728-.521c1.967.533,3.947,1.015,5.919,1.528.773.2,1.1.665.95,1.3-.14.6-.692.848-1.457.655-1.766-.444-3.528-.9-5.3-1.317a.96.96,0,0,0-.766.217c-1.043,1.045-2.043,2.133-3.065,3.2-.666.695-1.155.7-1.823,0-1.009-1.048-2.017-2.1-3-3.168a.786.786,0,0,0-.9-.274c-1.655.44-3.314.868-4.985,1.237a1.249,1.249,0,0,0-1.084,1.051c-.212,1.259-.4,2.525-.508,3.8-.094,1.059-.34,1.5-1.028,1.5-.714,0-1.07-.484-.971-1.58a35.554,35.554,0,0,1,.581-4.3A3.051,3.051,0,0,1,3.17,45.686c1.865-.4,3.711-.884,5.551-1.386a1.617,1.617,0,0,1,1.835.565c.9,1.021,1.868,1.984,2.847,3.013" transform="translate(0 -26.346)" fill="#0731ff"/>
      </g>
    </g>
  </g>
</svg>
