<svg xmlns="http://www.w3.org/2000/svg" width="38.682" height="45.276" viewBox="0 0 38.682 45.276">
  <g id="Layer_2" transform="translate(-8.116 -4)">
    <path id="Path_20522" data-name="Path 20522" d="M32,60Z" transform="translate(-4.574 -10.724)" fill="#0072ff"/>
    <path id="Path_20523" data-name="Path 20523" d="M28.962,48.548a38.356,38.356,0,0,0,8.732-6.064c.566-.566,1.213-1.132,1.7-1.7a7.29,7.29,0,0,0,.728-.809c.4-.4.647-.808,1.051-1.213A10.756,10.756,0,0,0,42.3,37.229a29.911,29.911,0,0,0,2.021-3.477,15.27,15.27,0,0,0,.889-2.021h0a26.073,26.073,0,0,0,1.374-5.5c.081-.485.081-1.051.162-1.536a16.945,16.945,0,0,0-.162-4.042,19.161,19.161,0,0,0-5.013-10.43,18.8,18.8,0,0,0-3.638-3.072A19.894,19.894,0,0,0,29.69,4.162,4.732,4.732,0,0,1,28.639,4H26.052c0,.081-.081.081-.162.081l-1.94.243a18.72,18.72,0,0,0-11.642,7.034A18.4,18.4,0,0,0,8.184,22.03,19.377,19.377,0,0,0,9.4,30.519c.162.485.4.889.566,1.294.081.081.081.243.162.323A19.028,19.028,0,0,0,17,39.736a19.553,19.553,0,0,0,10.187,3.072c.243,0,.323.081.323.323v4.528A.981.981,0,0,0,28.962,48.548Zm.243-30.4A.926.926,0,0,1,29.69,17.1a1.149,1.149,0,0,1,.485-.162h7.2c.647,0,.97.566.97,1.294v8.489a6.319,6.319,0,0,1-3.719,5.659c-.081,0-.081.081-.162.081,0,.081.081.081.162.081-.081,0-.081,0-.162-.081H34.3a9.4,9.4,0,0,1-1.455.323.455.455,0,0,1-.566-.485V29.791c0-.323.162-.485.566-.647a3.841,3.841,0,0,0,1.536-.728,3.119,3.119,0,0,0,.889-1.779H30.256A.977.977,0,0,1,29.2,25.587c0-2.425,0-4.932,0-7.438Zm-3.557,8.57a6.069,6.069,0,0,1-2.021,4.528l-.162.162A5.441,5.441,0,0,1,21.2,32.54c-.323.081-.728.162-1.051.243-.243.081-.485-.081-.566-.4V30.034c0-.243-.081-.485.081-.647a1.116,1.116,0,0,1,.323-.243,3.577,3.577,0,0,0,1.213-.4,2.677,2.677,0,0,0,1.294-1.779,3.5,3.5,0,0,0,.081-.4H17.643a.729.729,0,0,1-.4-.081.971.971,0,0,1-.728-.97V18.068c0-.4,0-.808.323-1.051a.918.918,0,0,1,.647-.243h7.2c.647,0,.97.162.97,1.294Z" fill="#0072ff"/>
  </g>
</svg>
