<svg xmlns="http://www.w3.org/2000/svg" width="28" height="28" viewBox="0 0 28 28">
  <g id="Group_30778" data-name="Group 30778" transform="translate(-1534 -7578)">
    <g id="Rectangle_16206" data-name="Rectangle 16206" transform="translate(1534 7578)" stroke="#707070" stroke-width="1" opacity="0">
      <rect width="28" height="28" stroke="none"/>
      <rect x="0.5" y="0.5" width="27" height="27" fill="none"/>
    </g>
    <path id="Path_18273" data-name="Path 18273" d="M22.138,8.072a8.012,8.012,0,0,1-2.38.729,4.526,4.526,0,0,0,1.831-2.428A10.256,10.256,0,0,1,18.98,7.441a4,4,0,0,0-4.53-1.078,4.418,4.418,0,0,0-2.656,4.04,3.9,3.9,0,0,0,.137,1.02A11.592,11.592,0,0,1,3.419,6.858a4.316,4.316,0,0,0-.595,2.186A4.393,4.393,0,0,0,4.7,12.686a3.545,3.545,0,0,1-1.877-.534h0a4.271,4.271,0,0,0,3.3,4.323,3.73,3.73,0,0,1-1.1.194l-.778-.1a4.248,4.248,0,0,0,3.89,3.06,8.024,8.024,0,0,1-5.126,1.846H2a11.016,11.016,0,0,0,6.316,1.991c7.6,0,11.762-6.7,11.762-12.482v-.631A8.683,8.683,0,0,0,22.138,8.072Z" transform="translate(1536.556 7577.871)"/>
  </g>
</svg>
