<svg id="Group_30841" data-name="Group 30841" xmlns="http://www.w3.org/2000/svg" xmlns:xlink="http://www.w3.org/1999/xlink" width="89.904" height="89.904" viewBox="0 0 89.904 89.904">
  <defs>
    <clipPath id="clip-path">
      <rect id="Rectangle_16723" data-name="Rectangle 16723" width="89.904" height="89.904" fill="none"/>
    </clipPath>
  </defs>
  <g id="Group_20548" data-name="Group 20548" clip-path="url(#clip-path)">
    <path id="Path_17861" data-name="Path 17861" d="M50.069,49.927a1.528,1.528,0,0,1-.857.1q-24,0-48,.018c-.691,0-.965-.208-.936-.876.007-.159.044-.362-.181-.44V41.355c.223-.08.16-.28.182-.442.167-1.214.3-2.434.5-3.643A45.032,45.032,0,0,1,38.3.594,11.61,11.61,0,0,0,41.354.1h7.2c.445.37,1.069.046,1.52.392q.012,4.783.024,9.566a46.837,46.837,0,0,0-.062,4.9,50.84,50.84,0,0,0,.066,5.168q0,4.948,0,9.9c-.166,1.737-.063,3.479-.065,5.218a46.585,46.585,0,0,0,.067,4.87l-.031,9.816M24.156,32.584A7.4,7.4,0,0,0,25.83,31.5a.731.731,0,0,1,1.059-.01c.543.446,1.157.807,1.887,1.3-.247-.851-.392-1.537-.649-2.178a.752.752,0,0,1,.328-1.023,7.578,7.578,0,0,0,1.7-1.425c-.744,0-1.358-.036-1.965.01a.9.9,0,0,1-1.111-.776c-.161-.643-.441-1.256-.721-2.026-.266.759-.523,1.366-.686,2a.927.927,0,0,1-1.1.812,5.066,5.066,0,0,0-2.085.184c2.233.765,2.474,2.21,1.6,4.049a.216.216,0,0,0,0,.088c-.084.061-.106.129-.023.208l.092-.128m0-13.871a2.836,2.836,0,0,0,.959-.582c1.257-.86,1.252-.866,2.481-.017.343.237.692.465,1.181.793-.244-.84-.391-1.524-.644-2.165a.748.748,0,0,1,.318-1.024,8.018,8.018,0,0,0,1.719-1.43c-.787,0-1.428-.031-2.065.009a.815.815,0,0,1-1-.694c-.174-.669-.458-1.31-.747-2.112-.267.765-.523,1.372-.687,2a.937.937,0,0,1-1.1.814,5.737,5.737,0,0,0-1.987.107c.156.13.244.207.335.279.59.47,1.422.828,1.7,1.439.293.634-.34,1.415-.485,2.152-.022.114-.035.229-.051.345-.084.061-.1.129-.024.209l.093-.126m.006,27.745a8.426,8.426,0,0,0,1.747-1.133.646.646,0,0,1,.91-.008c.58.449,1.2.84,1.959,1.356-.246-.854-.391-1.538-.645-2.18a.744.744,0,0,1,.322-1.022,7.324,7.324,0,0,0,1.7-1.429c-.774,0-1.414-.023-2.052.007-.529.025-.853-.095-.993-.687a20.923,20.923,0,0,0-.744-2.113c-.248.708-.489,1.259-.631,1.834-.179.727-.525,1.083-1.329.975a13.3,13.3,0,0,0-1.76-.015l-.225.24c2.372.739,2.506,2.247,1.669,4.091-.078.064-.109.132-.019.211l.1-.127m-11.951-.009.07.12.051-.062-.116-.064a2.372,2.372,0,0,0-.253-1.177c-.408-1.4-.419-1.391.7-2.242.356-.271.707-.548,1.273-.987-.995,0-1.715-.018-2.433.007a.636.636,0,0,1-.744-.54c-.2-.692-.481-1.36-.8-2.251-.25.718-.467,1.2-.582,1.7-.187.822-.575,1.252-1.494,1.108A13.577,13.577,0,0,0,6,42.043c.767.589,1.321,1.041,1.9,1.452a.7.7,0,0,1,.319.938A7.613,7.613,0,0,0,7.672,46.6c.694-.477,1.306-.866,1.881-1.305a.615.615,0,0,1,.841,0,7.2,7.2,0,0,0,1.817,1.154m32.8-.139.041-.013-.061.02a5.248,5.248,0,0,0-.491-2.166.7.7,0,0,1,.291-.88,8.873,8.873,0,0,0,1.8-1.508c-.82,0-1.462-.044-2.094.012s-.882-.217-1.031-.781c-.158-.6-.4-1.174-.7-2.011-.313.9-.557,1.544-.756,2.2a.7.7,0,0,1-.811.584c-.693-.037-1.39-.01-2.085-.01l-.061.23c.5.381.978.8,1.51,1.131a.931.931,0,0,1,.408,1.3,5.327,5.327,0,0,0-.48,1.9c.8-.52,1.5-1.333,2.257-1.377.816-.048,1.49.905,2.262,1.367M42.773,25.118a15.831,15.831,0,0,0-.663,1.874,1.019,1.019,0,0,1-1.28.907c-.571-.05-1.15-.01-1.843-.01a3.5,3.5,0,0,0,1.081,1c1.125.871,1.124.861.713,2.245a2.693,2.693,0,0,0-.272,1.329c.631-.438,1.22-.811,1.766-1.239a.7.7,0,0,1,1,.008c.545.42,1.125.793,1.912,1.34-.256-.86-.4-1.479-.628-2.067a.873.873,0,0,1,.382-1.235c.551-.345,1.05-.773,1.572-1.165l-.063-.224c-.721,0-1.443-.017-2.163.007a.643.643,0,0,1-.744-.543c-.192-.666-.451-1.313-.772-2.225m2.411-6.451c-.26-.866-.424-1.51-.648-2.132a.806.806,0,0,1,.344-1.092,6.692,6.692,0,0,0,1.7-1.44c-.855,0-1.523-.029-2.185.01a.733.733,0,0,1-.874-.616c-.186-.659-.442-1.3-.752-2.184-.3.87-.549,1.508-.739,2.162a.731.731,0,0,1-.856.639C40.483,13.969,39.791,14,39.1,14l-.05.23c.456.348.889.733,1.374,1.033a1.05,1.05,0,0,1,.514,1.494,4.2,4.2,0,0,0-.447,1.83c.625-.432,1.2-.779,1.712-1.2a.778.778,0,0,1,1.147.017c.514.409,1.081.75,1.833,1.261M32.143,39.759c.785-.544,1.372-.921,1.924-1.343a.707.707,0,0,1,1-.011c.564.436,1.165.825,1.93,1.361-.267-.885-.446-1.554-.674-2.2a.759.759,0,0,1,.333-1.027c.573-.382,1.1-.833,1.646-1.254l-.039-.243c-.861,0-1.865.278-2.543-.074-.758-.394-.666-1.586-1.052-2.386-.016-.034-.065-.052-.157-.122-.249.71-.5,1.389-.722,2.077a.648.648,0,0,1-.741.544c-.717-.037-1.437-.01-2.156-.01a7.415,7.415,0,0,0,1.654,1.517.643.643,0,0,1,.292.874c-.247.675-.421,1.378-.694,2.3M15.751,25.874c.809-.561,1.393-.941,1.947-1.361a.656.656,0,0,1,.927-.006c.566.434,1.17.818,1.946,1.352-.257-.887-.409-1.566-.655-2.21a.715.715,0,0,1,.343-1c.566-.375,1.09-.814,1.632-1.226l-.067-.231c-.66,0-1.323-.04-1.978.012-.579.046-.823-.2-.966-.724-.171-.63-.422-1.239-.711-2.063-.319.892-.589,1.555-.787,2.239a.656.656,0,0,1-.741.545,8.913,8.913,0,0,0-2.274.146c.667.513,1.227.968,1.814,1.387a.614.614,0,0,1,.259.809c-.23.682-.411,1.38-.689,2.33m6.1,9.456-.03-.257c-.605,0-1.213-.04-1.814.011a.943.943,0,0,1-1.167-.826,4.2,4.2,0,0,0-.742-1.772c-.26.732-.524,1.382-.717,2.053-.12.419-.342.525-.75.539a7.406,7.406,0,0,0-2.239.172c.617.472,1.126.907,1.681,1.272a.76.76,0,0,1,.344,1.021,7.467,7.467,0,0,0-.541,2.127c.658-.459,1.246-.835,1.794-1.262a.705.705,0,0,1,1,.005c.55.424,1.139.8,1.794,1.249a9.03,9.03,0,0,0-.574-2.209.643.643,0,0,1,.288-.865c.574-.394,1.114-.837,1.669-1.259m16.426-13.9-.038-.237c-.718,0-1.437-.017-2.155.006a.641.641,0,0,1-.739-.551c-.2-.689-.472-1.357-.781-2.222-.265.754-.5,1.289-.638,1.848-.172.687-.5,1.029-1.26.936a14.86,14.86,0,0,0-1.789-.014A4.848,4.848,0,0,0,32.291,22.5a.982.982,0,0,1,.446,1.438c-.224.557-.358,1.149-.537,1.74a.643.643,0,0,0,.591-.254c1.124-1.128,2.25-1.368,3.435-.083.113.123.314.333.52.132.139-.136.069-.354-.014-.495-.9-1.535-.264-2.518,1.138-3.243a2.9,2.9,0,0,0,.408-.31M32.206,11.8a.624.624,0,0,0,.579-.246c1.12-1.1,2.243-1.414,3.432-.094.113.125.321.343.52.157.166-.155.035-.383-.024-.576-.129-.417-.235-.843-.395-1.248a.747.747,0,0,1,.343-1.025c.568-.38,1.1-.819,1.642-1.233l-.06-.221c-.715,0-1.431-.017-2.145.006a.64.64,0,0,1-.748-.537c-.2-.7-.475-1.371-.786-2.243-.308.882-.562,1.56-.778,2.25a.65.65,0,0,1-.748.533c-.713-.033-1.428-.009-2.142-.009l-.051.23c.548.416,1.08.855,1.65,1.239a.727.727,0,0,1,.311,1.02c-.248.642-.4,1.321-.6,2M13.72,28.339l-.055-.178c-.718,0-1.436-.015-2.154.006a.645.645,0,0,1-.751-.539c-.2-.693-.481-1.363-.8-2.251-.3.854-.547,1.474-.733,2.11-.142.484-.371.723-.915.686-.684-.047-1.373-.011-2.309-.011.8.619,1.386,1.089,1.992,1.525a.591.591,0,0,1,.248.806c-.246.677-.417,1.38-.688,2.309.757-.518,1.344-.877,1.88-1.3a.745.745,0,0,1,1.065-.018,5.924,5.924,0,0,0,1.832,1.131c-.232-.768-.41-1.408-.622-2.036a.709.709,0,0,1,.3-.953c.593-.395,1.142-.855,1.71-1.287" transform="translate(-0.081 -0.082)" fill="#1d3498"/>
    <path id="Path_17862" data-name="Path 17862" d="M41.274.017a11.6,11.6,0,0,1-3.051.495A45.032,45.032,0,0,0,.7,37.189C.5,38.4.366,39.617.2,40.832c-.022.162.041.361-.182.442Q.017,21.018,0,.763C0,.13.13,0,.763,0Q21.018.034,41.274.017" transform="translate(0 0)" fill="#fcfcfc"/>
    <path id="Path_17863" data-name="Path 17863" d="M284.66,227.571c2.805-.019,5.611-.054,8.416-.056,10-.006,20,.011,30.007-.02.891,0,1.415.13,1.291,1.146-.017.136-.019.3.17.349v7.022c-.026.014-.062.02-.076.041-.283.431.144,1.169-.439,1.386a4.706,4.706,0,0,1-1.564.048q-18.4,0-36.806,0a1.927,1.927,0,0,1-1.03-.1q.016-4.908.031-9.816" transform="translate(-234.641 -187.541)" fill="#be000d"/>
    <path id="Path_17864" data-name="Path 17864" d="M120.96,465.219a11.9,11.9,0,0,0-3.135-.513,44.935,44.935,0,0,1-20.964-9.125c-.088-.069-.2-.1-.2-.308h55.985c-.051.315-.354.416-.561.574a44.3,44.3,0,0,1-23.752,9.2c-.14.012-.3-.019-.352.168Z" transform="translate(-79.686 -375.315)" fill="#bf020f"/>
    <path id="Path_17865" data-name="Path 17865" d="M57.711,341.151q20.758,0,41.516-.015c.807,0,.828.212.57.866a49.517,49.517,0,0,1-4.285,8.51,1.223,1.223,0,0,1-1.2.635q-36.645-.021-73.289,0a1.154,1.154,0,0,1-1.107-.634,45.439,45.439,0,0,1-4.24-8.434c-.35-.929-.349-.928.693-.928h41.34" transform="translate(-12.752 -281.223)" fill="#bf020f"/>
    <path id="Path_17866" data-name="Path 17866" d="M284.8,113.907q7.194-.019,14.389-.036c5.7-.006,11.408.007,17.112-.013a1.284,1.284,0,0,1,1.266.672,47.875,47.875,0,0,1,4.325,8.682c.182.484.17.651-.417.651q-18.209-.021-36.418-.014a1.456,1.456,0,0,1-.258-.045q0-4.948,0-9.9" transform="translate(-234.777 -93.861)" fill="#bf020f"/>
    <path id="Path_17867" data-name="Path 17867" d="M284.647,2.328a25.02,25.02,0,0,1,6.1,1.019,44.033,44.033,0,0,1,16.389,8.021c.174.135.405.222.472.474-.145.169-.332.082-.491.082q-11.007.009-22.014,0c-.145,0-.29-.022-.436-.033q-.012-4.783-.024-9.566" transform="translate(-234.655 -1.919)" fill="#bf020f"/>
    <path id="Path_17868" data-name="Path 17868" d="M225.312,142.552c.321.912.579,1.559.772,2.225a.643.643,0,0,0,.744.543c.72-.024,1.442-.007,2.163-.007l.064.224c-.522.392-1.021.82-1.572,1.165a.873.873,0,0,0-.382,1.235c.227.588.372,1.207.628,2.067-.787-.547-1.368-.92-1.912-1.34a.7.7,0,0,0-1-.008c-.546.427-1.135.8-1.766,1.239a2.693,2.693,0,0,1,.272-1.33c.411-1.384.412-1.374-.713-2.245a3.5,3.5,0,0,1-1.081-1c.693,0,1.272-.04,1.843.01a1.019,1.019,0,0,0,1.28-.907,15.8,15.8,0,0,1,.663-1.874" transform="translate(-182.62 -117.516)" fill="#f5f6f9"/>
    <path id="Path_17869" data-name="Path 17869" d="M228.025,70.832c-.752-.511-1.319-.852-1.833-1.261a.778.778,0,0,0-1.147-.017c-.513.422-1.087.768-1.712,1.2a4.2,4.2,0,0,1,.447-1.83,1.05,1.05,0,0,0-.514-1.494c-.485-.3-.918-.685-1.374-1.033l.05-.229c.69,0,1.382-.034,2.069.011a.731.731,0,0,0,.856-.639c.19-.655.438-1.293.739-2.162.309.886.565,1.525.752,2.184a.733.733,0,0,0,.874.616c.663-.038,1.33-.01,2.186-.01a6.692,6.692,0,0,1-1.7,1.44.806.806,0,0,0-.344,1.092c.225.622.389,1.266.648,2.132" transform="translate(-182.921 -52.247)" fill="#f5f6f9"/>
    <path id="Path_17870" data-name="Path 17870" d="M176.684,191.633c.273-.924.446-1.626.694-2.3a.643.643,0,0,0-.292-.874,7.417,7.417,0,0,1-1.654-1.517c.719,0,1.439-.027,2.156.01a.649.649,0,0,0,.741-.544c.22-.689.473-1.367.722-2.077.092.07.141.088.157.122.386.8.294,1.993,1.052,2.386.678.352,1.683.074,2.543.074l.038.243c-.546.421-1.073.873-1.646,1.254a.759.759,0,0,0-.333,1.027c.229.651.407,1.32.674,2.205-.766-.535-1.366-.925-1.93-1.361a.707.707,0,0,0-1,.011c-.553.422-1.139.8-1.924,1.343" transform="translate(-144.621 -151.956)" fill="#f5f6f9"/>
    <path id="Path_17871" data-name="Path 17871" d="M227.833,228.835c-.769-.465-1.443-1.418-2.259-1.37-.753.044-1.46.857-2.257,1.377a5.327,5.327,0,0,1,.479-1.9.931.931,0,0,0-.408-1.3c-.532-.331-1.009-.75-1.51-1.131l.061-.23c.7,0,1.392-.028,2.085.01a.7.7,0,0,0,.811-.583c.2-.656.443-1.3.756-2.2.3.837.541,1.413.7,2.011.149.564.407.836,1.031.781s1.275-.012,2.094-.012a8.869,8.869,0,0,1-1.8,1.508.7.7,0,0,0-.291.88,5.251,5.251,0,0,1,.491,2.166Z" transform="translate(-182.91 -182.603)" fill="#f5f6f9"/>
    <path id="Path_17872" data-name="Path 17872" d="M82.723,111.862c.277-.95.459-1.648.689-2.33a.613.613,0,0,0-.259-.809c-.587-.419-1.148-.874-1.814-1.387a8.9,8.9,0,0,1,2.274-.146.657.657,0,0,0,.742-.545c.2-.684.468-1.346.786-2.239.289.824.54,1.432.711,2.063.143.528.388.77.966.724.655-.052,1.318-.012,1.978-.012l.067.231c-.542.412-1.066.851-1.631,1.226a.715.715,0,0,0-.343,1c.246.643.4,1.323.655,2.21-.776-.534-1.38-.918-1.946-1.352a.656.656,0,0,0-.927.006c-.554.42-1.138.8-1.947,1.361" transform="translate(-67.053 -86.07)" fill="#f5f6f9"/>
    <path id="Path_17873" data-name="Path 17873" d="M88.94,187.352c-.555.422-1.1.865-1.669,1.259a.643.643,0,0,0-.288.865,9.034,9.034,0,0,1,.574,2.209c-.655-.452-1.244-.825-1.794-1.249a.705.705,0,0,0-1-.005c-.548.427-1.136.8-1.794,1.262a7.462,7.462,0,0,1,.541-2.127.76.76,0,0,0-.344-1.021c-.555-.365-1.064-.8-1.681-1.272a7.4,7.4,0,0,1,2.239-.172c.408-.014.63-.12.75-.539.193-.671.457-1.321.717-2.053a4.2,4.2,0,0,1,.742,1.772.943.943,0,0,0,1.167.826c.6-.051,1.209-.011,1.814-.011l.03.256" transform="translate(-67.17 -152.104)" fill="#f5f6f9"/>
    <path id="Path_17874" data-name="Path 17874" d="M182.746,107.451a2.891,2.891,0,0,1-.408.31c-1.4.725-2.037,1.708-1.138,3.243.083.141.153.359.014.495-.206.2-.407-.01-.52-.132-1.185-1.285-2.311-1.045-3.435.083a.642.642,0,0,1-.591.254c.178-.591.313-1.184.537-1.741a.982.982,0,0,0-.446-1.438,4.85,4.85,0,0,1-1.415-1.309,14.857,14.857,0,0,1,1.789.014c.764.093,1.089-.249,1.261-.936.14-.559.373-1.1.638-1.849.309.864.582,1.532.781,2.222a.641.641,0,0,0,.739.551c.718-.024,1.437-.006,2.155-.006l.038.237" transform="translate(-144.55 -86.103)" fill="#f5f6f9"/>
    <path id="Path_17875" data-name="Path 17875" d="M176.525,32.648c.2-.676.351-1.355.6-2a.727.727,0,0,0-.311-1.02c-.57-.383-1.1-.823-1.65-1.239l.051-.23c.714,0,1.43-.024,2.142.009a.649.649,0,0,0,.748-.532c.216-.69.47-1.368.778-2.25.311.873.585,1.547.786,2.243a.64.64,0,0,0,.748.537c.714-.024,1.43-.007,2.145-.007l.06.221c-.545.414-1.074.852-1.642,1.232a.747.747,0,0,0-.343,1.025c.16.4.265.831.395,1.248.06.192.19.421.024.576-.2.186-.408-.032-.52-.157-1.189-1.321-2.312-1-3.432.093a.624.624,0,0,1-.579.246" transform="translate(-144.4 -20.93)" fill="#f5f6f9"/>
    <path id="Path_17876" data-name="Path 17876" d="M39.93,230.228a7.2,7.2,0,0,1-1.817-1.154.615.615,0,0,0-.84,0c-.574.439-1.187.828-1.881,1.306a7.625,7.625,0,0,1,.555-2.167.7.7,0,0,0-.319-.938c-.583-.411-1.137-.863-1.9-1.452a13.575,13.575,0,0,1,1.876.015c.919.145,1.306-.285,1.494-1.108.115-.5.331-.981.582-1.7.324.89.6,1.559.8,2.251a.636.636,0,0,0,.744.54c.719-.024,1.439-.007,2.433-.007-.565.439-.916.717-1.273.988-1.12.851-1.11.847-.7,2.242a2.374,2.374,0,0,1,.253,1.177Z" transform="translate(-27.801 -183.861)" fill="#f5f6f9"/>
    <path id="Path_17877" data-name="Path 17877" d="M41.421,146.992c-.568.432-1.117.892-1.71,1.287a.709.709,0,0,0-.3.953c.212.629.39,1.269.622,2.036a5.924,5.924,0,0,1-1.832-1.131.745.745,0,0,0-1.065.018c-.536.423-1.123.782-1.88,1.3.271-.928.442-1.632.688-2.309a.591.591,0,0,0-.248-.806c-.606-.436-1.187-.905-1.992-1.525.937,0,1.626-.035,2.309.011.544.037.773-.2.915-.686.187-.637.433-1.256.733-2.11.322.888.6,1.558.8,2.251a.645.645,0,0,0,.751.539c.717-.021,1.436-.006,2.154-.006l.055.178" transform="translate(-27.781 -118.734)" fill="#f5f6f9"/>
    <path id="Path_17878" data-name="Path 17878" d="M128.838,230.138c.838-1.843.7-3.351-1.668-4.09l.226-.24a13.268,13.268,0,0,1,1.76.015c.8.108,1.15-.249,1.33-.975.142-.575.382-1.126.631-1.834a20.876,20.876,0,0,1,.744,2.113c.14.592.464.712.993.687.638-.03,1.278-.007,2.052-.007a7.319,7.319,0,0,1-1.7,1.429.744.744,0,0,0-.322,1.022c.254.642.4,1.326.645,2.18-.754-.516-1.379-.906-1.959-1.355a.646.646,0,0,0-.91.008,8.437,8.437,0,0,1-1.747,1.133l-.077-.085" transform="translate(-104.836 -183.847)" fill="#f5f6f9"/>
    <path id="Path_17879" data-name="Path 17879" d="M129.62,72.1c.017-.115.03-.23.053-.344.145-.737.777-1.518.485-2.152-.283-.612-1.115-.969-1.7-1.439-.091-.073-.179-.149-.335-.279a5.733,5.733,0,0,1,1.987-.107.937.937,0,0,0,1.1-.814c.164-.631.42-1.237.687-2,.29.8.573,1.443.747,2.112a.816.816,0,0,0,1,.694c.636-.041,1.277-.01,2.065-.01a8.028,8.028,0,0,1-1.719,1.43.747.747,0,0,0-.318,1.024c.253.642.4,1.325.644,2.165-.489-.327-.838-.555-1.181-.792-1.229-.849-1.223-.844-2.481.017a2.837,2.837,0,0,1-.959.582l-.07-.084" transform="translate(-105.617 -53.552)" fill="#f5f6f9"/>
    <path id="Path_17880" data-name="Path 17880" d="M129.171,151.143a.233.233,0,0,1,0-.087c.871-1.839.63-3.284-1.6-4.049a5.069,5.069,0,0,1,2.085-.184.927.927,0,0,0,1.1-.812c.163-.631.42-1.238.686-2,.28.77.56,1.383.721,2.026a.9.9,0,0,0,1.111.776c.608-.046,1.221-.01,1.965-.01a7.578,7.578,0,0,1-1.7,1.425.752.752,0,0,0-.328,1.023c.256.641.4,1.327.649,2.178-.73-.5-1.344-.858-1.887-1.3a.731.731,0,0,0-1.059.01,7.4,7.4,0,0,1-1.675,1.085l-.07-.082" transform="translate(-105.166 -118.721)" fill="#f5f6f9"/>
    <path id="Path_17881" data-name="Path 17881" d="M136.4,105.695l-.093.126c-.078-.08-.06-.148.024-.21l.069.084" transform="translate(-112.327 -87.063)" fill="#f5f6f9"/>
    <path id="Path_17882" data-name="Path 17882" d="M136.4,184.687l-.092.128c-.083-.08-.061-.148.023-.209l.069.081" transform="translate(-112.329 -152.184)" fill="#f5f6f9"/>
    <path id="Path_17883" data-name="Path 17883" d="M255.689,263.164l.061-.02s-.041.013-.043.015a.083.083,0,0,1-.018,0" transform="translate(-210.783 -216.93)" fill="#f5f6f9"/>
    <path id="Path_17884" data-name="Path 17884" d="M69.064,263.979l.116.064-.051.062-.07-.12.005-.006" transform="translate(-56.93 -217.617)" fill="#f5f6f9"/>
    <path id="Path_17885" data-name="Path 17885" d="M136.4,263.667l-.1.127c-.09-.079-.059-.147.019-.211l.077.085" transform="translate(-112.321 -217.29)" fill="#f5f6f9"/>
  </g>
</svg>
