<svg xmlns="http://www.w3.org/2000/svg" width="40.685" height="40.692" viewBox="0 0 40.685 40.692">
  <g id="_2613265_chat_messaging_service_messenger_social_media_video_calls_icon" data-name="2613265_chat_messaging service_messenger_social media_video calls_icon" transform="translate(-0.04 0.009)">
    <path id="Path_20672" data-name="Path 20672" d="M40.542,4.045c.917,1.211,1.33,3.219,1.533,5.659.269,3.642.377,8.012.48,12.529-.134,4.6-.188,9.24-.48,12.529-.231,2.525-.72,4.215-1.538,5.241C39.5,41.025,37.5,41.89,34.653,42.094c-3.462.3-7.733.292-12.445.408-5.238-.09-8.79-.051-12.517-.407a9.873,9.873,0,0,1-5.979-2.087c-.867-1.164-1.121-2.4-1.361-5.3-.3-3.35-.367-7.889-.48-12.45.17-4.537.181-9.11.483-12.528.2-2.7.522-4.51,1.341-5.662C4.842,3.088,6.8,2.6,9.725,2.361A105.815,105.815,0,0,1,22.2,1.811c4.434.007,8.69.134,12.487.507,2.561.2,4.681.646,5.849,1.726Z" transform="translate(-1.83 -1.82)" fill="#25d366" fill-rule="evenodd"/>
    <path id="Path_20673" data-name="Path 20673" d="M120.05,102.542a11.91,11.91,0,0,0-18.741,14.367L99.62,123.08l6.312-1.656a11.9,11.9,0,0,0,5.69,1.45h0a11.912,11.912,0,0,0,8.422-20.331Zm-8.423,18.32h0a9.884,9.884,0,0,1-5.039-1.38l-.36-.214-3.746.983,1-3.652-.235-.375a9.9,9.9,0,1,1,8.384,4.638Z" transform="translate(-91.756 -91.276)" fill="#fff"/>
    <path id="Path_20674" data-name="Path 20674" d="M185.547,187.142c-.3-.149-1.761-.868-2.033-.968s-.471-.149-.669.149-.768.968-.942,1.166-.347.223-.644.074a8.124,8.124,0,0,1-2.393-1.477,8.931,8.931,0,0,1-1.655-2.061c-.174-.3-.018-.459.13-.608.134-.134.3-.347.447-.521a2.032,2.032,0,0,0,.3-.5.548.548,0,0,0-.025-.521c-.074-.149-.669-1.614-.917-2.209-.24-.58-.487-.5-.669-.511s-.372-.01-.57-.01a1.093,1.093,0,0,0-.793.372A3.335,3.335,0,0,0,174.07,182a5.778,5.778,0,0,0,1.215,3.078,13.3,13.3,0,0,0,5.083,4.492,17.085,17.085,0,0,0,1.7.627,4.077,4.077,0,0,0,1.874.118,3.067,3.067,0,0,0,2.008-1.414,2.494,2.494,0,0,0,.174-1.415C186.046,187.364,185.844,187.287,185.547,187.142Z" transform="translate(-160.246 -164.964)" fill="#fff"/>
  </g>
</svg>
